<svg width="40" height="41" viewBox="0 0 40 41" fill="none" xmlns="http://www.w3.org/2000/svg">
<path d="M32.2264 16.6158H17.8017C18.4688 15.8491 18.874 14.849 18.874 13.7553C18.874 11.3486 16.9161 9.39062 14.5094 9.39062C12.1026 9.39062 10.1447 11.3486 10.1447 13.7553C10.1447 14.849 10.55 15.8491 11.2169 16.6158H7.77358C5.69283 16.6158 4 18.3087 4 20.3894V24.8422C4 25.259 4.33789 25.5969 4.75472 25.5969C5.17155 25.5969 5.50943 25.259 5.50943 24.8422V20.3894C5.50943 19.141 6.52513 18.1253 7.77358 18.1253H28.9057C30.1541 18.1253 31.1698 19.141 31.1698 20.3894V24.4649H23.3208C21.24 24.4649 19.5472 26.1577 19.5472 28.2385C19.5472 30.3192 21.24 32.0121 23.3208 32.0121H31.1698V36.0875C31.1698 37.336 30.1541 38.3517 28.9057 38.3517H7.77358C6.52513 38.3517 5.50943 37.336 5.50943 36.0875V31.6288C5.50943 31.212 5.17155 30.8741 4.75472 30.8741C4.33789 30.8741 4 31.212 4 31.6288V36.0875C4 38.1683 5.69283 39.8611 7.77358 39.8611H32.2264C34.3072 39.8611 36 38.1683 36 36.0875V20.3894C36 18.3087 34.3072 16.6158 32.2264 16.6158ZM14.5094 10.9001C16.0838 10.9001 17.3646 12.181 17.3646 13.7554C17.3646 15.3298 16.0838 16.6106 14.5094 16.6106C12.935 16.6106 11.6541 15.3298 11.6541 13.7554C11.6541 12.181 12.9349 10.9001 14.5094 10.9001ZM31.9225 18.1253H32.2264C33.4749 18.1253 34.4906 19.141 34.4906 20.3894V24.4649H32.6792V20.3894C32.6792 19.5406 32.3974 18.7564 31.9225 18.1253ZM21.0566 28.2385C21.0566 26.99 22.0723 25.9743 23.3208 25.9743H34.4906V30.5026H23.3208C22.0723 30.5026 21.0566 29.4869 21.0566 28.2385ZM32.2264 38.3517H31.9225C32.3974 37.7205 32.6792 36.9364 32.6792 36.0875V32.0121H34.4906V36.0875C34.4906 37.336 33.4749 38.3517 32.2264 38.3517Z" fill="#222222"/>
<path d="M23.1278 27.4834C22.9285 27.4834 22.7338 27.5642 22.5934 27.7045C22.453 27.8449 22.373 28.0396 22.373 28.2381C22.373 28.4366 22.453 28.6313 22.5934 28.7717C22.7346 28.9121 22.9285 28.9928 23.1278 28.9928C23.3263 28.9928 23.5202 28.9121 23.6613 28.7717C23.8017 28.6313 23.8825 28.4366 23.8825 28.2381C23.8825 28.0396 23.8017 27.8449 23.6613 27.7045C23.521 27.5641 23.3263 27.4834 23.1278 27.4834Z" fill="#222222"/>
<path d="M25.4916 11.5287C27.8983 11.5287 29.8563 9.57071 29.8563 7.164C29.8563 4.75735 27.8983 2.79932 25.4916 2.79932C23.0849 2.79932 21.127 4.75728 21.127 7.164C21.127 9.57071 23.0849 11.5287 25.4916 11.5287ZM25.4916 4.30883C27.066 4.30883 28.3469 5.58966 28.3469 7.16407C28.3469 8.73849 27.066 10.0193 25.4916 10.0193C23.9172 10.0193 22.6364 8.73849 22.6364 7.16407C22.6364 5.58966 23.9172 4.30883 25.4916 4.30883Z" fill="#222222"/>
<path d="M18.12 8.57924C18.5368 8.57924 18.8747 8.24135 18.8747 7.82452V1.89388C18.8747 1.47705 18.5368 1.13916 18.12 1.13916C17.7031 1.13916 17.3652 1.47705 17.3652 1.89388V7.82452C17.3652 8.24135 17.7031 8.57924 18.12 8.57924Z" fill="#222222"/>
<path d="M14.4969 5.96935C14.9137 5.96935 15.2516 5.63146 15.2516 5.21463V1.89388C15.2516 1.47705 14.9137 1.13916 14.4969 1.13916C14.0801 1.13916 13.7422 1.47705 13.7422 1.89388V5.21463C13.7422 5.63146 14.0801 5.96935 14.4969 5.96935Z" fill="#222222"/>
<path d="M4.75472 28.9928C4.95321 28.9928 5.14792 28.9121 5.2883 28.7717C5.42868 28.6313 5.50943 28.4366 5.50943 28.2381C5.50943 28.0396 5.42868 27.8449 5.2883 27.7045C5.14792 27.5642 4.95396 27.4834 4.75472 27.4834C4.55623 27.4834 4.36151 27.5642 4.22113 27.7045C4.08075 27.8449 4 28.0396 4 28.2381C4 28.4366 4.08075 28.6313 4.22113 28.7717C4.36151 28.9121 4.55615 28.9928 4.75472 28.9928Z" fill="#222222"/>
</svg>
