<svg width="40" height="41" viewBox="0 0 40 41" fill="none" xmlns="http://www.w3.org/2000/svg">
<path d="M32.8741 29.3816C33.5062 28.5125 33.8488 27.4665 33.8533 26.3918C33.8601 26.2505 33.8105 26.1122 33.7154 26.0075C33.6203 25.9028 33.4874 25.8402 33.3461 25.8334C33.053 25.8224 32.8049 26.0478 32.7877 26.3406C32.7917 27.1923 32.5294 28.024 32.0373 28.7192C30.9968 30.0333 29.0224 30.1 28.6368 30.1C28.3423 30.1 28.1035 30.3388 28.1035 30.6333C28.1035 30.9279 28.3423 31.1667 28.6368 31.1667C29.1083 31.1667 31.528 31.0808 32.8741 29.3816Z" fill="#222222"/>
<path d="M22.135 22.6333C22.135 22.3388 21.8962 22.1 21.6017 22.1C21.3071 22.1 21.0684 22.3388 21.0684 22.6333C21.0684 23.8115 22.0235 24.7666 23.2017 24.7666V25.3C23.2017 25.5945 23.4404 25.8333 23.735 25.8333C24.0295 25.8333 24.2683 25.5945 24.2683 25.3V24.7666C25.4465 24.7666 26.4016 23.8115 26.4016 22.6333C26.4016 21.4551 25.4465 20.5 24.2683 20.5V18.3667C24.8574 18.3667 25.335 18.8443 25.335 19.4334C25.335 19.7279 25.5738 19.9667 25.8683 19.9667C26.1628 19.9667 26.4016 19.7279 26.4016 19.4334C26.4016 18.2552 25.4465 17.3001 24.2683 17.3001V16.7667C24.2683 16.4722 24.0295 16.2334 23.735 16.2334C23.4404 16.2334 23.2017 16.4722 23.2017 16.7667V17.3001C22.0235 17.3001 21.0684 18.2552 21.0684 19.4334C21.0684 20.6116 22.0235 21.5667 23.2017 21.5667V23.7C22.6126 23.7 22.135 23.2224 22.135 22.6333ZM22.135 19.4334C22.135 18.8443 22.6126 18.3667 23.2017 18.3667V20.5C22.6126 20.5 22.135 20.0225 22.135 19.4334ZM24.2683 21.5667C24.8574 21.5667 25.335 22.0442 25.335 22.6333C25.335 23.2224 24.8574 23.7 24.2683 23.7V21.5667Z" fill="#222222"/>
<path d="M35.5557 22.5114C34.2416 16.9269 31.32 13.6912 29.2102 12.0011C31.856 12.2006 32.7077 13.3014 32.7328 13.3344C32.8999 13.5729 33.2274 13.6333 33.4686 13.4701C33.7097 13.3068 33.7754 12.9803 33.616 12.7366C33.5776 12.679 32.8368 11.6208 30.6827 11.1366C31.2335 10.6838 31.5593 10.0132 31.5749 9.30034C31.5036 8.11846 30.6809 7.11624 29.5355 6.8161C29.5825 6.43086 29.6063 6.04315 29.607 5.65505C29.6064 5.29751 29.4267 4.96403 29.1284 4.76689C28.8302 4.56975 28.4529 4.53517 28.1238 4.6748C27.8545 4.7967 27.6045 4.95714 27.3814 5.15106C27.1197 5.42002 26.7594 5.57031 26.3841 5.56705C26.0094 5.56969 25.6498 5.41946 25.3884 5.15106C24.4484 4.28298 22.9992 4.28298 22.0593 5.15106C21.7976 5.42061 21.4367 5.57098 21.0609 5.56705C20.6863 5.57016 20.3267 5.41985 20.0658 5.15106C19.8433 4.95755 19.5939 4.79731 19.3255 4.67533C18.9966 4.53664 18.6201 4.5717 18.3224 4.76872C18.0247 4.96574 17.8453 5.29861 17.8444 5.65558C17.8444 6.9825 18.1068 9.3494 19.7682 10.9387C18.8951 11.4696 18.0797 12.09 17.3351 12.7899V8.76701C17.3351 7.55103 15.6151 6.6337 13.3352 6.6337C11.0552 6.6337 9.33522 7.55103 9.33522 8.76701V14.1403C7.46484 14.3269 6.13526 15.1669 6.13526 16.2336V29.7987C4.84674 30.1449 4.00195 30.8467 4.00195 31.7001V34.3667C4.00195 35.5827 5.72193 36.5 8.0019 36.5C10.0408 36.5 11.6285 35.7656 11.9416 34.74C12.8622 35.2275 13.894 35.4664 14.9352 35.4333C17.2151 35.4333 18.9351 34.516 18.9351 33.3V26.3668C18.9351 25.1508 17.2151 24.2335 14.9352 24.2335C14.668 24.2333 14.401 24.2467 14.1352 24.2735V16.2336C14.1352 15.0656 12.5474 14.176 10.4019 14.1072V10.2438C11.3092 10.705 12.3178 10.9307 13.3352 10.9003C14.3525 10.9307 15.3612 10.705 16.2685 10.2438V13.8811C15.917 14.2741 15.5639 14.7024 15.2157 15.1771C15.0562 15.4145 15.1125 15.7356 15.3432 15.9046C15.574 16.0737 15.897 16.0306 16.0754 15.8069C16.4179 15.3432 16.785 14.8981 17.1751 14.4736C17.1794 14.4688 17.1831 14.464 17.1874 14.4597C18.2055 13.3283 19.401 12.3702 20.7271 11.623C20.9885 11.7491 21.2651 11.841 21.55 11.8966L20.1751 13.1798C19.9598 13.3809 19.9483 13.7186 20.1495 13.9339C20.3507 14.1492 20.6883 14.1607 20.9036 13.9595L23.0369 11.9696H23.207V13.5696C23.207 13.8642 23.4458 14.1029 23.7404 14.1029C24.0349 14.1029 24.2737 13.8642 24.2737 13.5696V11.967H24.4438L26.5771 13.9568C26.7164 14.087 26.9146 14.1329 27.0969 14.0773C27.2792 14.0218 27.4181 13.8732 27.4612 13.6875C27.5042 13.5018 27.445 13.3072 27.3057 13.1771L25.9217 11.8886C26.2049 11.8325 26.4797 11.7402 26.7393 11.6139C28.1489 12.3766 32.7824 15.3899 34.5178 22.7556C35.2725 25.962 35.0005 28.4148 33.7099 30.0441C32.0587 32.1267 29.1936 32.2334 28.6363 32.2334H21.0684C20.7739 32.2334 20.5351 32.4722 20.5351 32.7667C20.5351 33.0613 20.7739 33.3 21.0684 33.3H28.6363C29.543 33.3 32.6389 33.1128 34.5456 30.7065C36.0485 28.8084 36.3888 26.0511 35.5557 22.5114ZM8.0019 30.6334C9.76561 30.6334 10.9352 31.2734 10.9352 31.7001C10.9352 32.1267 9.76561 32.7667 8.0019 32.7667C6.23819 32.7667 5.06861 32.1267 5.06861 31.7001C5.06861 31.2734 6.23819 30.6334 8.0019 30.6334ZM8.0019 35.4333C6.23819 35.4333 5.06861 34.7934 5.06861 34.3667V33.1768C5.97592 33.638 6.98457 33.8638 8.0019 33.8334C9.01923 33.8638 10.0279 33.638 10.9352 33.1768V34.3667C10.9352 34.7934 9.76561 35.4333 8.0019 35.4333ZM14.9352 34.3667C13.1714 34.3667 12.0019 33.7267 12.0019 33.3V27.8436C12.9092 28.3047 13.9178 28.5305 14.9352 28.5001C15.9525 28.5305 16.9611 28.3047 17.8684 27.8436V33.3C17.8684 33.7267 16.6989 34.3667 14.9352 34.3667ZM17.8684 26.3668C17.8684 26.7935 16.6989 27.4334 14.9352 27.4334C13.1714 27.4334 12.0019 26.7935 12.0019 26.3668C12.0019 25.9401 13.1714 25.3001 14.9352 25.3001C16.6989 25.3001 17.8684 25.9401 17.8684 26.3668ZM10.9352 26.3668V30.2233C10.0279 29.7621 9.01923 29.5364 8.0019 29.5668C7.73474 29.5666 7.46773 29.5799 7.20191 29.6068V17.7104C8.10922 18.1715 9.11788 18.3973 10.1352 18.3669C11.1525 18.3973 12.1612 18.1715 13.0685 17.7104V24.4655C11.78 24.8116 10.9352 25.5135 10.9352 26.3668ZM13.0685 16.2336C13.0685 16.6602 11.8989 17.3002 10.1352 17.3002C8.3715 17.3002 7.20191 16.6602 7.20191 16.2336C7.20191 15.8069 8.3715 15.1669 10.1352 15.1669C11.8989 15.1669 13.0685 15.8069 13.0685 16.2336ZM13.3352 9.83366C11.5715 9.83366 10.4019 9.19367 10.4019 8.76701C10.4019 8.34035 11.5715 7.70036 13.3352 7.70036C15.0989 7.70036 16.2685 8.34035 16.2685 8.76701C16.2685 9.19367 15.0989 9.83366 13.3352 9.83366ZM30.5083 9.30034C30.5083 10.1745 29.5616 10.8918 28.375 10.9003C28.1765 10.8991 27.9787 10.8764 27.7851 10.8326C28.5592 10.0068 29.0972 8.98817 29.343 7.88329C29.9849 8.07244 30.4467 8.63392 30.5083 9.30034ZM19.398 5.98305C19.8484 6.40509 20.4437 6.63801 21.0609 6.6337C21.6785 6.63834 22.2743 6.40539 22.7249 5.98305C22.9885 5.71688 23.3476 5.56714 23.7222 5.56714C24.0969 5.56714 24.4559 5.71688 24.7196 5.98305C25.1702 6.4057 25.7663 6.6387 26.3841 6.6337C27.0019 6.63848 27.5978 6.40552 28.0486 5.98305C28.1964 5.85242 28.3608 5.74195 28.5377 5.65452C28.5377 6.6449 28.3537 9.09341 26.6353 10.4358C26.2487 10.7261 25.78 10.8865 25.2966 10.8939C25.7583 10.1009 26.1237 9.25567 26.3851 8.37608C26.4362 8.1924 26.3854 7.99543 26.2519 7.85937C26.1183 7.72331 25.9223 7.66882 25.7377 7.71644C25.5531 7.76406 25.408 7.90654 25.3569 8.09022C25.0615 9.09275 24.6074 10.0415 24.0118 10.9003H23.4636C22.8692 10.0407 22.415 9.09221 22.118 8.09022C22.0389 7.80642 21.7447 7.64047 21.4609 7.71956C21.1771 7.79864 21.0112 8.09282 21.0903 8.37662C21.3519 9.25696 21.7177 10.1029 22.1799 10.8966C21.6868 10.8941 21.2076 10.7327 20.8135 10.4363C19.0951 9.09447 18.9111 6.64597 18.9111 5.65878C19.0878 5.74346 19.2518 5.85262 19.398 5.98305Z" fill="#222222"/>
<path d="M32.8741 29.3816C33.5062 28.5124 33.8488 27.4664 33.8533 26.3917C33.8601 26.2504 33.8105 26.1122 33.7154 26.0075C33.6203 25.9028 33.4874 25.8401 33.3461 25.8334C33.0532 25.823 32.8055 26.048 32.7877 26.3405C32.7917 27.1923 32.5294 28.0239 32.0373 28.7192C30.9968 30.0333 29.0224 30.1 28.6368 30.1C28.3423 30.1 28.1035 30.3387 28.1035 30.6333C28.1035 30.9278 28.3423 31.1666 28.6368 31.1666C29.1083 31.1666 31.528 31.0808 32.8741 29.3816Z" fill="#222222"/>
</svg>
