<svg width="40" height="40" viewBox="0 0 40 40" fill="none" xmlns="http://www.w3.org/2000/svg">
<path fill-rule="evenodd" clip-rule="evenodd" d="M33.3162 16.5625C33.6 17.6613 33.75 18.8125 33.75 20C33.75 27.5888 27.5888 33.75 20 33.75C12.4113 33.75 6.25 27.5888 6.25 20C6.25 12.4113 12.4113 6.25 20 6.25C21.1875 6.25 22.3388 6.4 23.4375 6.68375C24.1063 6.85625 24.7887 6.45375 24.96 5.785C25.1325 5.1175 24.73 4.435 24.0625 4.2625C22.7638 3.92875 21.4025 3.75 20 3.75C11.0312 3.75 3.75 11.0312 3.75 20C3.75 28.9688 11.0312 36.25 20 36.25C28.9688 36.25 36.25 28.9688 36.25 20C36.25 18.5975 36.0713 17.2362 35.7375 15.9375C35.565 15.27 34.8825 14.8675 34.215 15.04C33.5462 15.2112 33.1437 15.8938 33.3162 16.5625ZM18.75 12.1325C18.1187 12.2587 17.5212 12.5413 17.0162 12.9625C17.0162 12.9625 17.0163 12.9625 17.015 12.9638C16.1163 13.7125 15.5938 14.82 15.5875 15.99C15.5813 17.16 16.0925 18.2737 16.9837 19.0325L21.2963 22.7025C21.6263 22.9838 21.8162 23.3975 21.8138 23.8313C21.8113 24.2663 21.6175 24.6775 21.2838 24.955L21.2812 24.9575C20.9862 25.2037 20.6025 25.3188 20.2213 25.2763C20.21 25.275 20.2 25.2738 20.19 25.2725C20.1812 25.2712 20.1737 25.27 20.165 25.2687C19.805 25.215 19.4787 25.0225 19.2562 24.7325C18.595 23.8712 17.9912 23.085 17.9912 23.085C17.5712 22.5375 16.7863 22.435 16.2388 22.855C15.6912 23.275 15.5887 24.06 16.0087 24.6075C16.0087 24.6075 16.6125 25.3937 17.2738 26.255C17.6663 26.7662 18.175 27.1675 18.75 27.4312V29.2313L18.7612 29.395C18.7825 29.5813 18.8425 29.7375 18.9237 29.865C19.13 30.2162 19.505 30.4575 19.9363 30.4787L20 30.4813L20.0537 30.4737C20.2925 30.4362 21.25 30.2225 21.25 29.22V27.6863C21.8438 27.55 22.4037 27.2763 22.8813 26.8787C22.8825 26.8775 22.8838 26.8762 22.885 26.8762C23.785 26.1262 24.3075 25.0163 24.3138 23.845C24.32 22.6737 23.8088 21.5588 22.9163 20.7987L18.6038 17.1287C18.275 16.8475 18.085 16.4363 18.0875 16.0038C18.09 15.57 18.2837 15.1612 18.6162 14.8837L18.6175 14.8825C18.9125 14.6363 19.295 14.5225 19.6775 14.565C19.7037 14.5688 19.7312 14.5725 19.7575 14.5775C19.7675 14.5787 19.7775 14.5813 19.7875 14.5825C20.125 14.6488 20.4287 14.8363 20.6388 15.1125C21.345 16.0413 22.005 16.91 22.005 16.91C22.4225 17.46 23.2075 17.5662 23.7562 17.1488C24.305 16.7312 24.4125 15.9475 23.995 15.3975C23.995 15.3975 23.335 14.5288 22.6287 13.6C22.26 13.1138 21.7862 12.7262 21.25 12.4613V10.7687C21.25 10.0787 20.69 9.51875 20 9.51875C19.31 9.51875 18.75 10.0787 18.75 10.7687V12.1325ZM28.75 8.75H25C24.31 8.75 23.75 9.31 23.75 10C23.75 10.69 24.31 11.25 25 11.25H28.75V15C28.75 15.69 29.31 16.25 30 16.25C30.69 16.25 31.25 15.69 31.25 15V11.25H35C35.69 11.25 36.25 10.69 36.25 10C36.25 9.31 35.69 8.75 35 8.75H31.25V5C31.25 4.31 30.69 3.75 30 3.75C29.31 3.75 28.75 4.31 28.75 5V8.75Z" fill="#222222"/>
</svg>
