<svg width="40" height="40" viewBox="0 0 40 40" fill="none" xmlns="http://www.w3.org/2000/svg">
<path d="M26.043 24.8768C25.19 24.8768 24.4961 24.2761 24.4961 23.5379C24.4961 22.7997 25.19 22.199 26.043 22.199C26.8959 22.199 27.5898 22.7997 27.5898 23.5379C27.5898 23.9262 27.9047 24.2411 28.293 24.2411C28.6812 24.2411 28.9961 23.9262 28.9961 23.5379C28.9961 22.2495 28.036 21.1661 26.7461 20.872V20.5063C26.7461 20.1181 26.4312 19.8032 26.043 19.8032C25.6547 19.8032 25.3398 20.1181 25.3398 20.5063V20.872C24.0499 21.1661 23.0898 22.2495 23.0898 23.5379C23.0898 25.0515 24.4146 26.283 26.043 26.283C26.8959 26.283 27.5898 26.8836 27.5898 27.6219C27.5898 28.3602 26.8959 28.9608 26.043 28.9608C25.19 28.9608 24.4961 28.3602 24.4961 27.6219C24.4961 27.2336 24.1812 26.9188 23.793 26.9188C23.4047 26.9188 23.0898 27.2336 23.0898 27.6219C23.0898 28.9104 24.0499 29.9937 25.3398 30.2878V30.5915C25.3398 30.9798 25.6547 31.2947 26.043 31.2947C26.4312 31.2947 26.7461 30.9798 26.7461 30.5915V30.2878C28.036 29.9937 28.9961 28.9104 28.9961 27.6219C28.9961 26.1082 27.6713 24.8768 26.043 24.8768Z" fill="#222222"/>
<path d="M33.7443 20.6944C32.8258 19.2632 31.5318 18.1179 30.0021 17.3826C29.652 17.2143 29.2319 17.3617 29.0637 17.7117C28.8955 18.0617 29.0428 18.4817 29.3928 18.65C32.0584 19.9314 33.7807 22.6693 33.7807 25.6251C33.7807 26.8898 33.4689 28.1441 32.8792 29.2525C32.6968 29.5953 32.8269 30.0211 33.1697 30.2035C33.2749 30.2595 33.3879 30.2861 33.4993 30.2861C33.7509 30.2861 33.9942 30.1506 34.1207 29.913C34.8182 28.6021 35.187 27.1193 35.187 25.6251C35.187 23.8701 34.6881 22.1651 33.7443 20.6944Z" fill="#222222"/>
<path d="M27.1489 16.4844L27.1016 16.4844C26.7133 16.4844 26.3984 16.7992 26.3984 17.1875C26.3984 17.5758 26.7133 17.8906 27.1016 17.8906L27.1423 17.8907C27.1434 17.8907 27.1445 17.8907 27.1456 17.8907C27.5324 17.8907 27.8469 17.5781 27.8487 17.1909C27.8505 16.8025 27.5371 16.4863 27.1489 16.4844Z" fill="#222222"/>
<path d="M22.7003 32.5999C20.0348 31.3185 18.3125 28.5806 18.3125 25.6249C18.3125 24.3601 18.6243 23.1058 19.214 21.9974C19.3964 21.6546 19.2664 21.2288 18.9235 21.0464C18.5808 20.864 18.1549 20.994 17.9725 21.3369C17.275 22.6478 16.9062 24.1306 16.9062 25.6249C16.9062 27.3799 17.4051 29.0848 18.3489 30.5555C19.2674 31.9867 20.5614 33.132 22.0911 33.8674C22.1893 33.9146 22.2931 33.9369 22.3953 33.9369C22.6571 33.9369 22.9084 33.79 23.0295 33.5383C23.1976 33.1883 23.0504 32.7682 22.7003 32.5999Z" fill="#222222"/>
<path d="M24.9931 33.3595L24.9524 33.3594C24.5623 33.3587 24.2479 33.6708 24.2461 34.0592C24.2443 34.4475 24.5577 34.7638 24.946 34.7656L24.9931 34.7658C25.3814 34.7658 25.6962 34.4509 25.6962 34.0626C25.6962 33.6744 25.3814 33.3595 24.9931 33.3595Z" fill="#222222"/>
<path d="M29.2396 14.1055C29.1541 13.9016 29.0492 13.7095 28.9272 13.5312H30.7578C32.5412 13.5312 33.9921 12.0803 33.9921 10.2969C33.9921 8.51346 32.5412 7.06249 30.7578 7.06249H25.1271C25.4851 6.54204 25.6953 5.91239 25.6953 5.23437C25.6953 3.45097 24.2443 2 22.4609 2H5.23437C3.45097 2 2 3.45097 2 5.23437C2 7.01777 3.45097 8.46874 5.23437 8.46874H10.865C10.507 8.98919 10.2969 9.61884 10.2969 10.2969C10.2969 10.9749 10.507 11.6045 10.865 12.125H9.03124C7.24783 12.125 5.79687 13.5759 5.79687 15.3593C5.79687 16.3836 6.27598 17.2976 7.02136 17.8906C6.27598 18.4836 5.79687 19.3976 5.79687 20.4218C5.79687 21.4461 6.27598 22.3601 7.02136 22.9531C6.27598 23.5461 5.79687 24.4601 5.79687 25.4843C5.79687 26.5086 6.27598 27.4226 7.02136 28.0156C6.27598 28.6086 5.79687 29.5226 5.79687 30.5468C5.79687 32.3302 7.24783 33.7812 9.03124 33.7812H17.3175C19.5005 36.1161 22.6059 37.5781 26.0469 37.5781C32.6378 37.5781 38 32.216 38 25.625C38 20.1395 34.2854 15.5058 29.2396 14.1055ZM30.7578 8.46874C31.7658 8.46874 32.5859 9.28886 32.5859 10.2969C32.5859 11.3049 31.7658 12.125 30.7578 12.125H26.2578H13.5312C12.5232 12.125 11.7031 11.3049 11.7031 10.2969C11.7031 9.28886 12.5232 8.46874 13.5312 8.46874H30.7578ZM5.23437 7.06249C4.2263 7.06249 3.40625 6.24237 3.40625 5.23437C3.40625 4.22637 4.2263 3.40625 5.23437 3.40625H22.4609C23.469 3.40625 24.289 4.22637 24.289 5.23437C24.289 6.24237 23.469 7.06249 22.4609 7.06249H5.23437ZM9.03124 13.5312H26.2578C26.541 13.5312 26.8122 13.597 27.0555 13.7149C26.7229 13.687 26.3867 13.6719 26.0469 13.6719C22.7461 13.6719 19.7536 15.0169 17.5884 17.1875H9.03124C8.02324 17.1875 7.20311 16.3673 7.20311 15.3593C7.20311 14.3514 8.02324 13.5312 9.03124 13.5312ZM9.03124 18.5937H16.387C15.5888 19.6873 14.9716 20.9207 14.5797 22.25H9.03124C8.02317 22.25 7.20311 21.4299 7.20311 20.4218C7.20311 19.4138 8.02317 18.5937 9.03124 18.5937ZM9.03124 23.6562H14.2569C14.1502 24.297 14.0938 24.9545 14.0938 25.625C14.0938 26.1978 14.1352 26.761 14.2135 27.3125H9.03124C8.02317 27.3125 7.20311 26.4924 7.20311 25.4843C7.20311 24.4763 8.02317 23.6562 9.03124 23.6562ZM9.03124 32.3749C8.02317 32.3749 7.20311 31.5549 7.20311 30.5468C7.20311 29.5388 8.02317 28.7187 9.03124 28.7187H14.5006C14.8554 30.0415 15.4317 31.2743 16.1876 32.3749H9.03124ZM26.0469 36.1719C20.2314 36.1719 15.5 31.4406 15.5 25.625C15.5 19.8095 20.2314 15.0782 26.0469 15.0782C31.8624 15.0782 36.5938 19.8095 36.5938 25.625C36.5938 31.4406 31.8624 36.1719 26.0469 36.1719Z" fill="#222222"/>
</svg>
