<svg width="40" height="41" viewBox="0 0 40 41" fill="none" xmlns="http://www.w3.org/2000/svg">
<path d="M31.7006 10.1236C28.9288 7.35171 25.2417 5.82422 21.3242 5.82422C17.3343 5.82422 13.6012 7.3978 10.8161 10.2553C10.5132 10.5647 10.5198 11.0651 10.8293 11.3746C11.1387 11.6774 11.6391 11.6708 11.9486 11.3614C14.4373 8.81337 17.7623 7.41097 21.3242 7.41097C28.5469 7.40438 34.4198 13.2773 34.4198 20.5C34.4198 27.7227 28.5469 33.5956 21.3242 33.5956C14.1015 33.5956 8.22859 27.7227 8.22859 20.5V20.3354L9.53223 21.639C9.68366 21.7905 9.88776 21.8695 10.0919 21.8695C10.296 21.8695 10.4935 21.7905 10.6515 21.639C10.961 21.3296 10.961 20.8292 10.6515 20.5198L8.00473 17.8664C7.69528 17.5569 7.1949 17.5569 6.88545 17.8664L4.23209 20.5198C3.92264 20.8292 3.92264 21.3296 4.23209 21.639C4.54154 21.9485 5.04192 21.9485 5.35137 21.639L6.65501 20.3354V20.5C6.65501 24.4175 8.1825 28.1046 10.9544 30.8764C13.7262 33.6483 17.4133 35.1758 21.3308 35.1758C25.2483 35.1758 28.9353 33.6483 31.7072 30.8764C34.4791 28.1046 36 24.4175 36 20.5C36 16.5825 34.4725 12.8955 31.7006 10.1236Z" fill="#222222"/>
<path d="M25.5248 15.1602L15.82 24.8584C15.5105 25.1679 15.5105 25.6683 15.82 25.9777C15.9714 26.1291 16.1755 26.2082 16.3796 26.2082C16.5837 26.2082 16.7812 26.1291 16.9393 25.9777L26.6441 16.2729C26.9536 15.9634 26.9536 15.463 26.6441 15.1536C26.3347 14.8507 25.8343 14.8507 25.5248 15.1602Z" fill="#222222"/>
<path d="M22.9829 21.6919C21.8833 22.7914 21.8833 24.5889 22.9829 25.6884C23.5162 26.2217 24.2272 26.518 24.9844 26.518C25.7416 26.518 26.4526 26.2217 26.9859 25.6884C28.0855 24.5889 28.0855 22.7914 26.9859 21.6919C26.4526 21.1586 25.7416 20.8623 24.9844 20.8623C24.2272 20.8623 23.5227 21.1586 22.9829 21.6919ZM25.8667 24.5757C25.6296 24.8127 25.3202 24.9378 24.9844 24.9378C24.6486 24.9378 24.3392 24.8061 24.1021 24.5757C23.6149 24.0885 23.6149 23.2984 24.1021 22.8112C24.3392 22.5742 24.6486 22.4491 24.9844 22.4491C25.3202 22.4491 25.6296 22.5807 25.8667 22.8112C26.3539 23.2984 26.3539 24.0885 25.8667 24.5757Z" fill="#222222"/>
<path d="M17.6905 14.4561C16.9333 14.4561 16.2223 14.7523 15.689 15.2856C15.1557 15.8189 14.8594 16.53 14.8594 17.2872C14.8594 18.0443 15.1557 18.7554 15.689 19.2887C16.2223 19.822 16.9333 20.1183 17.6905 20.1183C18.4477 20.1183 19.1587 19.822 19.692 19.2887C20.2254 18.7554 20.5216 18.0443 20.5216 17.2872C20.5216 16.53 20.2254 15.8189 19.692 15.2856C19.1522 14.7523 18.4477 14.4561 17.6905 14.4561ZM18.5728 18.1694C18.3357 18.4065 18.0263 18.5316 17.6905 18.5316C17.3547 18.5316 17.0453 18.3999 16.8082 18.1694C16.5712 17.9324 16.4461 17.623 16.4461 17.2872C16.4461 16.9514 16.5778 16.642 16.8082 16.4049C17.0453 16.1679 17.3547 16.0428 17.6905 16.0428C18.0263 16.0428 18.3357 16.1745 18.5728 16.4049C18.8098 16.642 18.9349 16.9514 18.9349 17.2872C18.9349 17.6164 18.8098 17.9324 18.5728 18.1694Z" fill="#222222"/>
</svg>
