<svg width="40" height="40" viewBox="0 0 40 40" fill="none" xmlns="http://www.w3.org/2000/svg">
<g clip-path="url(#clip0_90_7530)">
<path d="M19.9997 10.1577C14.572 10.1577 10.1562 14.5735 10.1562 20.0012C10.1562 25.4288 14.572 29.8446 19.9997 29.8446C25.4274 29.8446 29.8431 25.4288 29.8431 20.0012C29.8431 14.5735 25.4274 10.1577 19.9997 10.1577ZM19.9997 28.279C15.4352 28.279 11.7218 24.5656 11.7218 20.0012C11.7218 15.4367 15.4352 11.7233 19.9997 11.7233C24.5641 11.7233 28.2776 15.4367 28.2776 20.0012C28.2776 24.5656 24.5641 28.279 19.9997 28.279Z" fill="#222222"/>
<path d="M20.9788 18.9328C20.3372 18.706 19.6283 18.4326 19.2348 18.1239C19.1281 18.0403 19.0836 17.8403 19.1238 17.6265C19.1444 17.5172 19.2403 17.152 19.6098 17.0407C20.3083 16.8304 21.1802 17.2355 21.4578 17.4097C21.8215 17.641 22.304 17.5346 22.5366 17.1716C22.77 16.8077 22.6641 16.3234 22.3002 16.0902C22.1973 16.0241 21.5697 15.6388 20.7391 15.4812V15.2516C20.7391 14.8192 20.3887 14.4688 19.9563 14.4688C19.524 14.4688 19.1735 14.8192 19.1735 15.2516V15.5376C19.1684 15.5391 19.1633 15.5402 19.1582 15.5418C18.3508 15.785 17.7481 16.4728 17.5854 17.3366C17.4351 18.1338 17.6969 18.9075 18.2686 19.3559C18.8387 19.803 19.6573 20.1262 20.457 20.4089C21.1075 20.6388 21.1265 21.1376 21.08 21.4145C21.0029 21.8735 20.6165 22.3696 19.9511 22.3741C19.2657 22.3794 19.0701 22.3476 18.5512 22.0082C18.1891 21.7715 17.7042 21.873 17.4676 22.2348C17.231 22.5966 17.3324 23.0817 17.6941 23.3184C18.2561 23.6859 18.6754 23.843 19.1735 23.9045V24.1701C19.1735 24.6024 19.524 24.9529 19.9563 24.9529C20.3887 24.9529 20.7391 24.6024 20.7391 24.1701V23.8251C21.7951 23.5087 22.4707 22.5851 22.6239 21.674C22.8288 20.4546 22.1678 19.353 20.9788 18.9328Z" fill="#222222"/>
<path d="M39.7532 30.5389L36.2809 27.276C36.0534 27.0621 35.7205 27.0041 35.4341 27.1279C35.1476 27.2519 34.962 27.5342 34.962 27.8463V28.277H31.2153C32.9841 25.889 33.9425 23.007 33.9425 20.0011C33.9425 18.094 33.5624 16.2443 32.8127 14.5035C32.6418 14.1064 32.1815 13.9231 31.7842 14.0942C31.3872 14.2651 31.2038 14.7256 31.3748 15.1227C32.0398 16.6668 32.377 18.3081 32.377 20.0011C32.377 23.1827 31.1669 26.2082 28.9695 28.5205C28.754 28.7474 28.6942 29.0809 28.8177 29.3685C28.9411 29.656 29.2241 29.8425 29.537 29.8425H35.7448C36.0062 29.8425 36.2378 29.7143 36.38 29.5174L38.0741 31.1093L36.38 32.7013C36.2378 32.5042 36.0062 32.3761 35.7448 32.3761C35.7448 32.3761 20.0307 32.3781 20 32.3781C13.1753 32.3781 7.62297 26.8259 7.62297 20.0011C7.62297 16.8186 8.83375 13.7923 11.0322 11.4798C11.2479 11.2529 11.3077 10.9194 11.1842 10.6317C11.0609 10.3441 10.7779 10.1577 10.4649 10.1577H4.25516C3.99375 10.1577 3.76219 10.2859 3.62 10.4828L1.92586 8.89088L3.62 7.29892C3.76219 7.49596 3.99375 7.62408 4.25516 7.62408H20C22.6389 7.62408 25.1589 8.44674 27.2879 10.0031C27.6368 10.2583 28.1266 10.1821 28.3818 9.83322C28.6369 9.48424 28.5609 8.99447 28.2118 8.73931C25.8129 6.98564 22.9734 6.05861 20 6.05861H5.03789V5.62799C5.03789 5.3158 4.85234 5.03346 4.56586 4.90955C4.27938 4.78564 3.94656 4.84377 3.71906 5.0576L0.246797 8.32056C0.0892969 8.46846 0 8.67494 0 8.89096C0 9.10697 0.0892969 9.31346 0.246797 9.46135L3.71914 12.7243C3.94672 12.9382 4.27969 12.9963 4.56594 12.8724C4.85242 12.7484 5.03797 12.4661 5.03797 12.1539V11.7233H8.78617C7.01656 14.1116 6.0575 16.9945 6.0575 20.0012C6.0575 27.6892 12.3121 33.9438 20.0001 33.9438C20.0397 33.9438 34.9622 33.9417 34.9622 33.9417V34.3724C34.9622 34.6845 35.1477 34.9669 35.4342 35.0908C35.5343 35.1341 35.6399 35.1552 35.7448 35.1552C35.9403 35.1552 36.133 35.082 36.281 34.9428L39.7534 31.6798C39.9109 31.5319 40.0002 31.3254 40.0002 31.1094C40.0002 30.8934 39.9107 30.6868 39.7532 30.5389Z" fill="#222222"/>
<path d="M30.7523 12.453C31.1076 12.2066 31.1959 11.7189 30.9495 11.3637C30.7032 11.0084 30.2155 10.9201 29.8602 11.1665C29.505 11.4128 29.4166 11.9005 29.6631 12.2558C29.9094 12.611 30.3971 12.6993 30.7523 12.453Z" fill="#222222"/>
</g>
<defs>
<clipPath id="clip0_90_7530">
<rect width="40" height="40" fill="white"/>
</clipPath>
</defs>
</svg>
