<svg width="25" height="19" viewBox="0 0 25 19" fill="none" xmlns="http://www.w3.org/2000/svg">
<path d="M12.4998 3.59473C9.24317 3.59473 6.59375 6.2442 6.59375 9.50079C6.59375 12.7574 9.24317 15.4069 12.4998 15.4069C15.7565 15.4069 18.4059 12.7574 18.4059 9.50079C18.4059 6.2442 15.7565 3.59473 12.4998 3.59473ZM12.4998 14.4675C9.76114 14.4675 7.53308 12.2395 7.53308 9.50079C7.53308 6.76212 9.76114 4.53405 12.4998 4.53405C15.2385 4.53405 17.4665 6.76212 17.4665 9.50079C17.4665 12.2395 15.2385 14.4675 12.4998 14.4675Z" fill="white"/>
<path d="M13.0877 8.86008C12.7027 8.724 12.2773 8.55994 12.0413 8.37473C11.9773 8.32458 11.9505 8.20458 11.9747 8.07628C11.9871 8.0107 12.0446 7.79161 12.2663 7.72481C12.6853 7.59862 13.2085 7.84167 13.3751 7.9462C13.5933 8.085 13.8828 8.02116 14.0224 7.80333C14.1624 7.58498 14.0989 7.29445 13.8805 7.15448C13.8188 7.11487 13.4422 6.88369 12.9439 6.78914V6.65133C12.9439 6.39192 12.7336 6.18164 12.4742 6.18164C12.2148 6.18164 12.0045 6.39192 12.0045 6.65133V6.82294C12.0014 6.82383 11.9984 6.82453 11.9953 6.82547C11.5108 6.97139 11.1493 7.38408 11.0516 7.90238C10.9615 8.38069 11.1186 8.84489 11.4615 9.11391C11.8036 9.38222 12.2948 9.57614 12.7746 9.74573C13.1649 9.88369 13.1763 10.1829 13.1484 10.3491C13.1021 10.6245 12.8703 10.9222 12.471 10.9248C12.0598 10.928 11.9424 10.9089 11.6311 10.7053C11.4139 10.5633 11.1229 10.6242 10.981 10.8413C10.839 11.0583 10.8998 11.3494 11.1169 11.4914C11.454 11.712 11.7057 11.8062 12.0045 11.8431V12.0024C12.0045 12.2618 12.2148 12.4721 12.4742 12.4721C12.7336 12.4721 12.9439 12.2618 12.9439 12.0024V11.7954C13.5775 11.6056 13.9828 11.0514 14.0747 10.5048C14.1977 9.77316 13.8011 9.11222 13.0877 8.86008Z" fill="white"/>
<path d="M24.3519 15.8235L22.2685 13.8657C22.132 13.7374 21.9323 13.7025 21.7604 13.7768C21.5885 13.8512 21.4772 14.0206 21.4772 14.2079V14.4663H19.2292C20.2904 13.0335 20.8655 11.3043 20.8655 9.50076C20.8655 8.3565 20.6375 7.24669 20.1876 6.20222C20.0851 5.96395 19.8089 5.85398 19.5705 5.95659C19.3323 6.05915 19.2223 6.33548 19.3249 6.5737C19.7239 7.50019 19.9262 8.48498 19.9262 9.50076C19.9262 11.4097 19.2001 13.225 17.8817 14.6124C17.7524 14.7485 17.7165 14.9486 17.7906 15.1212C17.8647 15.2937 18.0344 15.4056 18.2222 15.4056H21.9469C22.1038 15.4056 22.2427 15.3287 22.328 15.2105L23.3445 16.1657L22.328 17.1209C22.2427 17.0026 22.1038 16.9258 21.9469 16.9258C21.9469 16.9258 12.5184 16.927 12.5 16.927C8.40519 16.927 5.07378 13.5956 5.07378 9.50076C5.07378 7.59126 5.80025 5.77547 7.11931 4.38797C7.24873 4.25184 7.28459 4.05173 7.21053 3.87914C7.13652 3.70655 6.96673 3.5947 6.77895 3.5947H3.05309C2.89625 3.5947 2.75731 3.67162 2.672 3.7898L1.65552 2.83462L2.672 1.87945C2.75731 1.99767 2.89625 2.07455 3.05309 2.07455H12.5C14.0833 2.07455 15.5953 2.56814 16.8727 3.50198C17.0821 3.65508 17.3759 3.60937 17.5291 3.40003C17.6821 3.19064 17.6365 2.89678 17.4271 2.74369C15.9877 1.69148 14.284 1.13526 12.5 1.13526H3.52273V0.87689C3.52273 0.689577 3.41141 0.520171 3.23952 0.445827C3.06763 0.371483 2.86794 0.406358 2.73144 0.534655L0.648078 2.49244C0.553578 2.58117 0.5 2.70506 0.5 2.83467C0.5 2.96428 0.553578 3.08817 0.648078 3.17691L2.73148 5.13469C2.86803 5.26303 3.06781 5.29786 3.23956 5.22351C3.41145 5.14912 3.52278 4.97976 3.52278 4.79245V4.53408H5.7717C4.70994 5.96705 4.1345 7.69678 4.1345 9.50081C4.1345 14.1136 7.88727 17.8664 12.5 17.8664C12.5238 17.8664 21.4773 17.8651 21.4773 17.8651V18.1235C21.4773 18.3108 21.5886 18.4802 21.7605 18.5546C21.8206 18.5805 21.884 18.5932 21.9469 18.5932C22.0642 18.5932 22.1798 18.5493 22.2686 18.4657L24.352 16.508C24.4465 16.4192 24.5001 16.2953 24.5001 16.1657C24.5001 16.0361 24.4464 15.9122 24.3519 15.8235Z" fill="white"/>
<path d="M18.9502 4.97187C19.1634 4.82407 19.2164 4.53143 19.0685 4.31829C18.9208 4.10515 18.6281 4.05214 18.415 4.19998C18.2018 4.34778 18.1488 4.64042 18.2967 4.85356C18.4445 5.0667 18.7371 5.11967 18.9502 4.97187Z" fill="white"/>
</svg>
