<svg width="40" height="41" viewBox="0 0 40 41" fill="none" xmlns="http://www.w3.org/2000/svg">
<path d="M20.1086 21.5883C24.8199 21.5883 28.6528 17.7554 28.6528 13.0441C28.6528 8.33287 24.8199 4.5 20.1086 4.5C15.3973 4.5 11.5645 8.33287 11.5645 13.0441C11.5645 17.7554 15.3974 21.5883 20.1086 21.5883ZM20.1086 5.43931C24.3019 5.43931 27.7134 8.8508 27.7134 13.0441C27.7134 17.2374 24.3019 20.649 20.1086 20.649C15.9153 20.649 12.5038 17.2375 12.5038 13.0441C12.5038 8.85087 15.9153 5.43931 20.1086 5.43931Z" fill="#222222"/>
<path d="M20.1088 19.2231C23.516 19.2231 26.288 16.4511 26.288 13.0439C26.288 9.63674 23.516 6.86475 20.1088 6.86475C18.5707 6.86475 17.0967 7.43343 15.9584 8.46606C15.7662 8.64037 15.7518 8.93737 15.9261 9.12949C16.1004 9.32162 16.3974 9.33618 16.5895 9.1618C17.5547 8.28624 18.8046 7.80406 20.1088 7.80406C22.9981 7.80406 25.3487 10.1547 25.3487 13.0439C25.3487 15.9332 22.9981 18.2838 20.1088 18.2838C17.2196 18.2838 14.869 15.9332 14.869 13.0439C14.869 12.1714 15.0876 11.3079 15.5011 10.5466C15.6249 10.3187 15.5406 10.0336 15.3126 9.90974C15.0847 9.78587 14.7996 9.87037 14.6757 10.0982C14.1877 10.9967 13.9297 12.0153 13.9297 13.0439C13.9297 16.4511 16.7016 19.2231 20.1088 19.2231Z" fill="#222222"/>
<path d="M19.9298 15.2569C19.1922 15.212 18.9895 14.7681 18.952 14.6638C18.8982 14.463 18.7156 14.315 18.4979 14.315C18.238 14.315 18.0273 14.5257 18.0273 14.7856C18.0273 14.8234 18.0323 14.8599 18.0407 14.8951L18.0405 14.8951C18.0409 14.8968 18.0418 14.9001 18.043 14.9041C18.0487 14.9263 18.0555 14.9481 18.0643 14.9689C18.1512 15.2085 18.4993 15.9519 19.525 16.1506V16.7755C19.525 17.0349 19.7353 17.2452 19.9947 17.2452C20.2542 17.2452 20.4644 17.0349 20.4644 16.7755V16.1647C20.914 16.0864 21.216 15.8899 21.4048 15.7123C21.7561 15.3816 21.9658 14.8819 21.9658 14.3754C21.9658 13.8995 21.7792 12.772 20.0503 12.5812C19.7078 12.5434 19.4635 12.4344 19.324 12.2573C19.201 12.1008 19.1877 11.928 19.1877 11.861C19.1877 11.7783 19.2103 11.0539 19.9947 11.0539C20.5093 11.0539 20.7172 11.3812 20.7562 11.4524C20.8258 11.6253 20.9948 11.7474 21.1926 11.7474C21.4525 11.7474 21.6631 11.5367 21.6631 11.2768C21.6631 11.1996 21.6441 11.1268 21.6111 11.0625L21.6114 11.0624C21.479 10.7746 21.1052 10.3245 20.4643 10.1695V9.53902C20.4643 9.27965 20.2541 9.06934 19.9947 9.06934C19.7353 9.06934 19.525 9.27965 19.525 9.53902V10.1675C18.598 10.3876 18.2482 11.2525 18.2482 11.8609C18.2482 12.5373 18.6932 13.3764 19.9472 13.5148C21.0264 13.6339 21.0264 14.192 21.0264 14.3753C21.0264 14.5701 20.9567 14.8439 20.761 15.0281C20.5759 15.2023 20.2964 15.2793 19.9298 15.2569Z" fill="#222222"/>
<path d="M12.139 26.2494C12.0502 26.1551 11.9264 26.1016 11.7968 26.1016C11.6673 26.1016 11.5435 26.1551 11.4547 26.2494L8.26428 29.6412C8.1359 29.7777 8.10096 29.9774 8.17528 30.1493C8.24959 30.3213 8.41903 30.4326 8.6064 30.4326H9.52852V32.1382C9.52852 32.3976 9.73884 32.6079 9.99821 32.6079C10.2576 32.6079 10.4679 32.3976 10.4679 32.1382V29.9629C10.4679 29.7036 10.2576 29.4932 9.99821 29.4932H9.69296L11.7968 27.2566L13.9006 29.4932H13.5953C13.336 29.4932 13.1256 29.7036 13.1256 29.9629V35.5604H10.4678V34.0169C10.4678 33.7575 10.2575 33.5472 9.99809 33.5472C9.73871 33.5472 9.5284 33.7575 9.5284 34.0169V36.0301C9.5284 36.2895 9.73871 36.4998 9.99809 36.4998H13.5953C13.8546 36.4998 14.065 36.2895 14.065 36.0301V30.4326H14.9871C15.1744 30.4326 15.3438 30.3213 15.4182 30.1493C15.4925 29.9774 15.4576 29.7776 15.3292 29.6412L12.139 26.2494Z" fill="#222222"/>
<path d="M20.4514 23.0185C20.3627 22.9241 20.2389 22.8706 20.1093 22.8706C19.9797 22.8706 19.856 22.9241 19.7672 23.0185L16.5768 26.4103C16.4484 26.5468 16.4134 26.7465 16.4878 26.9184C16.5621 27.0904 16.7316 27.2017 16.9189 27.2017H17.8411V36.0304C17.8411 36.2898 18.0514 36.5001 18.3107 36.5001H21.9079C22.1674 36.5001 22.3776 36.2898 22.3776 36.0304V27.2017H23.2997C23.4871 27.2017 23.6565 27.0904 23.7309 26.9184C23.8052 26.7465 23.7702 26.5467 23.6418 26.4103L20.4514 23.0185ZM21.9079 26.2624C21.6485 26.2624 21.4382 26.4727 21.4382 26.7321V35.5608H18.7804V26.732C18.7804 26.4727 18.57 26.2623 18.3107 26.2623H18.0054L20.1092 24.0257L22.213 26.2623L21.9079 26.2624Z" fill="#222222"/>
<path d="M28.762 20.0287C28.6733 19.9344 28.5495 19.8809 28.4199 19.8809C28.2904 19.8809 28.1665 19.9344 28.0778 20.0287L24.8874 23.4205C24.759 23.5569 24.724 23.7567 24.7983 23.9286C24.8727 24.1006 25.0421 24.2119 25.2294 24.2119H26.1516V27.0781C26.1516 27.3375 26.3618 27.5478 26.6212 27.5478C26.8807 27.5478 27.0909 27.3375 27.0909 27.0781V23.7423C27.0909 23.4829 26.8807 23.2726 26.6212 23.2726H26.3161L28.4199 21.036L30.5236 23.2726H30.2184C29.959 23.2726 29.7487 23.4829 29.7487 23.7423V35.5606H27.0909V28.9568C27.0909 28.6974 26.8806 28.4871 26.6212 28.4871C26.3617 28.4871 26.1515 28.6973 26.1515 28.9568V36.0303C26.1515 36.2897 26.3617 36.5 26.6212 36.5H30.2184C30.4779 36.5 30.6881 36.2897 30.6881 36.0303V24.2119H31.6102C31.7976 24.2119 31.967 24.1006 32.0414 23.9286C32.1157 23.7567 32.0807 23.5569 31.9523 23.4205L28.762 20.0287Z" fill="#222222"/>
<path d="M9.79952 13.2124C9.79952 12.953 9.58921 12.7427 9.32984 12.7427H6.57516C6.31578 12.7427 6.10547 12.953 6.10547 13.2124C6.10547 13.4717 6.31572 13.682 6.57516 13.682H9.32984C9.58927 13.682 9.79952 13.4717 9.79952 13.2124Z" fill="#222222"/>
<path d="M9.9384 16.8982L8.95865 17.282C8.71709 17.3766 8.59803 17.6491 8.69265 17.8906C8.76521 18.0759 8.94246 18.1891 9.13009 18.1891C9.18709 18.1891 9.24502 18.1786 9.30127 18.1566L10.281 17.7728C10.5226 17.6781 10.6416 17.4056 10.547 17.1641C10.4523 16.9227 10.1798 16.8036 9.9384 16.8982Z" fill="#222222"/>
<path d="M8.95864 9.1424L9.93839 9.52621C9.9947 9.54827 10.0526 9.55871 10.1096 9.55871C10.2972 9.55871 10.4745 9.44546 10.547 9.26027C10.6416 9.01877 10.5226 8.74627 10.281 8.65165L9.30127 8.26784C9.05964 8.17321 8.78727 8.29234 8.69264 8.53384C8.59802 8.77527 8.71714 9.04777 8.95864 9.1424Z" fill="#222222"/>
<path d="M33.4236 12.7427H30.6689C30.4095 12.7427 30.1992 12.953 30.1992 13.2124C30.1992 13.4717 30.4095 13.682 30.6689 13.682H33.4236C33.683 13.682 33.8933 13.4717 33.8933 13.2124C33.8932 12.953 33.683 12.7427 33.4236 12.7427Z" fill="#222222"/>
<path d="M29.7184 17.7728L30.698 18.1566C30.7544 18.1786 30.8123 18.1891 30.8693 18.1891C31.0569 18.1891 31.2342 18.0758 31.3067 17.8906C31.4014 17.6491 31.2823 17.3766 31.0408 17.282L30.0611 16.8982C29.8194 16.8036 29.5471 16.9227 29.4524 17.1642C29.3578 17.4056 29.4769 17.6781 29.7184 17.7728Z" fill="#222222"/>
<path d="M29.8899 9.55873C29.9469 9.55873 30.0049 9.54829 30.0611 9.52623L31.0408 9.14242C31.2823 9.04779 31.4014 8.77529 31.3067 8.53379C31.212 8.29223 30.9395 8.17329 30.698 8.26779L29.7184 8.65161C29.4769 8.74623 29.3578 9.01873 29.4524 9.26023C29.525 9.44554 29.7022 9.55873 29.8899 9.55873Z" fill="#222222"/>
</svg>
