<svg width="13" height="14" viewBox="0 0 13 14" fill="none" xmlns="http://www.w3.org/2000/svg">
<path d="M8.16752 6.17757H12.1675M12.1675 6.17757L10.834 7.47671M12.1675 6.17757L10.834 4.87842M6.1678 11.3741H8.16811C8.90448 11.3741 9.50113 10.7771 9.50113 10.0408V9.42537M9.50045 2.92968V2.31429C9.50045 1.57791 8.90573 0.980957 8.16935 0.980957H1.50045M1.23923 11.2221L4.31113 12.5316C5.19066 12.9065 6.16732 12.2611 6.16732 11.305V4.25124C6.16732 3.44978 5.68887 2.72572 4.9516 2.41143L1.76208 1.0518C1.32231 0.864334 0.833984 1.18701 0.833984 1.66507V10.6088C0.833984 10.876 0.993468 11.1173 1.23923 11.2221Z" stroke="white" stroke-width="1.5" stroke-linecap="round" stroke-linejoin="round"/>
</svg>
