<svg width="18" height="20" viewBox="0 0 18 20" fill="none" xmlns="http://www.w3.org/2000/svg">
<path d="M6.5 18.1562C6.5 18.1562 7 19.1562 9 19.1562C11 19.1562 11.5 18.1562 11.5 18.1562M14.5 9.15625V6.65625C14.5 3.61868 12.0376 1.15625 9 1.15625C5.96243 1.15625 3.5 3.61868 3.5 6.65625V9.15625L2.32843 10.3278C1.79799 10.8583 1.5 11.5777 1.5 12.3278C1.5 13.8899 2.76633 15.1562 4.32843 15.1562H13.6716C15.2337 15.1562 16.5 13.8899 16.5 12.3278C16.5 11.5777 16.202 10.8583 15.6716 10.3278L14.5 9.15625Z" stroke="#A6FF42" stroke-width="1.5" stroke-linecap="round" stroke-linejoin="round"/>
</svg>
