<svg width="20" height="16" viewBox="0 0 20 16" fill="none" xmlns="http://www.w3.org/2000/svg">
<path d="M5 8.90625C4.58579 8.90625 4.25 9.24204 4.25 9.65625C4.25 10.0705 4.58579 10.4062 5 10.4062V8.90625ZM13 10.4062C13.4142 10.4062 13.75 10.0705 13.75 9.65625C13.75 9.24204 13.4142 8.90625 13 8.90625V10.4062ZM5 11.4062C4.58579 11.4062 4.25 11.742 4.25 12.1562C4.25 12.5705 4.58579 12.9062 5 12.9062V11.4062ZM8 12.9062C8.41421 12.9062 8.75 12.5705 8.75 12.1562C8.75 11.742 8.41421 11.4062 8 11.4062V12.9062ZM5 3.00625C4.58579 3.00625 4.25 3.34204 4.25 3.75625C4.25 4.17046 4.58579 4.50625 5 4.50625V3.00625ZM5.02 4.50625C5.43421 4.50625 5.77 4.17046 5.77 3.75625C5.77 3.34204 5.43421 3.00625 5.02 3.00625V4.50625ZM7.4 3.00623C6.98579 3.00623 6.65 3.34201 6.65 3.75623C6.65 4.17044 6.98579 4.50623 7.4 4.50623V3.00623ZM7.42 4.50623C7.83421 4.50623 8.17 4.17044 8.17 3.75623C8.17 3.34201 7.83421 3.00623 7.42 3.00623V4.50623ZM4.5 1.90625H15.5V0.40625H4.5V1.90625ZM17.75 4.15625V12.1562H19.25V4.15625H17.75ZM15.5 14.4062H4.5V15.9062H15.5V14.4062ZM2.25 12.1562V4.15625H0.75V12.1562H2.25ZM4.5 14.4062C3.25736 14.4062 2.25 13.3989 2.25 12.1562H0.75C0.75 14.2273 2.42893 15.9062 4.5 15.9062V14.4062ZM17.75 12.1562C17.75 13.3989 16.7426 14.4062 15.5 14.4062V15.9062C17.5711 15.9062 19.25 14.2273 19.25 12.1562H17.75ZM15.5 1.90625C16.7426 1.90625 17.75 2.91361 17.75 4.15625H19.25C19.25 2.08518 17.5711 0.40625 15.5 0.40625V1.90625ZM4.5 0.40625C2.42893 0.40625 0.75 2.08518 0.75 4.15625H2.25C2.25 2.91361 3.25736 1.90625 4.5 1.90625V0.40625ZM5 10.4062H13V8.90625H5V10.4062ZM5 12.9062H8V11.4062H5V12.9062ZM5 4.50625H5.02V3.00625H5V4.50625ZM7.4 4.50623H7.42V3.00623H7.4V4.50623ZM1.5 6.90625H18.5V5.40625H1.5V6.90625Z" fill="#A6FF42"/>
</svg>
