<svg width="18" height="19" viewBox="0 0 18 19" fill="none" xmlns="http://www.w3.org/2000/svg">
<path d="M9 1.65633L8.99974 2.40633H9V1.65633ZM0.75 15.6424C0.75 16.0566 1.08579 16.3924 1.5 16.3924C1.91421 16.3924 2.25 16.0566 2.25 15.6424H0.75ZM4.5 1.65633V2.40633V1.65633ZM3.54545 16.9062C3.19193 16.9062 2.85893 16.7713 2.61821 16.5405L1.57999 17.6231C2.10645 18.128 2.81401 18.4062 3.54545 18.4062V16.9062ZM2.61821 16.5405C2.37854 16.3106 2.25 16.0057 2.25 15.6947H0.75C0.75 16.4242 1.05248 17.1172 1.57999 17.6231L2.61821 16.5405ZM2.25 15.6947C2.25 15.3838 2.37854 15.0788 2.61821 14.849L1.57999 13.7663C1.05248 14.2722 0.75 14.9653 0.75 15.6947H2.25ZM2.61821 14.849C2.85893 14.6181 3.19193 14.4832 3.54545 14.4832V12.9832C2.81401 12.9832 2.10645 13.2615 1.57999 13.7663L2.61821 14.849ZM9.00026 0.906331C8.46816 0.906149 7.5768 0.90633 7.57246 0.906331L7.57277 2.40633C7.5772 2.40633 8.46813 2.40615 8.99974 2.40633L9.00026 0.906331ZM7.57262 0.906331H4.5V2.40633H7.57262V0.906331ZM0.75 4.65633V15.6424H2.25V4.65633H0.75ZM17.25 10.7332C17.25 10.7292 17.25 10.7253 17.25 10.7213C17.25 10.7174 17.25 10.7134 17.25 10.7095C17.25 10.7055 17.25 10.7015 17.25 10.6976C17.25 10.6936 17.25 10.6897 17.25 10.6857C17.25 10.6818 17.25 10.6778 17.25 10.6738C17.25 10.6699 17.25 10.6659 17.25 10.662C17.25 10.658 17.25 10.6541 17.25 10.6501C17.25 10.6462 17.25 10.6422 17.25 10.6382C17.25 10.6343 17.25 10.6303 17.25 10.6264C17.25 10.6224 17.25 10.6185 17.25 10.6145C17.25 10.6105 17.25 10.6066 17.25 10.6026C17.25 10.5987 17.25 10.5947 17.25 10.5908C17.25 10.5868 17.25 10.5829 17.25 10.5789C17.25 10.5749 17.25 10.571 17.25 10.567C17.25 10.5631 17.25 10.5591 17.25 10.5552C17.25 10.5512 17.25 10.5472 17.25 10.5433C17.25 10.5393 17.25 10.5354 17.25 10.5314C17.25 10.5275 17.25 10.5235 17.25 10.5196C17.25 10.5156 17.25 10.5116 17.25 10.5077C17.25 10.5037 17.25 10.4998 17.25 10.4958C17.25 10.4919 17.25 10.4879 17.25 10.4839C17.25 10.48 17.25 10.476 17.25 10.4721C17.25 10.4681 17.25 10.4642 17.25 10.4602C17.25 10.4563 17.25 10.4523 17.25 10.4483C17.25 10.4444 17.25 10.4404 17.25 10.4365C17.25 10.4325 17.25 10.4286 17.25 10.4246C17.25 10.4206 17.25 10.4167 17.25 10.4127C17.25 10.4088 17.25 10.4048 17.25 10.4009C17.25 10.3969 17.25 10.393 17.25 10.389C17.25 10.385 17.25 10.3811 17.25 10.3771C17.25 10.3732 17.25 10.3692 17.25 10.3653C17.25 10.3613 17.25 10.3573 17.25 10.3534C17.25 10.3494 17.25 10.3455 17.25 10.3415C17.25 10.3376 17.25 10.3336 17.25 10.3296C17.25 10.3257 17.25 10.3217 17.25 10.3178C17.25 10.3138 17.25 10.3099 17.25 10.3059C17.25 10.302 17.25 10.298 17.25 10.294C17.25 10.2901 17.25 10.2861 17.25 10.2822C17.25 10.2782 17.25 10.2743 17.25 10.2703C17.25 10.2663 17.25 10.2624 17.25 10.2584C17.25 10.2545 17.25 10.2505 17.25 10.2466C17.25 10.2426 17.25 10.2387 17.25 10.2347C17.25 10.2307 17.25 10.2268 17.25 10.2228C17.25 10.2189 17.25 10.2149 17.25 10.211C17.25 10.207 17.25 10.203 17.25 10.1991C17.25 10.1951 17.25 10.1912 17.25 10.1872C17.25 10.1833 17.25 10.1793 17.25 10.1754C17.25 10.1714 17.25 10.1674 17.25 10.1635C17.25 10.1595 17.25 10.1556 17.25 10.1516C17.25 10.1477 17.25 10.1437 17.25 10.1397C17.25 10.1358 17.25 10.1318 17.25 10.1279C17.25 10.1239 17.25 10.12 17.25 10.116C17.25 10.1121 17.25 10.1081 17.25 10.1041C17.25 10.1002 17.25 10.0962 17.25 10.0923C17.25 10.0883 17.25 10.0844 17.25 10.0804C17.25 10.0764 17.25 10.0725 17.25 10.0685C17.25 10.0646 17.25 10.0606 17.25 10.0567C17.25 10.0527 17.25 10.0488 17.25 10.0448C17.25 10.0408 17.25 10.0369 17.25 10.0329C17.25 10.029 17.25 10.025 17.25 10.0211C17.25 10.0171 17.25 10.0131 17.25 10.0092C17.25 10.0052 17.25 10.0013 17.25 9.99732C17.25 9.99337 17.25 9.98941 17.25 9.98545C17.25 9.9815 17.25 9.97754 17.25 9.97358C17.25 9.96963 17.25 9.96567 17.25 9.96171C17.25 9.95776 17.25 9.9538 17.25 9.94985C17.25 9.94589 17.25 9.94193 17.25 9.93798C17.25 9.93402 17.25 9.93006 17.25 9.92611C17.25 9.92215 17.25 9.9182 17.25 9.91424C17.25 9.91028 17.25 9.90633 17.25 9.90237C17.25 9.89841 17.25 9.89446 17.25 9.8905C17.25 9.88655 17.25 9.88259 17.25 9.87863C17.25 9.87468 17.25 9.87072 17.25 9.86676C17.25 9.86281 17.25 9.85885 17.25 9.85489C17.25 9.85094 17.25 9.84698 17.25 9.84303C17.25 9.83907 17.25 9.83511 17.25 9.83116C17.25 9.8272 17.25 9.82324 17.25 9.81929C17.25 9.81533 17.25 9.81138 17.25 9.80742C17.25 9.80346 17.25 9.79951 17.25 9.79555C17.25 9.79159 17.25 9.78764 17.25 9.78368C17.25 9.77973 17.25 9.77577 17.25 9.77181C17.25 9.76786 17.25 9.7639 17.25 9.75994C17.25 9.75599 17.25 9.75203 17.25 9.74807C17.25 9.74412 17.25 9.74016 17.25 9.73621C17.25 9.73225 17.25 9.72829 17.25 9.72434C17.25 9.72038 17.25 9.71642 17.25 9.71247C17.25 9.70851 17.25 9.70456 17.25 9.7006C17.25 9.69664 17.25 9.69269 17.25 9.68873C17.25 9.68477 17.25 9.68082 17.25 9.67686C17.25 9.6729 17.25 9.66895 17.25 9.66499C17.25 9.66104 17.25 9.65708 17.25 9.65312C17.25 9.64917 17.25 9.64521 17.25 9.64125C17.25 9.6373 17.25 9.63334 17.25 9.62939C17.25 9.62543 17.25 9.62147 17.25 9.61752C17.25 9.61356 17.25 9.6096 17.25 9.60565C17.25 9.60169 17.25 9.59774 17.25 9.59378C17.25 9.58982 17.25 9.58587 17.25 9.58191C17.25 9.57795 17.25 9.574 17.25 9.57004C17.25 9.56609 17.25 9.56213 17.25 9.55817C17.25 9.55422 17.25 9.55026 17.25 9.5463C17.25 9.54235 17.25 9.53839 17.25 9.53444C17.25 9.53048 17.25 9.52652 17.25 9.52257C17.25 9.51861 17.25 9.51465 17.25 9.5107C17.25 9.50674 17.25 9.50278 17.25 9.49883C17.25 9.49487 17.25 9.49092 17.25 9.48696C17.25 9.483 17.25 9.47905 17.25 9.47509C17.25 9.47113 17.25 9.46718 17.25 9.46322C17.25 9.45927 17.25 9.45531 17.25 9.45135C17.25 9.4474 17.25 9.44344 17.25 9.43948C17.25 9.43553 17.25 9.43157 17.25 9.42762C17.25 9.42366 17.25 9.4197 17.25 9.41575C17.25 9.41179 17.25 9.40783 17.25 9.40388C17.25 9.39992 17.25 9.39597 17.25 9.39201C17.25 9.38805 17.25 9.3841 17.25 9.38014C17.25 9.37618 17.25 9.37223 17.25 9.36827C17.25 9.36431 17.25 9.36036 17.25 9.3564C17.25 9.35245 17.25 9.34849 17.25 9.34453C17.25 9.34058 17.25 9.33662 17.25 9.33266C17.25 9.32871 17.25 9.32475 17.25 9.3208C17.25 9.31684 17.25 9.31288 17.25 9.30893C17.25 9.30497 17.25 9.30101 17.25 9.29706C17.25 9.2931 17.25 9.28914 17.25 9.28519C17.25 9.28123 17.25 9.27728 17.25 9.27332C17.25 9.26936 17.25 9.26541 17.25 9.26145C17.25 9.25749 17.25 9.25354 17.25 9.24958C17.25 9.24563 17.25 9.24167 17.25 9.23771C17.25 9.23376 17.25 9.2298 17.25 9.22584C17.25 9.22189 17.25 9.21793 17.25 9.21398C17.25 9.21002 17.25 9.20606 17.25 9.20211C17.25 9.19815 17.25 9.19419 17.25 9.19024C17.25 9.18628 17.25 9.18233 17.25 9.17837C17.25 9.17441 17.25 9.17046 17.25 9.1665C17.25 9.16254 17.25 9.15859 17.25 9.15463C17.25 9.15067 17.25 9.14672 17.25 9.14276C17.25 9.13881 17.25 9.13485 17.25 9.13089C17.25 9.12694 17.25 9.12298 17.25 9.11902C17.25 9.11507 17.25 9.11111 17.25 9.10716C17.25 9.1032 17.25 9.09924 17.25 9.09529C17.25 9.09133 17.25 9.08737 17.25 9.08342C17.25 9.07946 17.25 9.07551 17.25 9.07155C17.25 9.06759 17.25 9.06364 17.25 9.05968C17.25 9.05572 17.25 9.05177 17.25 9.04781C17.25 9.04386 17.25 9.0399 17.25 9.03594C17.25 9.03199 17.25 9.02803 17.25 9.02407C17.25 9.02012 17.25 9.01616 17.25 9.0122C17.25 9.00825 17.25 9.00429 17.25 9.00034C17.25 8.99638 17.25 8.99242 17.25 8.98847C17.25 8.98451 17.25 8.98055 17.25 8.9766C17.25 8.97264 17.25 8.96869 17.25 8.96473C17.25 8.96077 17.25 8.95682 17.25 8.95286C17.25 8.9489 17.25 8.94495 17.25 8.94099C17.25 8.93704 17.25 8.93308 17.25 8.92912C17.25 8.92517 17.25 8.92121 17.25 8.91725C17.25 8.9133 17.25 8.90934 17.25 8.90539C17.25 8.90143 17.25 8.89747 17.25 8.89352C17.25 8.88956 17.25 8.8856 17.25 8.88165C17.25 8.87769 17.25 8.87373 17.25 8.86978C17.25 8.86582 17.25 8.86187 17.25 8.85791C17.25 8.85395 17.25 8.85 17.25 8.84604C17.25 8.84208 17.25 8.83813 17.25 8.83417C17.25 8.83022 17.25 8.82626 17.25 8.8223C17.25 8.81835 17.25 8.81439 17.25 8.81043C17.25 8.80648 17.25 8.80252 17.25 8.79856C17.25 8.79461 17.25 8.79065 17.25 8.7867C17.25 8.78274 17.25 8.77878 17.25 8.77483C17.25 8.77087 17.25 8.76691 17.25 8.76296C17.25 8.759 17.25 8.75505 17.25 8.75109C17.25 8.74713 17.25 8.74318 17.25 8.73922C17.25 8.73526 17.25 8.73131 17.25 8.72735C17.25 8.7234 17.25 8.71944 17.25 8.71548C17.25 8.71153 17.25 8.70757 17.25 8.70361C17.25 8.69966 17.25 8.6957 17.25 8.69175C17.25 8.68779 17.25 8.68383 17.25 8.67988C17.25 8.67592 17.25 8.67196 17.25 8.66801C17.25 8.66405 17.25 8.66009 17.25 8.65614C17.25 8.65218 17.25 8.64823 17.25 8.64427C17.25 8.64031 17.25 8.63636 17.25 8.6324C17.25 8.62844 17.25 8.62449 17.25 8.62053C17.25 8.61658 17.25 8.61262 17.25 8.60866C17.25 8.60471 17.25 8.60075 17.25 8.59679C17.25 8.59284 17.25 8.58888 17.25 8.58493C17.25 8.58097 17.25 8.57701 17.25 8.57306C17.25 8.5691 17.25 8.56514 17.25 8.56119C17.25 8.55723 17.25 8.55328 17.25 8.54932C17.25 8.54536 17.25 8.54141 17.25 8.53745C17.25 8.53349 17.25 8.52954 17.25 8.52558C17.25 8.52162 17.25 8.51767 17.25 8.51371C17.25 8.50976 17.25 8.5058 17.25 8.50184C17.25 8.49789 17.25 8.49393 17.25 8.48997C17.25 8.48602 17.25 8.48206 17.25 8.47811C17.25 8.47415 17.25 8.47019 17.25 8.46624C17.25 8.46228 17.25 8.45832 17.25 8.45437C17.25 8.45041 17.25 8.44646 17.25 8.4425C17.25 8.43854 17.25 8.43459 17.25 8.43063C17.25 8.42667 17.25 8.42272 17.25 8.41876C17.25 8.4148 17.25 8.41085 17.25 8.40689C17.25 8.40294 17.25 8.39898 17.25 8.39502C17.25 8.39107 17.25 8.38711 17.25 8.38315C17.25 8.3792 17.25 8.37524 17.25 8.37129C17.25 8.36733 17.25 8.36337 17.25 8.35942C17.25 8.35546 17.25 8.3515 17.25 8.34755C17.25 8.34359 17.25 8.33964 17.25 8.33568C17.25 8.33172 17.25 8.32777 17.25 8.32381C17.25 8.31985 17.25 8.3159 17.25 8.31194C17.25 8.30798 17.25 8.30403 17.25 8.30007C17.25 8.29612 17.25 8.29216 17.25 8.2882C17.25 8.28425 17.25 8.28029 17.25 8.27633C17.25 8.27238 17.25 8.26842 17.25 8.26447C17.25 8.26051 17.25 8.25655 17.25 8.2526C17.25 8.24864 17.25 8.24468 17.25 8.24073C17.25 8.23677 17.25 8.23282 17.25 8.22886C17.25 8.2249 17.25 8.22095 17.25 8.21699C17.25 8.21303 17.25 8.20908 17.25 8.20512C17.25 8.20116 17.25 8.19721 17.25 8.19325C17.25 8.1893 17.25 8.18534 17.25 8.18138C17.25 8.17743 17.25 8.17347 17.25 8.16951C17.25 8.16556 17.25 8.1616 17.25 8.15765C17.25 8.15369 17.25 8.14973 17.25 8.14578C17.25 8.14182 17.25 8.13786 17.25 8.13391C17.25 8.12995 17.25 8.126 17.25 8.12204C17.25 8.11808 17.25 8.11413 17.25 8.11017C17.25 8.10621 17.25 8.10226 17.25 8.0983C17.25 8.09435 17.25 8.09039 17.25 8.08643C17.25 8.08248 17.25 8.07852 17.25 8.07456C17.25 8.07061 17.25 8.06665 17.25 8.06269C17.25 8.05874 17.25 8.05478 17.25 8.05083C17.25 8.04687 17.25 8.04291 17.25 8.03896C17.25 8.035 17.25 8.03104 17.25 8.02709C17.25 8.02313 17.25 8.01918 17.25 8.01522C17.25 8.01126 17.25 8.00731 17.25 8.00335C17.25 7.99939 17.25 7.99544 17.25 7.99148C17.25 7.98752 17.25 7.98357 17.25 7.97961C17.25 7.97566 17.25 7.9717 17.25 7.96774C17.25 7.96379 17.25 7.95983 17.25 7.95587C17.25 7.95192 17.25 7.94796 17.25 7.94401C17.25 7.94005 17.25 7.93609 17.25 7.93214C17.25 7.92818 17.25 7.92422 17.25 7.92027C17.25 7.91631 17.25 7.91236 17.25 7.9084C17.25 7.90444 17.25 7.90049 17.25 7.89653C17.25 7.89257 17.25 7.88862 17.25 7.88466C17.25 7.88071 17.25 7.87675 17.25 7.87279C17.25 7.86884 17.25 7.86488 17.25 7.86092C17.25 7.85697 17.25 7.85301 17.25 7.84905C17.25 7.8451 17.25 7.84114 17.25 7.83719C17.25 7.83323 17.25 7.82927 17.25 7.82532C17.25 7.82136 17.25 7.8174 17.25 7.81345C17.25 7.80949 17.25 7.80554 17.25 7.80158C17.25 7.79762 17.25 7.79367 17.25 7.78971C17.25 7.78575 17.25 7.7818 17.25 7.77784C17.25 7.77389 17.25 7.76993 17.25 7.76597C17.25 7.76202 17.25 7.75806 17.25 7.7541C17.25 7.75015 17.25 7.74619 17.25 7.74224C17.25 7.73828 17.25 7.73432 17.25 7.73037C17.25 7.72641 17.25 7.72245 17.25 7.7185C17.25 7.71454 17.25 7.71058 17.25 7.70663C17.25 7.70267 17.25 7.69872 17.25 7.69476C17.25 7.6908 17.25 7.68685 17.25 7.68289C17.25 7.67893 17.25 7.67498 17.25 7.67102C17.25 7.66707 17.25 7.66311 17.25 7.65915C17.25 7.6552 17.25 7.65124 17.25 7.64728C17.25 7.64333 17.25 7.63937 17.25 7.63542C17.25 7.63146 17.25 7.6275 17.25 7.62355C17.25 7.61959 17.25 7.61563 17.25 7.61168C17.25 7.60772 17.25 7.60377 17.25 7.59981C17.25 7.59585 17.25 7.5919 17.25 7.58794C17.25 7.58398 17.25 7.58003 17.25 7.57607C17.25 7.57211 17.25 7.56816 17.25 7.5642C17.25 7.56025 17.25 7.55629 17.25 7.55233C17.25 7.54838 17.25 7.54442 17.25 7.54046C17.25 7.53651 17.25 7.53255 17.25 7.5286C17.25 7.52464 17.25 7.52068 17.25 7.51673C17.25 7.51277 17.25 7.50881 17.25 7.50486C17.25 7.5009 17.25 7.49694 17.25 7.49299C17.25 7.48903 17.25 7.48508 17.25 7.48112C17.25 7.47716 17.25 7.47321 17.25 7.46925C17.25 7.46529 17.25 7.46134 17.25 7.45738C17.25 7.45343 17.25 7.44947 17.25 7.44551C17.25 7.44156 17.25 7.4376 17.25 7.43364C17.25 7.42969 17.25 7.42573 17.25 7.42178C17.25 7.41782 17.25 7.41386 17.25 7.40991C17.25 7.40595 17.25 7.40199 17.25 7.39804C17.25 7.39408 17.25 7.39013 17.25 7.38617C17.25 7.38221 17.25 7.37826 17.25 7.3743C17.25 7.37034 17.25 7.36639 17.25 7.36243C17.25 7.35847 17.25 7.35452 17.25 7.35056C17.25 7.34661 17.25 7.34265 17.25 7.33869C17.25 7.33474 17.25 7.33078 17.25 7.32682C17.25 7.32287 17.25 7.31891 17.25 7.31496C17.25 7.311 17.25 7.30704 17.25 7.30309C17.25 7.29913 17.25 7.29517 17.25 7.29122C17.25 7.28726 17.25 7.28331 17.25 7.27935C17.25 7.27539 17.25 7.27144 17.25 7.26748C17.25 7.26352 17.25 7.25957 17.25 7.25561C17.25 7.25166 17.25 7.2477 17.25 7.24374C17.25 7.23979 17.25 7.23583 17.25 7.23187C17.25 7.22792 17.25 7.22396 17.25 7.22C17.25 7.21605 17.25 7.21209 17.25 7.20814C17.25 7.20418 17.25 7.20022 17.25 7.19627C17.25 7.19231 17.25 7.18835 17.25 7.1844C17.25 7.18044 17.25 7.17649 17.25 7.17253C17.25 7.16857 17.25 7.16462 17.25 7.16066C17.25 7.1567 17.25 7.15275 17.25 7.14879C17.25 7.14483 17.25 7.14088 17.25 7.13692C17.25 7.13297 17.25 7.12901 17.25 7.12505C17.25 7.1211 17.25 7.11714 17.25 7.11318C17.25 7.10923 17.25 7.10527 17.25 7.10132C17.25 7.09736 17.25 7.0934 17.25 7.08945C17.25 7.08549 17.25 7.08153 17.25 7.07758C17.25 7.07362 17.25 7.06967 17.25 7.06571C17.25 7.06175 17.25 7.0578 17.25 7.05384C17.25 7.04988 17.25 7.04593 17.25 7.04197C17.25 7.03802 17.25 7.03406 17.25 7.0301C17.25 7.02615 17.25 7.02219 17.25 7.01823C17.25 7.01428 17.25 7.01032 17.25 7.00636C17.25 7.00241 17.25 6.99845 17.25 6.9945C17.25 6.99054 17.25 6.98658 17.25 6.98263C17.25 6.97867 17.25 6.97471 17.25 6.97076C17.25 6.9668 17.25 6.96285 17.25 6.95889C17.25 6.95493 17.25 6.95098 17.25 6.94702C17.25 6.94306 17.25 6.93911 17.25 6.93515C17.25 6.9312 17.25 6.92724 17.25 6.92328C17.25 6.91933 17.25 6.91537 17.25 6.91141C17.25 6.90746 17.25 6.9035 17.25 6.89955C17.25 6.89559 17.25 6.89163 17.25 6.88768C17.25 6.88372 17.25 6.87976 17.25 6.87581C17.25 6.87185 17.25 6.86789 17.25 6.86394C17.25 6.85998 17.25 6.85603 17.25 6.85207C17.25 6.84811 17.25 6.84416 17.25 6.8402C17.25 6.83624 17.25 6.83229 17.25 6.82833C17.25 6.82438 17.25 6.82042 17.25 6.81646C17.25 6.81251 17.25 6.80855 17.25 6.80459C17.25 6.80064 17.25 6.79668 17.25 6.79273C17.25 6.78877 17.25 6.78481 17.25 6.78086C17.25 6.7769 17.25 6.77294 17.25 6.76899C17.25 6.76503 17.25 6.76108 17.25 6.75712C17.25 6.75316 17.25 6.74921 17.25 6.74525C17.25 6.74129 17.25 6.73734 17.25 6.73338C17.25 6.72942 17.25 6.72547 17.25 6.72151C17.25 6.71756 17.25 6.7136 17.25 6.70964C17.25 6.70569 17.25 6.70173 17.25 6.69777C17.25 6.69382 17.25 6.68986 17.25 6.68591C17.25 6.68195 17.25 6.67799 17.25 6.67404C17.25 6.67008 17.25 6.66612 17.25 6.66217C17.25 6.65821 17.25 6.65425 17.25 6.6503C17.25 6.64634 17.25 6.64239 17.25 6.63843C17.25 6.63447 17.25 6.63052 17.25 6.62656C17.25 6.6226 17.25 6.61865 17.25 6.61469C17.25 6.61074 17.25 6.60678 17.25 6.60282C17.25 6.59887 17.25 6.59491 17.25 6.59095C17.25 6.587 17.25 6.58304 17.25 6.57909C17.25 6.57513 17.25 6.57117 17.25 6.56722C17.25 6.56326 17.25 6.5593 17.25 6.55535C17.25 6.55139 17.25 6.54744 17.25 6.54348C17.25 6.53952 17.25 6.53557 17.25 6.53161C17.25 6.52765 17.25 6.5237 17.25 6.51974C17.25 6.51578 17.25 6.51183 17.25 6.50787C17.25 6.50392 17.25 6.49996 17.25 6.496C17.25 6.49205 17.25 6.48809 17.25 6.48413C17.25 6.48018 17.25 6.47622 17.25 6.47227C17.25 6.46831 17.25 6.46435 17.25 6.4604C17.25 6.45644 17.25 6.45248 17.25 6.44853C17.25 6.44457 17.25 6.44062 17.25 6.43666C17.25 6.4327 17.25 6.42875 17.25 6.42479C17.25 6.42083 17.25 6.41688 17.25 6.41292C17.25 6.40896 17.25 6.40501 17.25 6.40105C17.25 6.3971 17.25 6.39314 17.25 6.38918C17.25 6.38523 17.25 6.38127 17.25 6.37731C17.25 6.37336 17.25 6.3694 17.25 6.36545C17.25 6.36149 17.25 6.35753 17.25 6.35358C17.25 6.34962 17.25 6.34566 17.25 6.34171C17.25 6.33775 17.25 6.3338 17.25 6.32984C17.25 6.32588 17.25 6.32193 17.25 6.31797C17.25 6.31401 17.25 6.31006 17.25 6.3061C17.25 6.30215 17.25 6.29819 17.25 6.29423C17.25 6.29028 17.25 6.28632 17.25 6.28236C17.25 6.27841 17.25 6.27445 17.25 6.27049C17.25 6.26654 17.25 6.26258 17.25 6.25863C17.25 6.25467 17.25 6.25071 17.25 6.24676C17.25 6.2428 17.25 6.23884 17.25 6.23489C17.25 6.23093 17.25 6.22698 17.25 6.22302C17.25 6.21906 17.25 6.21511 17.25 6.21115C17.25 6.20719 17.25 6.20324 17.25 6.19928C17.25 6.19532 17.25 6.19137 17.25 6.18741C17.25 6.18346 17.25 6.1795 17.25 6.17554C17.25 6.17159 17.25 6.16763 17.25 6.16367C17.25 6.15972 17.25 6.15576 17.25 6.15181C17.25 6.14785 17.25 6.14389 17.25 6.13994C17.25 6.13598 17.25 6.13202 17.25 6.12807C17.25 6.12411 17.25 6.12016 17.25 6.1162C17.25 6.11224 17.25 6.10829 17.25 6.10433C17.25 6.10037 17.25 6.09642 17.25 6.09246C17.25 6.08851 17.25 6.08455 17.25 6.08059C17.25 6.07664 17.25 6.07268 17.25 6.06872C17.25 6.06477 17.25 6.06081 17.25 6.05685C17.25 6.0529 17.25 6.04894 17.25 6.04499C17.25 6.04103 17.25 6.03707 17.25 6.03312C17.25 6.02916 17.25 6.0252 17.25 6.02125C17.25 6.01729 17.25 6.01334 17.25 6.00938C17.25 6.00542 17.25 6.00147 17.25 5.99751C17.25 5.99355 17.25 5.9896 17.25 5.98564C17.25 5.98169 17.25 5.97773 17.25 5.97377C17.25 5.96982 17.25 5.96586 17.25 5.9619C17.25 5.95795 17.25 5.95399 17.25 5.95004C17.25 5.94608 17.25 5.94212 17.25 5.93817C17.25 5.93421 17.25 5.93025 17.25 5.9263C17.25 5.92234 17.25 5.91838 17.25 5.91443C17.25 5.91047 17.25 5.90652 17.25 5.90256C17.25 5.8986 17.25 5.89465 17.25 5.89069C17.25 5.88673 17.25 5.88278 17.25 5.87882C17.25 5.87487 17.25 5.87091 17.25 5.86695C17.25 5.863 17.25 5.85904 17.25 5.85508C17.25 5.85113 17.25 5.84717 17.25 5.84321C17.25 5.83926 17.25 5.8353 17.25 5.83135C17.25 5.82739 17.25 5.82343 17.25 5.81948C17.25 5.81552 17.25 5.81156 17.25 5.80761C17.25 5.80365 17.25 5.7997 17.25 5.79574C17.25 5.79178 17.25 5.78783 17.25 5.78387C17.25 5.77991 17.25 5.77596 17.25 5.772C17.25 5.76805 17.25 5.76409 17.25 5.76013C17.25 5.75618 17.25 5.75222 17.25 5.74826C17.25 5.74431 17.25 5.74035 17.25 5.7364C17.25 5.73244 17.25 5.72848 17.25 5.72453C17.25 5.72057 17.25 5.71661 17.25 5.71266C17.25 5.7087 17.25 5.70474 17.25 5.70079C17.25 5.69683 17.25 5.69288 17.25 5.68892C17.25 5.68496 17.25 5.68101 17.25 5.67705C17.25 5.67309 17.25 5.66914 17.25 5.66518C17.25 5.66123 17.25 5.65727 17.25 5.65331C17.25 5.64936 17.25 5.6454 17.25 5.64144C17.25 5.63749 17.25 5.63353 17.25 5.62958C17.25 5.62562 17.25 5.62166 17.25 5.61771C17.25 5.61375 17.25 5.60979 17.25 5.60584C17.25 5.60188 17.25 5.59793 17.25 5.59397C17.25 5.59001 17.25 5.58606 17.25 5.5821C17.25 5.57814 17.25 5.57419 17.25 5.57023C17.25 5.56627 17.25 5.56232 17.25 5.55836C17.25 5.55441 17.25 5.55045 17.25 5.54649C17.25 5.54254 17.25 5.53858 17.25 5.53462C17.25 5.53067 17.25 5.52671 17.25 5.52276C17.25 5.5188 17.25 5.51484 17.25 5.51089C17.25 5.50693 17.25 5.50297 17.25 5.49902C17.25 5.49506 17.25 5.49111 17.25 5.48715C17.25 5.48319 17.25 5.47924 17.25 5.47528C17.25 5.47132 17.25 5.46737 17.25 5.46341C17.25 5.45945 17.25 5.4555 17.25 5.45154C17.25 5.44759 17.25 5.44363 17.25 5.43967C17.25 5.43572 17.25 5.43176 17.25 5.4278C17.25 5.42385 17.25 5.41989 17.25 5.41594C17.25 5.41198 17.25 5.40802 17.25 5.40407C17.25 5.40011 17.25 5.39615 17.25 5.3922C17.25 5.38824 17.25 5.38429 17.25 5.38033C17.25 5.37637 17.25 5.37242 17.25 5.36846C17.25 5.3645 17.25 5.36055 17.25 5.35659C17.25 5.35263 17.25 5.34868 17.25 5.34472C17.25 5.34077 17.25 5.33681 17.25 5.33285C17.25 5.3289 17.25 5.32494 17.25 5.32098C17.25 5.31703 17.25 5.31307 17.25 5.30912C17.25 5.30516 17.25 5.3012 17.25 5.29725C17.25 5.29329 17.25 5.28933 17.25 5.28538C17.25 5.28142 17.25 5.27747 17.25 5.27351C17.25 5.26955 17.25 5.2656 17.25 5.26164C17.25 5.25768 17.25 5.25373 17.25 5.24977C17.25 5.24582 17.25 5.24186 17.25 5.2379C17.25 5.23395 17.25 5.22999 17.25 5.22603C17.25 5.22208 17.25 5.21812 17.25 5.21416C17.25 5.21021 17.25 5.20625 17.25 5.2023C17.25 5.19834 17.25 5.19438 17.25 5.19043C17.25 5.18647 17.25 5.18251 17.25 5.17856C17.25 5.1746 17.25 5.17065 17.25 5.16669C17.25 5.16273 17.25 5.15878 17.25 5.15482C17.25 5.15086 17.25 5.14691 17.25 5.14295C17.25 5.139 17.25 5.13504 17.25 5.13108C17.25 5.12713 17.25 5.12317 17.25 5.11921C17.25 5.11526 17.25 5.1113 17.25 5.10734C17.25 5.10339 17.25 5.09943 17.25 5.09548C17.25 5.09152 17.25 5.08756 17.25 5.08361C17.25 5.07965 17.25 5.07569 17.25 5.07174C17.25 5.06778 17.25 5.06383 17.25 5.05987C17.25 5.05591 17.25 5.05196 17.25 5.048C17.25 5.04404 17.25 5.04009 17.25 5.03613C17.25 5.03218 17.25 5.02822 17.25 5.02426C17.25 5.02031 17.25 5.01635 17.25 5.01239C17.25 5.00844 17.25 5.00448 17.25 5.00052C17.25 4.99657 17.25 4.99261 17.25 4.98866C17.25 4.9847 17.25 4.98074 17.25 4.97679C17.25 4.97283 17.25 4.96887 17.25 4.96492C17.25 4.96096 17.25 4.95701 17.25 4.95305C17.25 4.94909 17.25 4.94514 17.25 4.94118C17.25 4.93722 17.25 4.93327 17.25 4.92931C17.25 4.92536 17.25 4.9214 17.25 4.91744C17.25 4.91349 17.25 4.90953 17.25 4.90557C17.25 4.90162 17.25 4.89766 17.25 4.89371C17.25 4.88975 17.25 4.88579 17.25 4.88184C17.25 4.87788 17.25 4.87392 17.25 4.86997C17.25 4.86601 17.25 4.86205 17.25 4.8581C17.25 4.85414 17.25 4.85019 17.25 4.84623C17.25 4.84227 17.25 4.83832 17.25 4.83436C17.25 4.8304 17.25 4.82645 17.25 4.82249C17.25 4.81854 17.25 4.81458 17.25 4.81062C17.25 4.80667 17.25 4.80271 17.25 4.79875C17.25 4.7948 17.25 4.79084 17.25 4.78689C17.25 4.78293 17.25 4.77897 17.25 4.77502C17.25 4.77106 17.25 4.7671 17.25 4.76315C17.25 4.75919 17.25 4.75523 17.25 4.75128C17.25 4.74732 17.25 4.74337 17.25 4.73941C17.25 4.73545 17.25 4.7315 17.25 4.72754C17.25 4.72358 17.25 4.71963 17.25 4.71567C17.25 4.71172 17.25 4.70776 17.25 4.7038C17.25 4.69985 17.25 4.69589 17.25 4.69193C17.25 4.68798 17.25 4.68402 17.25 4.68007C17.25 4.67611 17.25 4.67215 17.25 4.6682C17.25 4.66424 17.25 4.66028 17.25 4.65633H15.75C15.75 4.66028 15.75 4.66424 15.75 4.6682C15.75 4.67215 15.75 4.67611 15.75 4.68007C15.75 4.68402 15.75 4.68798 15.75 4.69193C15.75 4.69589 15.75 4.69985 15.75 4.7038C15.75 4.70776 15.75 4.71172 15.75 4.71567C15.75 4.71963 15.75 4.72358 15.75 4.72754C15.75 4.7315 15.75 4.73545 15.75 4.73941C15.75 4.74337 15.75 4.74732 15.75 4.75128C15.75 4.75523 15.75 4.75919 15.75 4.76315C15.75 4.7671 15.75 4.77106 15.75 4.77502C15.75 4.77897 15.75 4.78293 15.75 4.78689C15.75 4.79084 15.75 4.7948 15.75 4.79875C15.75 4.80271 15.75 4.80667 15.75 4.81062C15.75 4.81458 15.75 4.81854 15.75 4.82249C15.75 4.82645 15.75 4.8304 15.75 4.83436C15.75 4.83832 15.75 4.84227 15.75 4.84623C15.75 4.85019 15.75 4.85414 15.75 4.8581C15.75 4.86205 15.75 4.86601 15.75 4.86997C15.75 4.87392 15.75 4.87788 15.75 4.88184C15.75 4.88579 15.75 4.88975 15.75 4.89371C15.75 4.89766 15.75 4.90162 15.75 4.90557C15.75 4.90953 15.75 4.91349 15.75 4.91744C15.75 4.9214 15.75 4.92536 15.75 4.92931C15.75 4.93327 15.75 4.93722 15.75 4.94118C15.75 4.94514 15.75 4.94909 15.75 4.95305C15.75 4.95701 15.75 4.96096 15.75 4.96492C15.75 4.96887 15.75 4.97283 15.75 4.97679C15.75 4.98074 15.75 4.9847 15.75 4.98866C15.75 4.99261 15.75 4.99657 15.75 5.00052C15.75 5.00448 15.75 5.00844 15.75 5.01239C15.75 5.01635 15.75 5.02031 15.75 5.02426C15.75 5.02822 15.75 5.03218 15.75 5.03613C15.75 5.04009 15.75 5.04404 15.75 5.048C15.75 5.05196 15.75 5.05591 15.75 5.05987C15.75 5.06383 15.75 5.06778 15.75 5.07174C15.75 5.07569 15.75 5.07965 15.75 5.08361C15.75 5.08756 15.75 5.09152 15.75 5.09548C15.75 5.09943 15.75 5.10339 15.75 5.10734C15.75 5.1113 15.75 5.11526 15.75 5.11921C15.75 5.12317 15.75 5.12713 15.75 5.13108C15.75 5.13504 15.75 5.139 15.75 5.14295C15.75 5.14691 15.75 5.15086 15.75 5.15482C15.75 5.15878 15.75 5.16273 15.75 5.16669C15.75 5.17065 15.75 5.1746 15.75 5.17856C15.75 5.18251 15.75 5.18647 15.75 5.19043C15.75 5.19438 15.75 5.19834 15.75 5.2023C15.75 5.20625 15.75 5.21021 15.75 5.21416C15.75 5.21812 15.75 5.22208 15.75 5.22603C15.75 5.22999 15.75 5.23395 15.75 5.2379C15.75 5.24186 15.75 5.24582 15.75 5.24977C15.75 5.25373 15.75 5.25768 15.75 5.26164C15.75 5.2656 15.75 5.26955 15.75 5.27351C15.75 5.27747 15.75 5.28142 15.75 5.28538C15.75 5.28933 15.75 5.29329 15.75 5.29725C15.75 5.3012 15.75 5.30516 15.75 5.30912C15.75 5.31307 15.75 5.31703 15.75 5.32098C15.75 5.32494 15.75 5.3289 15.75 5.33285C15.75 5.33681 15.75 5.34077 15.75 5.34472C15.75 5.34868 15.75 5.35263 15.75 5.35659C15.75 5.36055 15.75 5.3645 15.75 5.36846C15.75 5.37242 15.75 5.37637 15.75 5.38033C15.75 5.38429 15.75 5.38824 15.75 5.3922C15.75 5.39615 15.75 5.40011 15.75 5.40407C15.75 5.40802 15.75 5.41198 15.75 5.41594C15.75 5.41989 15.75 5.42385 15.75 5.4278C15.75 5.43176 15.75 5.43572 15.75 5.43967C15.75 5.44363 15.75 5.44759 15.75 5.45154C15.75 5.4555 15.75 5.45945 15.75 5.46341C15.75 5.46737 15.75 5.47132 15.75 5.47528C15.75 5.47924 15.75 5.48319 15.75 5.48715C15.75 5.49111 15.75 5.49506 15.75 5.49902C15.75 5.50297 15.75 5.50693 15.75 5.51089C15.75 5.51484 15.75 5.5188 15.75 5.52276C15.75 5.52671 15.75 5.53067 15.75 5.53462C15.75 5.53858 15.75 5.54254 15.75 5.54649C15.75 5.55045 15.75 5.55441 15.75 5.55836C15.75 5.56232 15.75 5.56627 15.75 5.57023C15.75 5.57419 15.75 5.57814 15.75 5.5821C15.75 5.58606 15.75 5.59001 15.75 5.59397C15.75 5.59793 15.75 5.60188 15.75 5.60584C15.75 5.60979 15.75 5.61375 15.75 5.61771C15.75 5.62166 15.75 5.62562 15.75 5.62958C15.75 5.63353 15.75 5.63749 15.75 5.64144C15.75 5.6454 15.75 5.64936 15.75 5.65331C15.75 5.65727 15.75 5.66123 15.75 5.66518C15.75 5.66914 15.75 5.67309 15.75 5.67705C15.75 5.68101 15.75 5.68496 15.75 5.68892C15.75 5.69288 15.75 5.69683 15.75 5.70079C15.75 5.70474 15.75 5.7087 15.75 5.71266C15.75 5.71661 15.75 5.72057 15.75 5.72453C15.75 5.72848 15.75 5.73244 15.75 5.7364C15.75 5.74035 15.75 5.74431 15.75 5.74826C15.75 5.75222 15.75 5.75618 15.75 5.76013C15.75 5.76409 15.75 5.76805 15.75 5.772C15.75 5.77596 15.75 5.77991 15.75 5.78387C15.75 5.78783 15.75 5.79178 15.75 5.79574C15.75 5.7997 15.75 5.80365 15.75 5.80761C15.75 5.81156 15.75 5.81552 15.75 5.81948C15.75 5.82343 15.75 5.82739 15.75 5.83135C15.75 5.8353 15.75 5.83926 15.75 5.84321C15.75 5.84717 15.75 5.85113 15.75 5.85508C15.75 5.85904 15.75 5.863 15.75 5.86695C15.75 5.87091 15.75 5.87487 15.75 5.87882C15.75 5.88278 15.75 5.88673 15.75 5.89069C15.75 5.89465 15.75 5.8986 15.75 5.90256C15.75 5.90652 15.75 5.91047 15.75 5.91443C15.75 5.91838 15.75 5.92234 15.75 5.9263C15.75 5.93025 15.75 5.93421 15.75 5.93817C15.75 5.94212 15.75 5.94608 15.75 5.95004C15.75 5.95399 15.75 5.95795 15.75 5.9619C15.75 5.96586 15.75 5.96982 15.75 5.97377C15.75 5.97773 15.75 5.98169 15.75 5.98564C15.75 5.9896 15.75 5.99355 15.75 5.99751C15.75 6.00147 15.75 6.00542 15.75 6.00938C15.75 6.01334 15.75 6.01729 15.75 6.02125C15.75 6.0252 15.75 6.02916 15.75 6.03312C15.75 6.03707 15.75 6.04103 15.75 6.04499C15.75 6.04894 15.75 6.0529 15.75 6.05685C15.75 6.06081 15.75 6.06477 15.75 6.06872C15.75 6.07268 15.75 6.07664 15.75 6.08059C15.75 6.08455 15.75 6.08851 15.75 6.09246C15.75 6.09642 15.75 6.10037 15.75 6.10433C15.75 6.10829 15.75 6.11224 15.75 6.1162C15.75 6.12016 15.75 6.12411 15.75 6.12807C15.75 6.13202 15.75 6.13598 15.75 6.13994C15.75 6.14389 15.75 6.14785 15.75 6.15181C15.75 6.15576 15.75 6.15972 15.75 6.16367C15.75 6.16763 15.75 6.17159 15.75 6.17554C15.75 6.1795 15.75 6.18346 15.75 6.18741C15.75 6.19137 15.75 6.19532 15.75 6.19928C15.75 6.20324 15.75 6.20719 15.75 6.21115C15.75 6.21511 15.75 6.21906 15.75 6.22302C15.75 6.22698 15.75 6.23093 15.75 6.23489C15.75 6.23884 15.75 6.2428 15.75 6.24676C15.75 6.25071 15.75 6.25467 15.75 6.25863C15.75 6.26258 15.75 6.26654 15.75 6.27049C15.75 6.27445 15.75 6.27841 15.75 6.28236C15.75 6.28632 15.75 6.29028 15.75 6.29423C15.75 6.29819 15.75 6.30215 15.75 6.3061C15.75 6.31006 15.75 6.31401 15.75 6.31797C15.75 6.32193 15.75 6.32588 15.75 6.32984C15.75 6.3338 15.75 6.33775 15.75 6.34171C15.75 6.34566 15.75 6.34962 15.75 6.35358C15.75 6.35753 15.75 6.36149 15.75 6.36545C15.75 6.3694 15.75 6.37336 15.75 6.37731C15.75 6.38127 15.75 6.38523 15.75 6.38918C15.75 6.39314 15.75 6.3971 15.75 6.40105C15.75 6.40501 15.75 6.40896 15.75 6.41292C15.75 6.41688 15.75 6.42083 15.75 6.42479C15.75 6.42875 15.75 6.4327 15.75 6.43666C15.75 6.44062 15.75 6.44457 15.75 6.44853C15.75 6.45248 15.75 6.45644 15.75 6.4604C15.75 6.46435 15.75 6.46831 15.75 6.47227C15.75 6.47622 15.75 6.48018 15.75 6.48413C15.75 6.48809 15.75 6.49205 15.75 6.496C15.75 6.49996 15.75 6.50392 15.75 6.50787C15.75 6.51183 15.75 6.51578 15.75 6.51974C15.75 6.5237 15.75 6.52765 15.75 6.53161C15.75 6.53557 15.75 6.53952 15.75 6.54348C15.75 6.54744 15.75 6.55139 15.75 6.55535C15.75 6.5593 15.75 6.56326 15.75 6.56722C15.75 6.57117 15.75 6.57513 15.75 6.57909C15.75 6.58304 15.75 6.587 15.75 6.59095C15.75 6.59491 15.75 6.59887 15.75 6.60282C15.75 6.60678 15.75 6.61074 15.75 6.61469C15.75 6.61865 15.75 6.6226 15.75 6.62656C15.75 6.63052 15.75 6.63447 15.75 6.63843C15.75 6.64239 15.75 6.64634 15.75 6.6503C15.75 6.65425 15.75 6.65821 15.75 6.66217C15.75 6.66612 15.75 6.67008 15.75 6.67404C15.75 6.67799 15.75 6.68195 15.75 6.68591C15.75 6.68986 15.75 6.69382 15.75 6.69777C15.75 6.70173 15.75 6.70569 15.75 6.70964C15.75 6.7136 15.75 6.71756 15.75 6.72151C15.75 6.72547 15.75 6.72942 15.75 6.73338C15.75 6.73734 15.75 6.74129 15.75 6.74525C15.75 6.74921 15.75 6.75316 15.75 6.75712C15.75 6.76108 15.75 6.76503 15.75 6.76899C15.75 6.77294 15.75 6.7769 15.75 6.78086C15.75 6.78481 15.75 6.78877 15.75 6.79273C15.75 6.79668 15.75 6.80064 15.75 6.80459C15.75 6.80855 15.75 6.81251 15.75 6.81646C15.75 6.82042 15.75 6.82438 15.75 6.82833C15.75 6.83229 15.75 6.83624 15.75 6.8402C15.75 6.84416 15.75 6.84811 15.75 6.85207C15.75 6.85603 15.75 6.85998 15.75 6.86394C15.75 6.86789 15.75 6.87185 15.75 6.87581C15.75 6.87976 15.75 6.88372 15.75 6.88768C15.75 6.89163 15.75 6.89559 15.75 6.89955C15.75 6.9035 15.75 6.90746 15.75 6.91141C15.75 6.91537 15.75 6.91933 15.75 6.92328C15.75 6.92724 15.75 6.9312 15.75 6.93515C15.75 6.93911 15.75 6.94306 15.75 6.94702C15.75 6.95098 15.75 6.95493 15.75 6.95889C15.75 6.96285 15.75 6.9668 15.75 6.97076C15.75 6.97471 15.75 6.97867 15.75 6.98263C15.75 6.98658 15.75 6.99054 15.75 6.9945C15.75 6.99845 15.75 7.00241 15.75 7.00636C15.75 7.01032 15.75 7.01428 15.75 7.01823C15.75 7.02219 15.75 7.02615 15.75 7.0301C15.75 7.03406 15.75 7.03802 15.75 7.04197C15.75 7.04593 15.75 7.04988 15.75 7.05384C15.75 7.0578 15.75 7.06175 15.75 7.06571C15.75 7.06967 15.75 7.07362 15.75 7.07758C15.75 7.08153 15.75 7.08549 15.75 7.08945C15.75 7.0934 15.75 7.09736 15.75 7.10132C15.75 7.10527 15.75 7.10923 15.75 7.11318C15.75 7.11714 15.75 7.1211 15.75 7.12505C15.75 7.12901 15.75 7.13297 15.75 7.13692C15.75 7.14088 15.75 7.14483 15.75 7.14879C15.75 7.15275 15.75 7.1567 15.75 7.16066C15.75 7.16462 15.75 7.16857 15.75 7.17253C15.75 7.17649 15.75 7.18044 15.75 7.1844C15.75 7.18835 15.75 7.19231 15.75 7.19627C15.75 7.20022 15.75 7.20418 15.75 7.20814C15.75 7.21209 15.75 7.21605 15.75 7.22C15.75 7.22396 15.75 7.22792 15.75 7.23187C15.75 7.23583 15.75 7.23979 15.75 7.24374C15.75 7.2477 15.75 7.25166 15.75 7.25561C15.75 7.25957 15.75 7.26352 15.75 7.26748C15.75 7.27144 15.75 7.27539 15.75 7.27935C15.75 7.28331 15.75 7.28726 15.75 7.29122C15.75 7.29517 15.75 7.29913 15.75 7.30309C15.75 7.30704 15.75 7.311 15.75 7.31496C15.75 7.31891 15.75 7.32287 15.75 7.32682C15.75 7.33078 15.75 7.33474 15.75 7.33869C15.75 7.34265 15.75 7.34661 15.75 7.35056C15.75 7.35452 15.75 7.35847 15.75 7.36243C15.75 7.36639 15.75 7.37034 15.75 7.3743C15.75 7.37826 15.75 7.38221 15.75 7.38617C15.75 7.39013 15.75 7.39408 15.75 7.39804C15.75 7.40199 15.75 7.40595 15.75 7.40991C15.75 7.41386 15.75 7.41782 15.75 7.42178C15.75 7.42573 15.75 7.42969 15.75 7.43364C15.75 7.4376 15.75 7.44156 15.75 7.44551C15.75 7.44947 15.75 7.45343 15.75 7.45738C15.75 7.46134 15.75 7.46529 15.75 7.46925C15.75 7.47321 15.75 7.47716 15.75 7.48112C15.75 7.48508 15.75 7.48903 15.75 7.49299C15.75 7.49694 15.75 7.5009 15.75 7.50486C15.75 7.50881 15.75 7.51277 15.75 7.51673C15.75 7.52068 15.75 7.52464 15.75 7.5286C15.75 7.53255 15.75 7.53651 15.75 7.54046C15.75 7.54442 15.75 7.54838 15.75 7.55233C15.75 7.55629 15.75 7.56025 15.75 7.5642C15.75 7.56816 15.75 7.57211 15.75 7.57607C15.75 7.58003 15.75 7.58398 15.75 7.58794C15.75 7.5919 15.75 7.59585 15.75 7.59981C15.75 7.60377 15.75 7.60772 15.75 7.61168C15.75 7.61563 15.75 7.61959 15.75 7.62355C15.75 7.6275 15.75 7.63146 15.75 7.63542C15.75 7.63937 15.75 7.64333 15.75 7.64728C15.75 7.65124 15.75 7.6552 15.75 7.65915C15.75 7.66311 15.75 7.66707 15.75 7.67102C15.75 7.67498 15.75 7.67893 15.75 7.68289C15.75 7.68685 15.75 7.6908 15.75 7.69476C15.75 7.69872 15.75 7.70267 15.75 7.70663C15.75 7.71058 15.75 7.71454 15.75 7.7185C15.75 7.72245 15.75 7.72641 15.75 7.73037C15.75 7.73432 15.75 7.73828 15.75 7.74224C15.75 7.74619 15.75 7.75015 15.75 7.7541C15.75 7.75806 15.75 7.76202 15.75 7.76597C15.75 7.76993 15.75 7.77389 15.75 7.77784C15.75 7.7818 15.75 7.78575 15.75 7.78971C15.75 7.79367 15.75 7.79762 15.75 7.80158C15.75 7.80554 15.75 7.80949 15.75 7.81345C15.75 7.8174 15.75 7.82136 15.75 7.82532C15.75 7.82927 15.75 7.83323 15.75 7.83719C15.75 7.84114 15.75 7.8451 15.75 7.84905C15.75 7.85301 15.75 7.85697 15.75 7.86092C15.75 7.86488 15.75 7.86884 15.75 7.87279C15.75 7.87675 15.75 7.88071 15.75 7.88466C15.75 7.88862 15.75 7.89257 15.75 7.89653C15.75 7.90049 15.75 7.90444 15.75 7.9084C15.75 7.91236 15.75 7.91631 15.75 7.92027C15.75 7.92422 15.75 7.92818 15.75 7.93214C15.75 7.93609 15.75 7.94005 15.75 7.94401C15.75 7.94796 15.75 7.95192 15.75 7.95587C15.75 7.95983 15.75 7.96379 15.75 7.96774C15.75 7.9717 15.75 7.97566 15.75 7.97961C15.75 7.98357 15.75 7.98752 15.75 7.99148C15.75 7.99544 15.75 7.99939 15.75 8.00335C15.75 8.00731 15.75 8.01126 15.75 8.01522C15.75 8.01918 15.75 8.02313 15.75 8.02709C15.75 8.03104 15.75 8.035 15.75 8.03896C15.75 8.04291 15.75 8.04687 15.75 8.05083C15.75 8.05478 15.75 8.05874 15.75 8.06269C15.75 8.06665 15.75 8.07061 15.75 8.07456C15.75 8.07852 15.75 8.08248 15.75 8.08643C15.75 8.09039 15.75 8.09435 15.75 8.0983C15.75 8.10226 15.75 8.10621 15.75 8.11017C15.75 8.11413 15.75 8.11808 15.75 8.12204C15.75 8.126 15.75 8.12995 15.75 8.13391C15.75 8.13786 15.75 8.14182 15.75 8.14578C15.75 8.14973 15.75 8.15369 15.75 8.15765C15.75 8.1616 15.75 8.16556 15.75 8.16951C15.75 8.17347 15.75 8.17743 15.75 8.18138C15.75 8.18534 15.75 8.1893 15.75 8.19325C15.75 8.19721 15.75 8.20116 15.75 8.20512C15.75 8.20908 15.75 8.21303 15.75 8.21699C15.75 8.22095 15.75 8.2249 15.75 8.22886C15.75 8.23282 15.75 8.23677 15.75 8.24073C15.75 8.24468 15.75 8.24864 15.75 8.2526C15.75 8.25655 15.75 8.26051 15.75 8.26447C15.75 8.26842 15.75 8.27238 15.75 8.27633C15.75 8.28029 15.75 8.28425 15.75 8.2882C15.75 8.29216 15.75 8.29612 15.75 8.30007C15.75 8.30403 15.75 8.30798 15.75 8.31194C15.75 8.3159 15.75 8.31985 15.75 8.32381C15.75 8.32777 15.75 8.33172 15.75 8.33568C15.75 8.33964 15.75 8.34359 15.75 8.34755C15.75 8.3515 15.75 8.35546 15.75 8.35942C15.75 8.36337 15.75 8.36733 15.75 8.37129C15.75 8.37524 15.75 8.3792 15.75 8.38315C15.75 8.38711 15.75 8.39107 15.75 8.39502C15.75 8.39898 15.75 8.40294 15.75 8.40689C15.75 8.41085 15.75 8.4148 15.75 8.41876C15.75 8.42272 15.75 8.42667 15.75 8.43063C15.75 8.43459 15.75 8.43854 15.75 8.4425C15.75 8.44646 15.75 8.45041 15.75 8.45437C15.75 8.45832 15.75 8.46228 15.75 8.46624C15.75 8.47019 15.75 8.47415 15.75 8.47811C15.75 8.48206 15.75 8.48602 15.75 8.48997C15.75 8.49393 15.75 8.49789 15.75 8.50184C15.75 8.5058 15.75 8.50976 15.75 8.51371C15.75 8.51767 15.75 8.52162 15.75 8.52558C15.75 8.52954 15.75 8.53349 15.75 8.53745C15.75 8.54141 15.75 8.54536 15.75 8.54932C15.75 8.55328 15.75 8.55723 15.75 8.56119C15.75 8.56514 15.75 8.5691 15.75 8.57306C15.75 8.57701 15.75 8.58097 15.75 8.58493C15.75 8.58888 15.75 8.59284 15.75 8.59679C15.75 8.60075 15.75 8.60471 15.75 8.60866C15.75 8.61262 15.75 8.61658 15.75 8.62053C15.75 8.62449 15.75 8.62844 15.75 8.6324C15.75 8.63636 15.75 8.64031 15.75 8.64427C15.75 8.64823 15.75 8.65218 15.75 8.65614C15.75 8.66009 15.75 8.66405 15.75 8.66801C15.75 8.67196 15.75 8.67592 15.75 8.67988C15.75 8.68383 15.75 8.68779 15.75 8.69175C15.75 8.6957 15.75 8.69966 15.75 8.70361C15.75 8.70757 15.75 8.71153 15.75 8.71548C15.75 8.71944 15.75 8.7234 15.75 8.72735C15.75 8.73131 15.75 8.73526 15.75 8.73922C15.75 8.74318 15.75 8.74713 15.75 8.75109C15.75 8.75505 15.75 8.759 15.75 8.76296C15.75 8.76691 15.75 8.77087 15.75 8.77483C15.75 8.77878 15.75 8.78274 15.75 8.7867C15.75 8.79065 15.75 8.79461 15.75 8.79856C15.75 8.80252 15.75 8.80648 15.75 8.81043C15.75 8.81439 15.75 8.81835 15.75 8.8223C15.75 8.82626 15.75 8.83022 15.75 8.83417C15.75 8.83813 15.75 8.84208 15.75 8.84604C15.75 8.85 15.75 8.85395 15.75 8.85791C15.75 8.86187 15.75 8.86582 15.75 8.86978C15.75 8.87373 15.75 8.87769 15.75 8.88165C15.75 8.8856 15.75 8.88956 15.75 8.89352C15.75 8.89747 15.75 8.90143 15.75 8.90539C15.75 8.90934 15.75 8.9133 15.75 8.91725C15.75 8.92121 15.75 8.92517 15.75 8.92912C15.75 8.93308 15.75 8.93704 15.75 8.94099C15.75 8.94495 15.75 8.9489 15.75 8.95286C15.75 8.95682 15.75 8.96077 15.75 8.96473C15.75 8.96869 15.75 8.97264 15.75 8.9766C15.75 8.98055 15.75 8.98451 15.75 8.98847C15.75 8.99242 15.75 8.99638 15.75 9.00034C15.75 9.00429 15.75 9.00825 15.75 9.0122C15.75 9.01616 15.75 9.02012 15.75 9.02407C15.75 9.02803 15.75 9.03199 15.75 9.03594C15.75 9.0399 15.75 9.04386 15.75 9.04781C15.75 9.05177 15.75 9.05572 15.75 9.05968C15.75 9.06364 15.75 9.06759 15.75 9.07155C15.75 9.07551 15.75 9.07946 15.75 9.08342C15.75 9.08737 15.75 9.09133 15.75 9.09529C15.75 9.09924 15.75 9.1032 15.75 9.10716C15.75 9.11111 15.75 9.11507 15.75 9.11902C15.75 9.12298 15.75 9.12694 15.75 9.13089C15.75 9.13485 15.75 9.13881 15.75 9.14276C15.75 9.14672 15.75 9.15067 15.75 9.15463C15.75 9.15859 15.75 9.16254 15.75 9.1665C15.75 9.17046 15.75 9.17441 15.75 9.17837C15.75 9.18233 15.75 9.18628 15.75 9.19024C15.75 9.19419 15.75 9.19815 15.75 9.20211C15.75 9.20606 15.75 9.21002 15.75 9.21398C15.75 9.21793 15.75 9.22189 15.75 9.22584C15.75 9.2298 15.75 9.23376 15.75 9.23771C15.75 9.24167 15.75 9.24563 15.75 9.24958C15.75 9.25354 15.75 9.25749 15.75 9.26145C15.75 9.26541 15.75 9.26936 15.75 9.27332C15.75 9.27728 15.75 9.28123 15.75 9.28519C15.75 9.28914 15.75 9.2931 15.75 9.29706C15.75 9.30101 15.75 9.30497 15.75 9.30893C15.75 9.31288 15.75 9.31684 15.75 9.3208C15.75 9.32475 15.75 9.32871 15.75 9.33266C15.75 9.33662 15.75 9.34058 15.75 9.34453C15.75 9.34849 15.75 9.35245 15.75 9.3564C15.75 9.36036 15.75 9.36431 15.75 9.36827C15.75 9.37223 15.75 9.37618 15.75 9.38014C15.75 9.3841 15.75 9.38805 15.75 9.39201C15.75 9.39597 15.75 9.39992 15.75 9.40388C15.75 9.40783 15.75 9.41179 15.75 9.41575C15.75 9.4197 15.75 9.42366 15.75 9.42762C15.75 9.43157 15.75 9.43553 15.75 9.43948C15.75 9.44344 15.75 9.4474 15.75 9.45135C15.75 9.45531 15.75 9.45927 15.75 9.46322C15.75 9.46718 15.75 9.47113 15.75 9.47509C15.75 9.47905 15.75 9.483 15.75 9.48696C15.75 9.49092 15.75 9.49487 15.75 9.49883C15.75 9.50278 15.75 9.50674 15.75 9.5107C15.75 9.51465 15.75 9.51861 15.75 9.52257C15.75 9.52652 15.75 9.53048 15.75 9.53444C15.75 9.53839 15.75 9.54235 15.75 9.5463C15.75 9.55026 15.75 9.55422 15.75 9.55817C15.75 9.56213 15.75 9.56609 15.75 9.57004C15.75 9.574 15.75 9.57795 15.75 9.58191C15.75 9.58587 15.75 9.58982 15.75 9.59378C15.75 9.59774 15.75 9.60169 15.75 9.60565C15.75 9.6096 15.75 9.61356 15.75 9.61752C15.75 9.62147 15.75 9.62543 15.75 9.62939C15.75 9.63334 15.75 9.6373 15.75 9.64125C15.75 9.64521 15.75 9.64917 15.75 9.65312C15.75 9.65708 15.75 9.66104 15.75 9.66499C15.75 9.66895 15.75 9.6729 15.75 9.67686C15.75 9.68082 15.75 9.68477 15.75 9.68873C15.75 9.69269 15.75 9.69664 15.75 9.7006C15.75 9.70456 15.75 9.70851 15.75 9.71247C15.75 9.71642 15.75 9.72038 15.75 9.72434C15.75 9.72829 15.75 9.73225 15.75 9.73621C15.75 9.74016 15.75 9.74412 15.75 9.74807C15.75 9.75203 15.75 9.75599 15.75 9.75994C15.75 9.7639 15.75 9.76786 15.75 9.77181C15.75 9.77577 15.75 9.77973 15.75 9.78368C15.75 9.78764 15.75 9.79159 15.75 9.79555C15.75 9.79951 15.75 9.80346 15.75 9.80742C15.75 9.81138 15.75 9.81533 15.75 9.81929C15.75 9.82324 15.75 9.8272 15.75 9.83116C15.75 9.83511 15.75 9.83907 15.75 9.84303C15.75 9.84698 15.75 9.85094 15.75 9.85489C15.75 9.85885 15.75 9.86281 15.75 9.86676C15.75 9.87072 15.75 9.87468 15.75 9.87863C15.75 9.88259 15.75 9.88655 15.75 9.8905C15.75 9.89446 15.75 9.89841 15.75 9.90237C15.75 9.90633 15.75 9.91028 15.75 9.91424C15.75 9.9182 15.75 9.92215 15.75 9.92611C15.75 9.93006 15.75 9.93402 15.75 9.93798C15.75 9.94193 15.75 9.94589 15.75 9.94985C15.75 9.9538 15.75 9.95776 15.75 9.96171C15.75 9.96567 15.75 9.96963 15.75 9.97358C15.75 9.97754 15.75 9.9815 15.75 9.98545C15.75 9.98941 15.75 9.99337 15.75 9.99732C15.75 10.0013 15.75 10.0052 15.75 10.0092C15.75 10.0131 15.75 10.0171 15.75 10.0211C15.75 10.025 15.75 10.029 15.75 10.0329C15.75 10.0369 15.75 10.0408 15.75 10.0448C15.75 10.0488 15.75 10.0527 15.75 10.0567C15.75 10.0606 15.75 10.0646 15.75 10.0685C15.75 10.0725 15.75 10.0764 15.75 10.0804C15.75 10.0844 15.75 10.0883 15.75 10.0923C15.75 10.0962 15.75 10.1002 15.75 10.1041C15.75 10.1081 15.75 10.1121 15.75 10.116C15.75 10.12 15.75 10.1239 15.75 10.1279C15.75 10.1318 15.75 10.1358 15.75 10.1397C15.75 10.1437 15.75 10.1477 15.75 10.1516C15.75 10.1556 15.75 10.1595 15.75 10.1635C15.75 10.1674 15.75 10.1714 15.75 10.1754C15.75 10.1793 15.75 10.1833 15.75 10.1872C15.75 10.1912 15.75 10.1951 15.75 10.1991C15.75 10.203 15.75 10.207 15.75 10.211C15.75 10.2149 15.75 10.2189 15.75 10.2228C15.75 10.2268 15.75 10.2307 15.75 10.2347C15.75 10.2387 15.75 10.2426 15.75 10.2466C15.75 10.2505 15.75 10.2545 15.75 10.2584C15.75 10.2624 15.75 10.2663 15.75 10.2703C15.75 10.2743 15.75 10.2782 15.75 10.2822C15.75 10.2861 15.75 10.2901 15.75 10.294C15.75 10.298 15.75 10.302 15.75 10.3059C15.75 10.3099 15.75 10.3138 15.75 10.3178C15.75 10.3217 15.75 10.3257 15.75 10.3296C15.75 10.3336 15.75 10.3376 15.75 10.3415C15.75 10.3455 15.75 10.3494 15.75 10.3534C15.75 10.3573 15.75 10.3613 15.75 10.3653C15.75 10.3692 15.75 10.3732 15.75 10.3771C15.75 10.3811 15.75 10.385 15.75 10.389C15.75 10.393 15.75 10.3969 15.75 10.4009C15.75 10.4048 15.75 10.4088 15.75 10.4127C15.75 10.4167 15.75 10.4206 15.75 10.4246C15.75 10.4286 15.75 10.4325 15.75 10.4365C15.75 10.4404 15.75 10.4444 15.75 10.4483C15.75 10.4523 15.75 10.4563 15.75 10.4602C15.75 10.4642 15.75 10.4681 15.75 10.4721C15.75 10.476 15.75 10.48 15.75 10.4839C15.75 10.4879 15.75 10.4919 15.75 10.4958C15.75 10.4998 15.75 10.5037 15.75 10.5077C15.75 10.5116 15.75 10.5156 15.75 10.5196C15.75 10.5235 15.75 10.5275 15.75 10.5314C15.75 10.5354 15.75 10.5393 15.75 10.5433C15.75 10.5472 15.75 10.5512 15.75 10.5552C15.75 10.5591 15.75 10.5631 15.75 10.567C15.75 10.571 15.75 10.5749 15.75 10.5789C15.75 10.5829 15.75 10.5868 15.75 10.5908C15.75 10.5947 15.75 10.5987 15.75 10.6026C15.75 10.6066 15.75 10.6105 15.75 10.6145C15.75 10.6185 15.75 10.6224 15.75 10.6264C15.75 10.6303 15.75 10.6343 15.75 10.6382C15.75 10.6422 15.75 10.6462 15.75 10.6501C15.75 10.6541 15.75 10.658 15.75 10.662C15.75 10.6659 15.75 10.6699 15.75 10.6738C15.75 10.6778 15.75 10.6818 15.75 10.6857C15.75 10.6897 15.75 10.6936 15.75 10.6976C15.75 10.7015 15.75 10.7055 15.75 10.7095C15.75 10.7134 15.75 10.7174 15.75 10.7213C15.75 10.7253 15.75 10.7292 15.75 10.7332H17.25ZM3.54545 14.4832C3.55194 14.4832 3.55842 14.4832 3.5649 14.4832C3.57138 14.4832 3.57786 14.4832 3.58434 14.4832C3.59082 14.4832 3.5973 14.4832 3.60378 14.4832C3.61026 14.4832 3.61674 14.4832 3.62322 14.4832C3.62971 14.4832 3.63619 14.4832 3.64267 14.4832C3.64915 14.4832 3.65563 14.4832 3.66211 14.4832C3.66859 14.4832 3.67507 14.4832 3.68155 14.4832C3.68803 14.4832 3.69451 14.4832 3.70099 14.4832C3.70748 14.4832 3.71396 14.4832 3.72044 14.4832C3.72692 14.4832 3.7334 14.4832 3.73988 14.4832C3.74636 14.4832 3.75284 14.4832 3.75932 14.4832C3.7658 14.4832 3.77228 14.4832 3.77876 14.4832C3.78525 14.4832 3.79173 14.4832 3.79821 14.4832C3.80469 14.4832 3.81117 14.4832 3.81765 14.4832C3.82413 14.4832 3.83061 14.4832 3.83709 14.4832C3.84357 14.4832 3.85005 14.4832 3.85653 14.4832C3.86301 14.4832 3.8695 14.4832 3.87598 14.4832C3.88246 14.4832 3.88894 14.4832 3.89542 14.4832C3.9019 14.4832 3.90838 14.4832 3.91486 14.4832C3.92134 14.4832 3.92782 14.4832 3.9343 14.4832C3.94078 14.4832 3.94727 14.4832 3.95375 14.4832C3.96023 14.4832 3.96671 14.4832 3.97319 14.4832C3.97967 14.4832 3.98615 14.4832 3.99263 14.4832C3.99911 14.4832 4.00559 14.4832 4.01207 14.4832C4.01855 14.4832 4.02504 14.4832 4.03152 14.4832C4.038 14.4832 4.04448 14.4832 4.05096 14.4832C4.05744 14.4832 4.06392 14.4832 4.0704 14.4832C4.07688 14.4832 4.08336 14.4832 4.08984 14.4832C4.09632 14.4832 4.10281 14.4832 4.10929 14.4832C4.11577 14.4832 4.12225 14.4832 4.12873 14.4832C4.13521 14.4832 4.14169 14.4832 4.14817 14.4832C4.15465 14.4832 4.16113 14.4832 4.16761 14.4832C4.17409 14.4832 4.18058 14.4832 4.18706 14.4832C4.19354 14.4832 4.20002 14.4832 4.2065 14.4832C4.21298 14.4832 4.21946 14.4832 4.22594 14.4832C4.23242 14.4832 4.2389 14.4832 4.24538 14.4832C4.25186 14.4832 4.25835 14.4832 4.26483 14.4832C4.27131 14.4832 4.27779 14.4832 4.28427 14.4832C4.29075 14.4832 4.29723 14.4832 4.30371 14.4832C4.31019 14.4832 4.31667 14.4832 4.32315 14.4832C4.32963 14.4832 4.33612 14.4832 4.3426 14.4832C4.34908 14.4832 4.35556 14.4832 4.36204 14.4832C4.36852 14.4832 4.375 14.4832 4.38148 14.4832C4.38796 14.4832 4.39444 14.4832 4.40092 14.4832C4.4074 14.4832 4.41389 14.4832 4.42037 14.4832C4.42685 14.4832 4.43333 14.4832 4.43981 14.4832C4.44629 14.4832 4.45277 14.4832 4.45925 14.4832C4.46573 14.4832 4.47221 14.4832 4.47869 14.4832C4.48517 14.4832 4.49166 14.4832 4.49814 14.4832C4.50462 14.4832 4.5111 14.4832 4.51758 14.4832C4.52406 14.4832 4.53054 14.4832 4.53702 14.4832C4.5435 14.4832 4.54998 14.4832 4.55646 14.4832C4.56294 14.4832 4.56943 14.4832 4.57591 14.4832C4.58239 14.4832 4.58887 14.4832 4.59535 14.4832C4.60183 14.4832 4.60831 14.4832 4.61479 14.4832C4.62127 14.4832 4.62775 14.4832 4.63423 14.4832C4.64071 14.4832 4.64719 14.4832 4.65368 14.4832C4.66016 14.4832 4.66664 14.4832 4.67312 14.4832C4.6796 14.4832 4.68608 14.4832 4.69256 14.4832C4.69904 14.4832 4.70552 14.4832 4.712 14.4832C4.71848 14.4832 4.72496 14.4832 4.73145 14.4832C4.73793 14.4832 4.74441 14.4832 4.75089 14.4832C4.75737 14.4832 4.76385 14.4832 4.77033 14.4832C4.77681 14.4832 4.78329 14.4832 4.78977 14.4832C4.79625 14.4832 4.80273 14.4832 4.80922 14.4832C4.8157 14.4832 4.82218 14.4832 4.82866 14.4832C4.83514 14.4832 4.84162 14.4832 4.8481 14.4832C4.85458 14.4832 4.86106 14.4832 4.86754 14.4832C4.87402 14.4832 4.8805 14.4832 4.88699 14.4832C4.89347 14.4832 4.89995 14.4832 4.90643 14.4832C4.91291 14.4832 4.91939 14.4832 4.92587 14.4832C4.93235 14.4832 4.93883 14.4832 4.94531 14.4832C4.95179 14.4832 4.95827 14.4832 4.96476 14.4832C4.97124 14.4832 4.97772 14.4832 4.9842 14.4832C4.99068 14.4832 4.99716 14.4832 5.00364 14.4832C5.01012 14.4832 5.0166 14.4832 5.02308 14.4832C5.02956 14.4832 5.03604 14.4832 5.04253 14.4832C5.04901 14.4832 5.05549 14.4832 5.06197 14.4832C5.06845 14.4832 5.07493 14.4832 5.08141 14.4832C5.08789 14.4832 5.09437 14.4832 5.10085 14.4832C5.10733 14.4832 5.11381 14.4832 5.1203 14.4832C5.12678 14.4832 5.13326 14.4832 5.13974 14.4832C5.14622 14.4832 5.1527 14.4832 5.15918 14.4832C5.16566 14.4832 5.17214 14.4832 5.17862 14.4832C5.1851 14.4832 5.19158 14.4832 5.19807 14.4832C5.20455 14.4832 5.21103 14.4832 5.21751 14.4832C5.22399 14.4832 5.23047 14.4832 5.23695 14.4832C5.24343 14.4832 5.24991 14.4832 5.25639 14.4832C5.26287 14.4832 5.26935 14.4832 5.27584 14.4832C5.28232 14.4832 5.2888 14.4832 5.29528 14.4832C5.30176 14.4832 5.30824 14.4832 5.31472 14.4832C5.3212 14.4832 5.32768 14.4832 5.33416 14.4832C5.34064 14.4832 5.34712 14.4832 5.35361 14.4832C5.36009 14.4832 5.36657 14.4832 5.37305 14.4832C5.37953 14.4832 5.38601 14.4832 5.39249 14.4832C5.39897 14.4832 5.40545 14.4832 5.41193 14.4832C5.41841 14.4832 5.42489 14.4832 5.43137 14.4832C5.43786 14.4832 5.44434 14.4832 5.45082 14.4832C5.4573 14.4832 5.46378 14.4832 5.47026 14.4832C5.47674 14.4832 5.48322 14.4832 5.4897 14.4832C5.49618 14.4832 5.50266 14.4832 5.50914 14.4832C5.51563 14.4832 5.52211 14.4832 5.52859 14.4832C5.53507 14.4832 5.54155 14.4832 5.54803 14.4832C5.55451 14.4832 5.56099 14.4832 5.56747 14.4832C5.57395 14.4832 5.58043 14.4832 5.58691 14.4832C5.5934 14.4832 5.59988 14.4832 5.60636 14.4832C5.61284 14.4832 5.61932 14.4832 5.6258 14.4832C5.63228 14.4832 5.63876 14.4832 5.64524 14.4832C5.65172 14.4832 5.6582 14.4832 5.66468 14.4832C5.67117 14.4832 5.67765 14.4832 5.68413 14.4832C5.69061 14.4832 5.69709 14.4832 5.70357 14.4832C5.71005 14.4832 5.71653 14.4832 5.72301 14.4832C5.72949 14.4832 5.73597 14.4832 5.74245 14.4832C5.74894 14.4832 5.75542 14.4832 5.7619 14.4832C5.76838 14.4832 5.77486 14.4832 5.78134 14.4832C5.78782 14.4832 5.7943 14.4832 5.80078 14.4832C5.80726 14.4832 5.81374 14.4832 5.82022 14.4832C5.8267 14.4832 5.83319 14.4832 5.83967 14.4832C5.84615 14.4832 5.85263 14.4832 5.85911 14.4832C5.86559 14.4832 5.87207 14.4832 5.87855 14.4832C5.88503 14.4832 5.89151 14.4832 5.89799 14.4832C5.90448 14.4832 5.91096 14.4832 5.91744 14.4832C5.92392 14.4832 5.9304 14.4832 5.93688 14.4832C5.94336 14.4832 5.94984 14.4832 5.95632 14.4832C5.9628 14.4832 5.96928 14.4832 5.97576 14.4832C5.98224 14.4832 5.98873 14.4832 5.99521 14.4832C6.00169 14.4832 6.00817 14.4832 6.01465 14.4832C6.02113 14.4832 6.02761 14.4832 6.03409 14.4832C6.04057 14.4832 6.04705 14.4832 6.05353 14.4832C6.06001 14.4832 6.0665 14.4832 6.07298 14.4832C6.07946 14.4832 6.08594 14.4832 6.09242 14.4832C6.0989 14.4832 6.10538 14.4832 6.11186 14.4832C6.11834 14.4832 6.12482 14.4832 6.1313 14.4832C6.13778 14.4832 6.14427 14.4832 6.15075 14.4832C6.15723 14.4832 6.16371 14.4832 6.17019 14.4832C6.17667 14.4832 6.18315 14.4832 6.18963 14.4832C6.19611 14.4832 6.20259 14.4832 6.20907 14.4832C6.21555 14.4832 6.22204 14.4832 6.22852 14.4832C6.235 14.4832 6.24148 14.4832 6.24796 14.4832C6.25444 14.4832 6.26092 14.4832 6.2674 14.4832C6.27388 14.4832 6.28036 14.4832 6.28684 14.4832C6.29332 14.4832 6.29981 14.4832 6.30629 14.4832C6.31277 14.4832 6.31925 14.4832 6.32573 14.4832C6.33221 14.4832 6.33869 14.4832 6.34517 14.4832C6.35165 14.4832 6.35813 14.4832 6.36461 14.4832C6.37109 14.4832 6.37758 14.4832 6.38406 14.4832C6.39054 14.4832 6.39702 14.4832 6.4035 14.4832C6.40998 14.4832 6.41646 14.4832 6.42294 14.4832C6.42942 14.4832 6.4359 14.4832 6.44238 14.4832C6.44886 14.4832 6.45535 14.4832 6.46183 14.4832C6.46831 14.4832 6.47479 14.4832 6.48127 14.4832C6.48775 14.4832 6.49423 14.4832 6.50071 14.4832C6.50719 14.4832 6.51367 14.4832 6.52015 14.4832C6.52663 14.4832 6.53312 14.4832 6.5396 14.4832C6.54608 14.4832 6.55256 14.4832 6.55904 14.4832C6.56552 14.4832 6.572 14.4832 6.57848 14.4832C6.58496 14.4832 6.59144 14.4832 6.59792 14.4832C6.6044 14.4832 6.61089 14.4832 6.61737 14.4832C6.62385 14.4832 6.63033 14.4832 6.63681 14.4832C6.64329 14.4832 6.64977 14.4832 6.65625 14.4832C6.66273 14.4832 6.66921 14.4832 6.67569 14.4832C6.68217 14.4832 6.68865 14.4832 6.69514 14.4832C6.70162 14.4832 6.7081 14.4832 6.71458 14.4832C6.72106 14.4832 6.72754 14.4832 6.73402 14.4832C6.7405 14.4832 6.74698 14.4832 6.75346 14.4832C6.75994 14.4832 6.76643 14.4832 6.77291 14.4832C6.77939 14.4832 6.78587 14.4832 6.79235 14.4832C6.79883 14.4832 6.80531 14.4832 6.81179 14.4832C6.81827 14.4832 6.82475 14.4832 6.83123 14.4832C6.83771 14.4832 6.84419 14.4832 6.85068 14.4832C6.85716 14.4832 6.86364 14.4832 6.87012 14.4832C6.8766 14.4832 6.88308 14.4832 6.88956 14.4832C6.89604 14.4832 6.90252 14.4832 6.909 14.4832C6.91548 14.4832 6.92196 14.4832 6.92845 14.4832C6.93493 14.4832 6.94141 14.4832 6.94789 14.4832C6.95437 14.4832 6.96085 14.4832 6.96733 14.4832C6.97381 14.4832 6.98029 14.4832 6.98677 14.4832C6.99325 14.4832 6.99973 14.4832 7.00622 14.4832C7.0127 14.4832 7.01918 14.4832 7.02566 14.4832C7.03214 14.4832 7.03862 14.4832 7.0451 14.4832C7.05158 14.4832 7.05806 14.4832 7.06454 14.4832C7.07102 14.4832 7.0775 14.4832 7.08399 14.4832C7.09047 14.4832 7.09695 14.4832 7.10343 14.4832C7.10991 14.4832 7.11639 14.4832 7.12287 14.4832C7.12935 14.4832 7.13583 14.4832 7.14231 14.4832C7.14879 14.4832 7.15527 14.4832 7.16176 14.4832C7.16824 14.4832 7.17472 14.4832 7.1812 14.4832C7.18768 14.4832 7.19416 14.4832 7.20064 14.4832C7.20712 14.4832 7.2136 14.4832 7.22008 14.4832C7.22656 14.4832 7.23304 14.4832 7.23953 14.4832C7.24601 14.4832 7.25249 14.4832 7.25897 14.4832C7.26545 14.4832 7.27193 14.4832 7.27841 14.4832C7.28489 14.4832 7.29137 14.4832 7.29785 14.4832C7.30433 14.4832 7.31081 14.4832 7.3173 14.4832C7.32378 14.4832 7.33026 14.4832 7.33674 14.4832C7.34322 14.4832 7.3497 14.4832 7.35618 14.4832C7.36266 14.4832 7.36914 14.4832 7.37562 14.4832C7.3821 14.4832 7.38858 14.4832 7.39506 14.4832C7.40155 14.4832 7.40803 14.4832 7.41451 14.4832C7.42099 14.4832 7.42747 14.4832 7.43395 14.4832C7.44043 14.4832 7.44691 14.4832 7.45339 14.4832C7.45987 14.4832 7.46635 14.4832 7.47284 14.4832C7.47932 14.4832 7.4858 14.4832 7.49228 14.4832C7.49876 14.4832 7.50524 14.4832 7.51172 14.4832C7.5182 14.4832 7.52468 14.4832 7.53116 14.4832C7.53764 14.4832 7.54412 14.4832 7.5506 14.4832C7.55709 14.4832 7.56357 14.4832 7.57005 14.4832C7.57653 14.4832 7.58301 14.4832 7.58949 14.4832C7.59597 14.4832 7.60245 14.4832 7.60893 14.4832C7.61541 14.4832 7.62189 14.4832 7.62837 14.4832C7.63486 14.4832 7.64134 14.4832 7.64782 14.4832C7.6543 14.4832 7.66078 14.4832 7.66726 14.4832C7.67374 14.4832 7.68022 14.4832 7.6867 14.4832C7.69318 14.4832 7.69966 14.4832 7.70614 14.4832C7.71263 14.4832 7.71911 14.4832 7.72559 14.4832C7.73207 14.4832 7.73855 14.4832 7.74503 14.4832C7.75151 14.4832 7.75799 14.4832 7.76447 14.4832C7.77095 14.4832 7.77743 14.4832 7.78391 14.4832C7.7904 14.4832 7.79688 14.4832 7.80336 14.4832C7.80984 14.4832 7.81632 14.4832 7.8228 14.4832C7.82928 14.4832 7.83576 14.4832 7.84224 14.4832C7.84872 14.4832 7.8552 14.4832 7.86168 14.4832C7.86817 14.4832 7.87465 14.4832 7.88113 14.4832C7.88761 14.4832 7.89409 14.4832 7.90057 14.4832C7.90705 14.4832 7.91353 14.4832 7.92001 14.4832C7.92649 14.4832 7.93297 14.4832 7.93945 14.4832C7.94594 14.4832 7.95242 14.4832 7.9589 14.4832C7.96538 14.4832 7.97186 14.4832 7.97834 14.4832C7.98482 14.4832 7.9913 14.4832 7.99778 14.4832C8.00426 14.4832 8.01074 14.4832 8.01722 14.4832C8.02371 14.4832 8.03019 14.4832 8.03667 14.4832C8.04315 14.4832 8.04963 14.4832 8.05611 14.4832C8.06259 14.4832 8.06907 14.4832 8.07555 14.4832C8.08203 14.4832 8.08851 14.4832 8.09499 14.4832C8.10148 14.4832 8.10796 14.4832 8.11444 14.4832C8.12092 14.4832 8.1274 14.4832 8.13388 14.4832C8.14036 14.4832 8.14684 14.4832 8.15332 14.4832C8.1598 14.4832 8.16628 14.4832 8.17276 14.4832C8.17924 14.4832 8.18573 14.4832 8.19221 14.4832C8.19869 14.4832 8.20517 14.4832 8.21165 14.4832C8.21813 14.4832 8.22461 14.4832 8.23109 14.4832C8.23757 14.4832 8.24405 14.4832 8.25053 14.4832C8.25701 14.4832 8.2635 14.4832 8.26998 14.4832C8.27646 14.4832 8.28294 14.4832 8.28942 14.4832C8.2959 14.4832 8.30238 14.4832 8.30886 14.4832C8.31534 14.4832 8.32182 14.4832 8.3283 14.4832C8.33478 14.4832 8.34127 14.4832 8.34775 14.4832C8.35423 14.4832 8.36071 14.4832 8.36719 14.4832C8.37367 14.4832 8.38015 14.4832 8.38663 14.4832C8.39311 14.4832 8.39959 14.4832 8.40607 14.4832C8.41255 14.4832 8.41904 14.4832 8.42552 14.4832C8.432 14.4832 8.43848 14.4832 8.44496 14.4832C8.45144 14.4832 8.45792 14.4832 8.4644 14.4832C8.47088 14.4832 8.47736 14.4832 8.48384 14.4832C8.49032 14.4832 8.49681 14.4832 8.50329 14.4832C8.50977 14.4832 8.51625 14.4832 8.52273 14.4832C8.52921 14.4832 8.53569 14.4832 8.54217 14.4832C8.54865 14.4832 8.55513 14.4832 8.56161 14.4832C8.56809 14.4832 8.57458 14.4832 8.58106 14.4832C8.58754 14.4832 8.59402 14.4832 8.6005 14.4832C8.60698 14.4832 8.61346 14.4832 8.61994 14.4832C8.62642 14.4832 8.6329 14.4832 8.63938 14.4832C8.64586 14.4832 8.65235 14.4832 8.65883 14.4832C8.66531 14.4832 8.67179 14.4832 8.67827 14.4832C8.68475 14.4832 8.69123 14.4832 8.69771 14.4832C8.70419 14.4832 8.71067 14.4832 8.71715 14.4832C8.72363 14.4832 8.73011 14.4832 8.7366 14.4832C8.74308 14.4832 8.74956 14.4832 8.75604 14.4832C8.76252 14.4832 8.769 14.4832 8.77548 14.4832C8.78196 14.4832 8.78844 14.4832 8.79492 14.4832C8.8014 14.4832 8.80789 14.4832 8.81437 14.4832C8.82085 14.4832 8.82733 14.4832 8.83381 14.4832C8.84029 14.4832 8.84677 14.4832 8.85325 14.4832C8.85973 14.4832 8.86621 14.4832 8.87269 14.4832C8.87917 14.4832 8.88565 14.4832 8.89214 14.4832C8.89862 14.4832 8.9051 14.4832 8.91158 14.4832C8.91806 14.4832 8.92454 14.4832 8.93102 14.4832C8.9375 14.4832 8.94398 14.4832 8.95046 14.4832C8.95694 14.4832 8.96342 14.4832 8.96991 14.4832C8.97639 14.4832 8.98287 14.4832 8.98935 14.4832C8.99583 14.4832 9.00231 14.4832 9.00879 14.4832C9.01527 14.4832 9.02175 14.4832 9.02823 14.4832C9.03471 14.4832 9.04119 14.4832 9.04768 14.4832C9.05416 14.4832 9.06064 14.4832 9.06712 14.4832C9.0736 14.4832 9.08008 14.4832 9.08656 14.4832C9.09304 14.4832 9.09952 14.4832 9.106 14.4832C9.11248 14.4832 9.11896 14.4832 9.12545 14.4832C9.13193 14.4832 9.13841 14.4832 9.14489 14.4832C9.15137 14.4832 9.15785 14.4832 9.16433 14.4832C9.17081 14.4832 9.17729 14.4832 9.18377 14.4832C9.19025 14.4832 9.19673 14.4832 9.20322 14.4832C9.2097 14.4832 9.21618 14.4832 9.22266 14.4832C9.22914 14.4832 9.23562 14.4832 9.2421 14.4832C9.24858 14.4832 9.25506 14.4832 9.26154 14.4832C9.26802 14.4832 9.2745 14.4832 9.28099 14.4832C9.28747 14.4832 9.29395 14.4832 9.30043 14.4832C9.30691 14.4832 9.31339 14.4832 9.31987 14.4832C9.32635 14.4832 9.33283 14.4832 9.33931 14.4832C9.34579 14.4832 9.35227 14.4832 9.35876 14.4832C9.36524 14.4832 9.37172 14.4832 9.3782 14.4832C9.38468 14.4832 9.39116 14.4832 9.39764 14.4832C9.40412 14.4832 9.4106 14.4832 9.41708 14.4832C9.42356 14.4832 9.43004 14.4832 9.43652 14.4832C9.44301 14.4832 9.44949 14.4832 9.45597 14.4832C9.46245 14.4832 9.46893 14.4832 9.47541 14.4832C9.48189 14.4832 9.48837 14.4832 9.49485 14.4832C9.50133 14.4832 9.50781 14.4832 9.51429 14.4832C9.52078 14.4832 9.52726 14.4832 9.53374 14.4832C9.54022 14.4832 9.5467 14.4832 9.55318 14.4832C9.55966 14.4832 9.56614 14.4832 9.57262 14.4832C9.5791 14.4832 9.58558 14.4832 9.59206 14.4832C9.59855 14.4832 9.60503 14.4832 9.61151 14.4832C9.61799 14.4832 9.62447 14.4832 9.63095 14.4832C9.63743 14.4832 9.64391 14.4832 9.65039 14.4832C9.65687 14.4832 9.66335 14.4832 9.66984 14.4832C9.67632 14.4832 9.6828 14.4832 9.68928 14.4832C9.69576 14.4832 9.70224 14.4832 9.70872 14.4832C9.7152 14.4832 9.72168 14.4832 9.72816 14.4832C9.73464 14.4832 9.74112 14.4832 9.7476 14.4832C9.75409 14.4832 9.76057 14.4832 9.76705 14.4832C9.77353 14.4832 9.78001 14.4832 9.78649 14.4832C9.79297 14.4832 9.79945 14.4832 9.80593 14.4832C9.81241 14.4832 9.81889 14.4832 9.82537 14.4832C9.83186 14.4832 9.83834 14.4832 9.84482 14.4832C9.8513 14.4832 9.85778 14.4832 9.86426 14.4832C9.87074 14.4832 9.87722 14.4832 9.8837 14.4832C9.89018 14.4832 9.89666 14.4832 9.90314 14.4832C9.90963 14.4832 9.91611 14.4832 9.92259 14.4832C9.92907 14.4832 9.93555 14.4832 9.94203 14.4832C9.94851 14.4832 9.95499 14.4832 9.96147 14.4832C9.96795 14.4832 9.97443 14.4832 9.98091 14.4832C9.9874 14.4832 9.99388 14.4832 10.0004 14.4832C10.0068 14.4832 10.0133 14.4832 10.0198 14.4832C10.0263 14.4832 10.0328 14.4832 10.0392 14.4832C10.0457 14.4832 10.0522 14.4832 10.0587 14.4832C10.0652 14.4832 10.0716 14.4832 10.0781 14.4832C10.0846 14.4832 10.0911 14.4832 10.0976 14.4832C10.104 14.4832 10.1105 14.4832 10.117 14.4832C10.1235 14.4832 10.13 14.4832 10.1365 14.4832C10.1429 14.4832 10.1494 14.4832 10.1559 14.4832C10.1624 14.4832 10.1689 14.4832 10.1753 14.4832C10.1818 14.4832 10.1883 14.4832 10.1948 14.4832C10.2013 14.4832 10.2077 14.4832 10.2142 14.4832C10.2207 14.4832 10.2272 14.4832 10.2337 14.4832C10.2401 14.4832 10.2466 14.4832 10.2531 14.4832C10.2596 14.4832 10.2661 14.4832 10.2726 14.4832C10.279 14.4832 10.2855 14.4832 10.292 14.4832C10.2985 14.4832 10.305 14.4832 10.3114 14.4832C10.3179 14.4832 10.3244 14.4832 10.3309 14.4832C10.3374 14.4832 10.3438 14.4832 10.3503 14.4832C10.3568 14.4832 10.3633 14.4832 10.3698 14.4832C10.3762 14.4832 10.3827 14.4832 10.3892 14.4832C10.3957 14.4832 10.4022 14.4832 10.4086 14.4832C10.4151 14.4832 10.4216 14.4832 10.4281 14.4832C10.4346 14.4832 10.4411 14.4832 10.4475 14.4832C10.454 14.4832 10.4605 14.4832 10.467 14.4832C10.4735 14.4832 10.4799 14.4832 10.4864 14.4832C10.4929 14.4832 10.4994 14.4832 10.5059 14.4832C10.5123 14.4832 10.5188 14.4832 10.5253 14.4832C10.5318 14.4832 10.5383 14.4832 10.5447 14.4832C10.5512 14.4832 10.5577 14.4832 10.5642 14.4832C10.5707 14.4832 10.5772 14.4832 10.5836 14.4832C10.5901 14.4832 10.5966 14.4832 10.6031 14.4832C10.6096 14.4832 10.616 14.4832 10.6225 14.4832C10.629 14.4832 10.6355 14.4832 10.642 14.4832C10.6484 14.4832 10.6549 14.4832 10.6614 14.4832C10.6679 14.4832 10.6744 14.4832 10.6808 14.4832C10.6873 14.4832 10.6938 14.4832 10.7003 14.4832C10.7068 14.4832 10.7132 14.4832 10.7197 14.4832C10.7262 14.4832 10.7327 14.4832 10.7392 14.4832C10.7457 14.4832 10.7521 14.4832 10.7586 14.4832C10.7651 14.4832 10.7716 14.4832 10.7781 14.4832C10.7845 14.4832 10.791 14.4832 10.7975 14.4832C10.804 14.4832 10.8105 14.4832 10.8169 14.4832C10.8234 14.4832 10.8299 14.4832 10.8364 14.4832C10.8429 14.4832 10.8493 14.4832 10.8558 14.4832C10.8623 14.4832 10.8688 14.4832 10.8753 14.4832C10.8817 14.4832 10.8882 14.4832 10.8947 14.4832C10.9012 14.4832 10.9077 14.4832 10.9142 14.4832C10.9206 14.4832 10.9271 14.4832 10.9336 14.4832C10.9401 14.4832 10.9466 14.4832 10.953 14.4832C10.9595 14.4832 10.966 14.4832 10.9725 14.4832C10.979 14.4832 10.9854 14.4832 10.9919 14.4832C10.9984 14.4832 11.0049 14.4832 11.0114 14.4832C11.0178 14.4832 11.0243 14.4832 11.0308 14.4832C11.0373 14.4832 11.0438 14.4832 11.0503 14.4832C11.0567 14.4832 11.0632 14.4832 11.0697 14.4832C11.0762 14.4832 11.0827 14.4832 11.0891 14.4832C11.0956 14.4832 11.1021 14.4832 11.1086 14.4832C11.1151 14.4832 11.1215 14.4832 11.128 14.4832C11.1345 14.4832 11.141 14.4832 11.1475 14.4832C11.1539 14.4832 11.1604 14.4832 11.1669 14.4832C11.1734 14.4832 11.1799 14.4832 11.1863 14.4832C11.1928 14.4832 11.1993 14.4832 11.2058 14.4832C11.2123 14.4832 11.2188 14.4832 11.2252 14.4832C11.2317 14.4832 11.2382 14.4832 11.2447 14.4832C11.2512 14.4832 11.2576 14.4832 11.2641 14.4832C11.2706 14.4832 11.2771 14.4832 11.2836 14.4832C11.29 14.4832 11.2965 14.4832 11.303 14.4832C11.3095 14.4832 11.316 14.4832 11.3224 14.4832C11.3289 14.4832 11.3354 14.4832 11.3419 14.4832C11.3484 14.4832 11.3548 14.4832 11.3613 14.4832C11.3678 14.4832 11.3743 14.4832 11.3808 14.4832C11.3873 14.4832 11.3937 14.4832 11.4002 14.4832C11.4067 14.4832 11.4132 14.4832 11.4197 14.4832C11.4261 14.4832 11.4326 14.4832 11.4391 14.4832C11.4456 14.4832 11.4521 14.4832 11.4585 14.4832C11.465 14.4832 11.4715 14.4832 11.478 14.4832C11.4845 14.4832 11.4909 14.4832 11.4974 14.4832C11.5039 14.4832 11.5104 14.4832 11.5169 14.4832C11.5234 14.4832 11.5298 14.4832 11.5363 14.4832C11.5428 14.4832 11.5493 14.4832 11.5558 14.4832C11.5622 14.4832 11.5687 14.4832 11.5752 14.4832C11.5817 14.4832 11.5882 14.4832 11.5946 14.4832C11.6011 14.4832 11.6076 14.4832 11.6141 14.4832C11.6206 14.4832 11.627 14.4832 11.6335 14.4832C11.64 14.4832 11.6465 14.4832 11.653 14.4832C11.6594 14.4832 11.6659 14.4832 11.6724 14.4832C11.6789 14.4832 11.6854 14.4832 11.6919 14.4832C11.6983 14.4832 11.7048 14.4832 11.7113 14.4832C11.7178 14.4832 11.7243 14.4832 11.7307 14.4832C11.7372 14.4832 11.7437 14.4832 11.7502 14.4832C11.7567 14.4832 11.7631 14.4832 11.7696 14.4832C11.7761 14.4832 11.7826 14.4832 11.7891 14.4832C11.7955 14.4832 11.802 14.4832 11.8085 14.4832C11.815 14.4832 11.8215 14.4832 11.8279 14.4832C11.8344 14.4832 11.8409 14.4832 11.8474 14.4832C11.8539 14.4832 11.8604 14.4832 11.8668 14.4832C11.8733 14.4832 11.8798 14.4832 11.8863 14.4832C11.8928 14.4832 11.8992 14.4832 11.9057 14.4832C11.9122 14.4832 11.9187 14.4832 11.9252 14.4832C11.9316 14.4832 11.9381 14.4832 11.9446 14.4832C11.9511 14.4832 11.9576 14.4832 11.964 14.4832C11.9705 14.4832 11.977 14.4832 11.9835 14.4832C11.99 14.4832 11.9965 14.4832 12.0029 14.4832C12.0094 14.4832 12.0159 14.4832 12.0224 14.4832C12.0289 14.4832 12.0353 14.4832 12.0418 14.4832C12.0483 14.4832 12.0548 14.4832 12.0613 14.4832C12.0677 14.4832 12.0742 14.4832 12.0807 14.4832C12.0872 14.4832 12.0937 14.4832 12.1001 14.4832C12.1066 14.4832 12.1131 14.4832 12.1196 14.4832C12.1261 14.4832 12.1325 14.4832 12.139 14.4832C12.1455 14.4832 12.152 14.4832 12.1585 14.4832C12.165 14.4832 12.1714 14.4832 12.1779 14.4832C12.1844 14.4832 12.1909 14.4832 12.1974 14.4832C12.2038 14.4832 12.2103 14.4832 12.2168 14.4832C12.2233 14.4832 12.2298 14.4832 12.2362 14.4832C12.2427 14.4832 12.2492 14.4832 12.2557 14.4832C12.2622 14.4832 12.2686 14.4832 12.2751 14.4832C12.2816 14.4832 12.2881 14.4832 12.2946 14.4832C12.3011 14.4832 12.3075 14.4832 12.314 14.4832C12.3205 14.4832 12.327 14.4832 12.3335 14.4832C12.3399 14.4832 12.3464 14.4832 12.3529 14.4832C12.3594 14.4832 12.3659 14.4832 12.3723 14.4832C12.3788 14.4832 12.3853 14.4832 12.3918 14.4832C12.3983 14.4832 12.4047 14.4832 12.4112 14.4832C12.4177 14.4832 12.4242 14.4832 12.4307 14.4832C12.4371 14.4832 12.4436 14.4832 12.4501 14.4832C12.4566 14.4832 12.4631 14.4832 12.4696 14.4832C12.476 14.4832 12.4825 14.4832 12.489 14.4832C12.4955 14.4832 12.502 14.4832 12.5084 14.4832C12.5149 14.4832 12.5214 14.4832 12.5279 14.4832C12.5344 14.4832 12.5408 14.4832 12.5473 14.4832C12.5538 14.4832 12.5603 14.4832 12.5668 14.4832C12.5732 14.4832 12.5797 14.4832 12.5862 14.4832C12.5927 14.4832 12.5992 14.4832 12.6056 14.4832C12.6121 14.4832 12.6186 14.4832 12.6251 14.4832C12.6316 14.4832 12.6381 14.4832 12.6445 14.4832C12.651 14.4832 12.6575 14.4832 12.664 14.4832C12.6705 14.4832 12.6769 14.4832 12.6834 14.4832C12.6899 14.4832 12.6964 14.4832 12.7029 14.4832C12.7093 14.4832 12.7158 14.4832 12.7223 14.4832C12.7288 14.4832 12.7353 14.4832 12.7417 14.4832C12.7482 14.4832 12.7547 14.4832 12.7612 14.4832C12.7677 14.4832 12.7741 14.4832 12.7806 14.4832C12.7871 14.4832 12.7936 14.4832 12.8001 14.4832C12.8066 14.4832 12.813 14.4832 12.8195 14.4832C12.826 14.4832 12.8325 14.4832 12.839 14.4832C12.8454 14.4832 12.8519 14.4832 12.8584 14.4832C12.8649 14.4832 12.8714 14.4832 12.8778 14.4832C12.8843 14.4832 12.8908 14.4832 12.8973 14.4832C12.9038 14.4832 12.9102 14.4832 12.9167 14.4832C12.9232 14.4832 12.9297 14.4832 12.9362 14.4832C12.9427 14.4832 12.9491 14.4832 12.9556 14.4832C12.9621 14.4832 12.9686 14.4832 12.9751 14.4832C12.9815 14.4832 12.988 14.4832 12.9945 14.4832C13.001 14.4832 13.0075 14.4832 13.0139 14.4832C13.0204 14.4832 13.0269 14.4832 13.0334 14.4832C13.0399 14.4832 13.0463 14.4832 13.0528 14.4832C13.0593 14.4832 13.0658 14.4832 13.0723 14.4832C13.0787 14.4832 13.0852 14.4832 13.0917 14.4832C13.0982 14.4832 13.1047 14.4832 13.1112 14.4832C13.1176 14.4832 13.1241 14.4832 13.1306 14.4832C13.1371 14.4832 13.1436 14.4832 13.15 14.4832C13.1565 14.4832 13.163 14.4832 13.1695 14.4832C13.176 14.4832 13.1824 14.4832 13.1889 14.4832C13.1954 14.4832 13.2019 14.4832 13.2084 14.4832C13.2148 14.4832 13.2213 14.4832 13.2278 14.4832C13.2343 14.4832 13.2408 14.4832 13.2473 14.4832C13.2537 14.4832 13.2602 14.4832 13.2667 14.4832C13.2732 14.4832 13.2797 14.4832 13.2861 14.4832C13.2926 14.4832 13.2991 14.4832 13.3056 14.4832C13.3121 14.4832 13.3185 14.4832 13.325 14.4832C13.3315 14.4832 13.338 14.4832 13.3445 14.4832C13.3509 14.4832 13.3574 14.4832 13.3639 14.4832C13.3704 14.4832 13.3769 14.4832 13.3833 14.4832C13.3898 14.4832 13.3963 14.4832 13.4028 14.4832C13.4093 14.4832 13.4158 14.4832 13.4222 14.4832C13.4287 14.4832 13.4352 14.4832 13.4417 14.4832C13.4482 14.4832 13.4546 14.4832 13.4611 14.4832C13.4676 14.4832 13.4741 14.4832 13.4806 14.4832C13.487 14.4832 13.4935 14.4832 13.5 14.4832V12.9832C13.4935 12.9832 13.487 12.9832 13.4806 12.9832C13.4741 12.9832 13.4676 12.9832 13.4611 12.9832C13.4546 12.9832 13.4482 12.9832 13.4417 12.9832C13.4352 12.9832 13.4287 12.9832 13.4222 12.9832C13.4158 12.9832 13.4093 12.9832 13.4028 12.9832C13.3963 12.9832 13.3898 12.9832 13.3833 12.9832C13.3769 12.9832 13.3704 12.9832 13.3639 12.9832C13.3574 12.9832 13.3509 12.9832 13.3445 12.9832C13.338 12.9832 13.3315 12.9832 13.325 12.9832C13.3185 12.9832 13.3121 12.9832 13.3056 12.9832C13.2991 12.9832 13.2926 12.9832 13.2861 12.9832C13.2797 12.9832 13.2732 12.9832 13.2667 12.9832C13.2602 12.9832 13.2537 12.9832 13.2473 12.9832C13.2408 12.9832 13.2343 12.9832 13.2278 12.9832C13.2213 12.9832 13.2148 12.9832 13.2084 12.9832C13.2019 12.9832 13.1954 12.9832 13.1889 12.9832C13.1824 12.9832 13.176 12.9832 13.1695 12.9832C13.163 12.9832 13.1565 12.9832 13.15 12.9832C13.1436 12.9832 13.1371 12.9832 13.1306 12.9832C13.1241 12.9832 13.1176 12.9832 13.1112 12.9832C13.1047 12.9832 13.0982 12.9832 13.0917 12.9832C13.0852 12.9832 13.0787 12.9832 13.0723 12.9832C13.0658 12.9832 13.0593 12.9832 13.0528 12.9832C13.0463 12.9832 13.0399 12.9832 13.0334 12.9832C13.0269 12.9832 13.0204 12.9832 13.0139 12.9832C13.0075 12.9832 13.001 12.9832 12.9945 12.9832C12.988 12.9832 12.9815 12.9832 12.9751 12.9832C12.9686 12.9832 12.9621 12.9832 12.9556 12.9832C12.9491 12.9832 12.9427 12.9832 12.9362 12.9832C12.9297 12.9832 12.9232 12.9832 12.9167 12.9832C12.9102 12.9832 12.9038 12.9832 12.8973 12.9832C12.8908 12.9832 12.8843 12.9832 12.8778 12.9832C12.8714 12.9832 12.8649 12.9832 12.8584 12.9832C12.8519 12.9832 12.8454 12.9832 12.839 12.9832C12.8325 12.9832 12.826 12.9832 12.8195 12.9832C12.813 12.9832 12.8066 12.9832 12.8001 12.9832C12.7936 12.9832 12.7871 12.9832 12.7806 12.9832C12.7741 12.9832 12.7677 12.9832 12.7612 12.9832C12.7547 12.9832 12.7482 12.9832 12.7417 12.9832C12.7353 12.9832 12.7288 12.9832 12.7223 12.9832C12.7158 12.9832 12.7093 12.9832 12.7029 12.9832C12.6964 12.9832 12.6899 12.9832 12.6834 12.9832C12.6769 12.9832 12.6705 12.9832 12.664 12.9832C12.6575 12.9832 12.651 12.9832 12.6445 12.9832C12.6381 12.9832 12.6316 12.9832 12.6251 12.9832C12.6186 12.9832 12.6121 12.9832 12.6056 12.9832C12.5992 12.9832 12.5927 12.9832 12.5862 12.9832C12.5797 12.9832 12.5732 12.9832 12.5668 12.9832C12.5603 12.9832 12.5538 12.9832 12.5473 12.9832C12.5408 12.9832 12.5344 12.9832 12.5279 12.9832C12.5214 12.9832 12.5149 12.9832 12.5084 12.9832C12.502 12.9832 12.4955 12.9832 12.489 12.9832C12.4825 12.9832 12.476 12.9832 12.4696 12.9832C12.4631 12.9832 12.4566 12.9832 12.4501 12.9832C12.4436 12.9832 12.4371 12.9832 12.4307 12.9832C12.4242 12.9832 12.4177 12.9832 12.4112 12.9832C12.4047 12.9832 12.3983 12.9832 12.3918 12.9832C12.3853 12.9832 12.3788 12.9832 12.3723 12.9832C12.3659 12.9832 12.3594 12.9832 12.3529 12.9832C12.3464 12.9832 12.3399 12.9832 12.3335 12.9832C12.327 12.9832 12.3205 12.9832 12.314 12.9832C12.3075 12.9832 12.3011 12.9832 12.2946 12.9832C12.2881 12.9832 12.2816 12.9832 12.2751 12.9832C12.2686 12.9832 12.2622 12.9832 12.2557 12.9832C12.2492 12.9832 12.2427 12.9832 12.2362 12.9832C12.2298 12.9832 12.2233 12.9832 12.2168 12.9832C12.2103 12.9832 12.2038 12.9832 12.1974 12.9832C12.1909 12.9832 12.1844 12.9832 12.1779 12.9832C12.1714 12.9832 12.165 12.9832 12.1585 12.9832C12.152 12.9832 12.1455 12.9832 12.139 12.9832C12.1325 12.9832 12.1261 12.9832 12.1196 12.9832C12.1131 12.9832 12.1066 12.9832 12.1001 12.9832C12.0937 12.9832 12.0872 12.9832 12.0807 12.9832C12.0742 12.9832 12.0677 12.9832 12.0613 12.9832C12.0548 12.9832 12.0483 12.9832 12.0418 12.9832C12.0353 12.9832 12.0289 12.9832 12.0224 12.9832C12.0159 12.9832 12.0094 12.9832 12.0029 12.9832C11.9965 12.9832 11.99 12.9832 11.9835 12.9832C11.977 12.9832 11.9705 12.9832 11.964 12.9832C11.9576 12.9832 11.9511 12.9832 11.9446 12.9832C11.9381 12.9832 11.9316 12.9832 11.9252 12.9832C11.9187 12.9832 11.9122 12.9832 11.9057 12.9832C11.8992 12.9832 11.8928 12.9832 11.8863 12.9832C11.8798 12.9832 11.8733 12.9832 11.8668 12.9832C11.8604 12.9832 11.8539 12.9832 11.8474 12.9832C11.8409 12.9832 11.8344 12.9832 11.8279 12.9832C11.8215 12.9832 11.815 12.9832 11.8085 12.9832C11.802 12.9832 11.7955 12.9832 11.7891 12.9832C11.7826 12.9832 11.7761 12.9832 11.7696 12.9832C11.7631 12.9832 11.7567 12.9832 11.7502 12.9832C11.7437 12.9832 11.7372 12.9832 11.7307 12.9832C11.7243 12.9832 11.7178 12.9832 11.7113 12.9832C11.7048 12.9832 11.6983 12.9832 11.6919 12.9832C11.6854 12.9832 11.6789 12.9832 11.6724 12.9832C11.6659 12.9832 11.6594 12.9832 11.653 12.9832C11.6465 12.9832 11.64 12.9832 11.6335 12.9832C11.627 12.9832 11.6206 12.9832 11.6141 12.9832C11.6076 12.9832 11.6011 12.9832 11.5946 12.9832C11.5882 12.9832 11.5817 12.9832 11.5752 12.9832C11.5687 12.9832 11.5622 12.9832 11.5558 12.9832C11.5493 12.9832 11.5428 12.9832 11.5363 12.9832C11.5298 12.9832 11.5234 12.9832 11.5169 12.9832C11.5104 12.9832 11.5039 12.9832 11.4974 12.9832C11.4909 12.9832 11.4845 12.9832 11.478 12.9832C11.4715 12.9832 11.465 12.9832 11.4585 12.9832C11.4521 12.9832 11.4456 12.9832 11.4391 12.9832C11.4326 12.9832 11.4261 12.9832 11.4197 12.9832C11.4132 12.9832 11.4067 12.9832 11.4002 12.9832C11.3937 12.9832 11.3873 12.9832 11.3808 12.9832C11.3743 12.9832 11.3678 12.9832 11.3613 12.9832C11.3548 12.9832 11.3484 12.9832 11.3419 12.9832C11.3354 12.9832 11.3289 12.9832 11.3224 12.9832C11.316 12.9832 11.3095 12.9832 11.303 12.9832C11.2965 12.9832 11.29 12.9832 11.2836 12.9832C11.2771 12.9832 11.2706 12.9832 11.2641 12.9832C11.2576 12.9832 11.2512 12.9832 11.2447 12.9832C11.2382 12.9832 11.2317 12.9832 11.2252 12.9832C11.2188 12.9832 11.2123 12.9832 11.2058 12.9832C11.1993 12.9832 11.1928 12.9832 11.1863 12.9832C11.1799 12.9832 11.1734 12.9832 11.1669 12.9832C11.1604 12.9832 11.1539 12.9832 11.1475 12.9832C11.141 12.9832 11.1345 12.9832 11.128 12.9832C11.1215 12.9832 11.1151 12.9832 11.1086 12.9832C11.1021 12.9832 11.0956 12.9832 11.0891 12.9832C11.0827 12.9832 11.0762 12.9832 11.0697 12.9832C11.0632 12.9832 11.0567 12.9832 11.0503 12.9832C11.0438 12.9832 11.0373 12.9832 11.0308 12.9832C11.0243 12.9832 11.0178 12.9832 11.0114 12.9832C11.0049 12.9832 10.9984 12.9832 10.9919 12.9832C10.9854 12.9832 10.979 12.9832 10.9725 12.9832C10.966 12.9832 10.9595 12.9832 10.953 12.9832C10.9466 12.9832 10.9401 12.9832 10.9336 12.9832C10.9271 12.9832 10.9206 12.9832 10.9142 12.9832C10.9077 12.9832 10.9012 12.9832 10.8947 12.9832C10.8882 12.9832 10.8817 12.9832 10.8753 12.9832C10.8688 12.9832 10.8623 12.9832 10.8558 12.9832C10.8493 12.9832 10.8429 12.9832 10.8364 12.9832C10.8299 12.9832 10.8234 12.9832 10.8169 12.9832C10.8105 12.9832 10.804 12.9832 10.7975 12.9832C10.791 12.9832 10.7845 12.9832 10.7781 12.9832C10.7716 12.9832 10.7651 12.9832 10.7586 12.9832C10.7521 12.9832 10.7457 12.9832 10.7392 12.9832C10.7327 12.9832 10.7262 12.9832 10.7197 12.9832C10.7132 12.9832 10.7068 12.9832 10.7003 12.9832C10.6938 12.9832 10.6873 12.9832 10.6808 12.9832C10.6744 12.9832 10.6679 12.9832 10.6614 12.9832C10.6549 12.9832 10.6484 12.9832 10.642 12.9832C10.6355 12.9832 10.629 12.9832 10.6225 12.9832C10.616 12.9832 10.6096 12.9832 10.6031 12.9832C10.5966 12.9832 10.5901 12.9832 10.5836 12.9832C10.5772 12.9832 10.5707 12.9832 10.5642 12.9832C10.5577 12.9832 10.5512 12.9832 10.5447 12.9832C10.5383 12.9832 10.5318 12.9832 10.5253 12.9832C10.5188 12.9832 10.5123 12.9832 10.5059 12.9832C10.4994 12.9832 10.4929 12.9832 10.4864 12.9832C10.4799 12.9832 10.4735 12.9832 10.467 12.9832C10.4605 12.9832 10.454 12.9832 10.4475 12.9832C10.4411 12.9832 10.4346 12.9832 10.4281 12.9832C10.4216 12.9832 10.4151 12.9832 10.4086 12.9832C10.4022 12.9832 10.3957 12.9832 10.3892 12.9832C10.3827 12.9832 10.3762 12.9832 10.3698 12.9832C10.3633 12.9832 10.3568 12.9832 10.3503 12.9832C10.3438 12.9832 10.3374 12.9832 10.3309 12.9832C10.3244 12.9832 10.3179 12.9832 10.3114 12.9832C10.305 12.9832 10.2985 12.9832 10.292 12.9832C10.2855 12.9832 10.279 12.9832 10.2726 12.9832C10.2661 12.9832 10.2596 12.9832 10.2531 12.9832C10.2466 12.9832 10.2401 12.9832 10.2337 12.9832C10.2272 12.9832 10.2207 12.9832 10.2142 12.9832C10.2077 12.9832 10.2013 12.9832 10.1948 12.9832C10.1883 12.9832 10.1818 12.9832 10.1753 12.9832C10.1689 12.9832 10.1624 12.9832 10.1559 12.9832C10.1494 12.9832 10.1429 12.9832 10.1365 12.9832C10.13 12.9832 10.1235 12.9832 10.117 12.9832C10.1105 12.9832 10.104 12.9832 10.0976 12.9832C10.0911 12.9832 10.0846 12.9832 10.0781 12.9832C10.0716 12.9832 10.0652 12.9832 10.0587 12.9832C10.0522 12.9832 10.0457 12.9832 10.0392 12.9832C10.0328 12.9832 10.0263 12.9832 10.0198 12.9832C10.0133 12.9832 10.0068 12.9832 10.0004 12.9832C9.99388 12.9832 9.9874 12.9832 9.98091 12.9832C9.97443 12.9832 9.96795 12.9832 9.96147 12.9832C9.95499 12.9832 9.94851 12.9832 9.94203 12.9832C9.93555 12.9832 9.92907 12.9832 9.92259 12.9832C9.91611 12.9832 9.90963 12.9832 9.90314 12.9832C9.89666 12.9832 9.89018 12.9832 9.8837 12.9832C9.87722 12.9832 9.87074 12.9832 9.86426 12.9832C9.85778 12.9832 9.8513 12.9832 9.84482 12.9832C9.83834 12.9832 9.83186 12.9832 9.82537 12.9832C9.81889 12.9832 9.81241 12.9832 9.80593 12.9832C9.79945 12.9832 9.79297 12.9832 9.78649 12.9832C9.78001 12.9832 9.77353 12.9832 9.76705 12.9832C9.76057 12.9832 9.75409 12.9832 9.7476 12.9832C9.74112 12.9832 9.73464 12.9832 9.72816 12.9832C9.72168 12.9832 9.7152 12.9832 9.70872 12.9832C9.70224 12.9832 9.69576 12.9832 9.68928 12.9832C9.6828 12.9832 9.67632 12.9832 9.66984 12.9832C9.66335 12.9832 9.65687 12.9832 9.65039 12.9832C9.64391 12.9832 9.63743 12.9832 9.63095 12.9832C9.62447 12.9832 9.61799 12.9832 9.61151 12.9832C9.60503 12.9832 9.59855 12.9832 9.59206 12.9832C9.58558 12.9832 9.5791 12.9832 9.57262 12.9832C9.56614 12.9832 9.55966 12.9832 9.55318 12.9832C9.5467 12.9832 9.54022 12.9832 9.53374 12.9832C9.52726 12.9832 9.52078 12.9832 9.51429 12.9832C9.50781 12.9832 9.50133 12.9832 9.49485 12.9832C9.48837 12.9832 9.48189 12.9832 9.47541 12.9832C9.46893 12.9832 9.46245 12.9832 9.45597 12.9832C9.44949 12.9832 9.44301 12.9832 9.43652 12.9832C9.43004 12.9832 9.42356 12.9832 9.41708 12.9832C9.4106 12.9832 9.40412 12.9832 9.39764 12.9832C9.39116 12.9832 9.38468 12.9832 9.3782 12.9832C9.37172 12.9832 9.36524 12.9832 9.35876 12.9832C9.35227 12.9832 9.34579 12.9832 9.33931 12.9832C9.33283 12.9832 9.32635 12.9832 9.31987 12.9832C9.31339 12.9832 9.30691 12.9832 9.30043 12.9832C9.29395 12.9832 9.28747 12.9832 9.28099 12.9832C9.2745 12.9832 9.26802 12.9832 9.26154 12.9832C9.25506 12.9832 9.24858 12.9832 9.2421 12.9832C9.23562 12.9832 9.22914 12.9832 9.22266 12.9832C9.21618 12.9832 9.2097 12.9832 9.20322 12.9832C9.19673 12.9832 9.19025 12.9832 9.18377 12.9832C9.17729 12.9832 9.17081 12.9832 9.16433 12.9832C9.15785 12.9832 9.15137 12.9832 9.14489 12.9832C9.13841 12.9832 9.13193 12.9832 9.12545 12.9832C9.11896 12.9832 9.11248 12.9832 9.106 12.9832C9.09952 12.9832 9.09304 12.9832 9.08656 12.9832C9.08008 12.9832 9.0736 12.9832 9.06712 12.9832C9.06064 12.9832 9.05416 12.9832 9.04768 12.9832C9.04119 12.9832 9.03471 12.9832 9.02823 12.9832C9.02175 12.9832 9.01527 12.9832 9.00879 12.9832C9.00231 12.9832 8.99583 12.9832 8.98935 12.9832C8.98287 12.9832 8.97639 12.9832 8.96991 12.9832C8.96342 12.9832 8.95694 12.9832 8.95046 12.9832C8.94398 12.9832 8.9375 12.9832 8.93102 12.9832C8.92454 12.9832 8.91806 12.9832 8.91158 12.9832C8.9051 12.9832 8.89862 12.9832 8.89214 12.9832C8.88565 12.9832 8.87917 12.9832 8.87269 12.9832C8.86621 12.9832 8.85973 12.9832 8.85325 12.9832C8.84677 12.9832 8.84029 12.9832 8.83381 12.9832C8.82733 12.9832 8.82085 12.9832 8.81437 12.9832C8.80789 12.9832 8.8014 12.9832 8.79492 12.9832C8.78844 12.9832 8.78196 12.9832 8.77548 12.9832C8.769 12.9832 8.76252 12.9832 8.75604 12.9832C8.74956 12.9832 8.74308 12.9832 8.7366 12.9832C8.73011 12.9832 8.72363 12.9832 8.71715 12.9832C8.71067 12.9832 8.70419 12.9832 8.69771 12.9832C8.69123 12.9832 8.68475 12.9832 8.67827 12.9832C8.67179 12.9832 8.66531 12.9832 8.65883 12.9832C8.65235 12.9832 8.64586 12.9832 8.63938 12.9832C8.6329 12.9832 8.62642 12.9832 8.61994 12.9832C8.61346 12.9832 8.60698 12.9832 8.6005 12.9832C8.59402 12.9832 8.58754 12.9832 8.58106 12.9832C8.57458 12.9832 8.56809 12.9832 8.56161 12.9832C8.55513 12.9832 8.54865 12.9832 8.54217 12.9832C8.53569 12.9832 8.52921 12.9832 8.52273 12.9832C8.51625 12.9832 8.50977 12.9832 8.50329 12.9832C8.49681 12.9832 8.49032 12.9832 8.48384 12.9832C8.47736 12.9832 8.47088 12.9832 8.4644 12.9832C8.45792 12.9832 8.45144 12.9832 8.44496 12.9832C8.43848 12.9832 8.432 12.9832 8.42552 12.9832C8.41904 12.9832 8.41255 12.9832 8.40607 12.9832C8.39959 12.9832 8.39311 12.9832 8.38663 12.9832C8.38015 12.9832 8.37367 12.9832 8.36719 12.9832C8.36071 12.9832 8.35423 12.9832 8.34775 12.9832C8.34127 12.9832 8.33478 12.9832 8.3283 12.9832C8.32182 12.9832 8.31534 12.9832 8.30886 12.9832C8.30238 12.9832 8.2959 12.9832 8.28942 12.9832C8.28294 12.9832 8.27646 12.9832 8.26998 12.9832C8.2635 12.9832 8.25701 12.9832 8.25053 12.9832C8.24405 12.9832 8.23757 12.9832 8.23109 12.9832C8.22461 12.9832 8.21813 12.9832 8.21165 12.9832C8.20517 12.9832 8.19869 12.9832 8.19221 12.9832C8.18573 12.9832 8.17924 12.9832 8.17276 12.9832C8.16628 12.9832 8.1598 12.9832 8.15332 12.9832C8.14684 12.9832 8.14036 12.9832 8.13388 12.9832C8.1274 12.9832 8.12092 12.9832 8.11444 12.9832C8.10796 12.9832 8.10148 12.9832 8.09499 12.9832C8.08851 12.9832 8.08203 12.9832 8.07555 12.9832C8.06907 12.9832 8.06259 12.9832 8.05611 12.9832C8.04963 12.9832 8.04315 12.9832 8.03667 12.9832C8.03019 12.9832 8.02371 12.9832 8.01722 12.9832C8.01074 12.9832 8.00426 12.9832 7.99778 12.9832C7.9913 12.9832 7.98482 12.9832 7.97834 12.9832C7.97186 12.9832 7.96538 12.9832 7.9589 12.9832C7.95242 12.9832 7.94594 12.9832 7.93945 12.9832C7.93297 12.9832 7.92649 12.9832 7.92001 12.9832C7.91353 12.9832 7.90705 12.9832 7.90057 12.9832C7.89409 12.9832 7.88761 12.9832 7.88113 12.9832C7.87465 12.9832 7.86817 12.9832 7.86168 12.9832C7.8552 12.9832 7.84872 12.9832 7.84224 12.9832C7.83576 12.9832 7.82928 12.9832 7.8228 12.9832C7.81632 12.9832 7.80984 12.9832 7.80336 12.9832C7.79688 12.9832 7.7904 12.9832 7.78391 12.9832C7.77743 12.9832 7.77095 12.9832 7.76447 12.9832C7.75799 12.9832 7.75151 12.9832 7.74503 12.9832C7.73855 12.9832 7.73207 12.9832 7.72559 12.9832C7.71911 12.9832 7.71263 12.9832 7.70614 12.9832C7.69966 12.9832 7.69318 12.9832 7.6867 12.9832C7.68022 12.9832 7.67374 12.9832 7.66726 12.9832C7.66078 12.9832 7.6543 12.9832 7.64782 12.9832C7.64134 12.9832 7.63486 12.9832 7.62837 12.9832C7.62189 12.9832 7.61541 12.9832 7.60893 12.9832C7.60245 12.9832 7.59597 12.9832 7.58949 12.9832C7.58301 12.9832 7.57653 12.9832 7.57005 12.9832C7.56357 12.9832 7.55709 12.9832 7.5506 12.9832C7.54412 12.9832 7.53764 12.9832 7.53116 12.9832C7.52468 12.9832 7.5182 12.9832 7.51172 12.9832C7.50524 12.9832 7.49876 12.9832 7.49228 12.9832C7.4858 12.9832 7.47932 12.9832 7.47284 12.9832C7.46635 12.9832 7.45987 12.9832 7.45339 12.9832C7.44691 12.9832 7.44043 12.9832 7.43395 12.9832C7.42747 12.9832 7.42099 12.9832 7.41451 12.9832C7.40803 12.9832 7.40155 12.9832 7.39506 12.9832C7.38858 12.9832 7.3821 12.9832 7.37562 12.9832C7.36914 12.9832 7.36266 12.9832 7.35618 12.9832C7.3497 12.9832 7.34322 12.9832 7.33674 12.9832C7.33026 12.9832 7.32378 12.9832 7.3173 12.9832C7.31081 12.9832 7.30433 12.9832 7.29785 12.9832C7.29137 12.9832 7.28489 12.9832 7.27841 12.9832C7.27193 12.9832 7.26545 12.9832 7.25897 12.9832C7.25249 12.9832 7.24601 12.9832 7.23953 12.9832C7.23304 12.9832 7.22656 12.9832 7.22008 12.9832C7.2136 12.9832 7.20712 12.9832 7.20064 12.9832C7.19416 12.9832 7.18768 12.9832 7.1812 12.9832C7.17472 12.9832 7.16824 12.9832 7.16176 12.9832C7.15527 12.9832 7.14879 12.9832 7.14231 12.9832C7.13583 12.9832 7.12935 12.9832 7.12287 12.9832C7.11639 12.9832 7.10991 12.9832 7.10343 12.9832C7.09695 12.9832 7.09047 12.9832 7.08399 12.9832C7.0775 12.9832 7.07102 12.9832 7.06454 12.9832C7.05806 12.9832 7.05158 12.9832 7.0451 12.9832C7.03862 12.9832 7.03214 12.9832 7.02566 12.9832C7.01918 12.9832 7.0127 12.9832 7.00622 12.9832C6.99973 12.9832 6.99325 12.9832 6.98677 12.9832C6.98029 12.9832 6.97381 12.9832 6.96733 12.9832C6.96085 12.9832 6.95437 12.9832 6.94789 12.9832C6.94141 12.9832 6.93493 12.9832 6.92845 12.9832C6.92196 12.9832 6.91548 12.9832 6.909 12.9832C6.90252 12.9832 6.89604 12.9832 6.88956 12.9832C6.88308 12.9832 6.8766 12.9832 6.87012 12.9832C6.86364 12.9832 6.85716 12.9832 6.85068 12.9832C6.84419 12.9832 6.83771 12.9832 6.83123 12.9832C6.82475 12.9832 6.81827 12.9832 6.81179 12.9832C6.80531 12.9832 6.79883 12.9832 6.79235 12.9832C6.78587 12.9832 6.77939 12.9832 6.77291 12.9832C6.76643 12.9832 6.75994 12.9832 6.75346 12.9832C6.74698 12.9832 6.7405 12.9832 6.73402 12.9832C6.72754 12.9832 6.72106 12.9832 6.71458 12.9832C6.7081 12.9832 6.70162 12.9832 6.69514 12.9832C6.68865 12.9832 6.68217 12.9832 6.67569 12.9832C6.66921 12.9832 6.66273 12.9832 6.65625 12.9832C6.64977 12.9832 6.64329 12.9832 6.63681 12.9832C6.63033 12.9832 6.62385 12.9832 6.61737 12.9832C6.61089 12.9832 6.6044 12.9832 6.59792 12.9832C6.59144 12.9832 6.58496 12.9832 6.57848 12.9832C6.572 12.9832 6.56552 12.9832 6.55904 12.9832C6.55256 12.9832 6.54608 12.9832 6.5396 12.9832C6.53312 12.9832 6.52663 12.9832 6.52015 12.9832C6.51367 12.9832 6.50719 12.9832 6.50071 12.9832C6.49423 12.9832 6.48775 12.9832 6.48127 12.9832C6.47479 12.9832 6.46831 12.9832 6.46183 12.9832C6.45535 12.9832 6.44886 12.9832 6.44238 12.9832C6.4359 12.9832 6.42942 12.9832 6.42294 12.9832C6.41646 12.9832 6.40998 12.9832 6.4035 12.9832C6.39702 12.9832 6.39054 12.9832 6.38406 12.9832C6.37758 12.9832 6.37109 12.9832 6.36461 12.9832C6.35813 12.9832 6.35165 12.9832 6.34517 12.9832C6.33869 12.9832 6.33221 12.9832 6.32573 12.9832C6.31925 12.9832 6.31277 12.9832 6.30629 12.9832C6.29981 12.9832 6.29332 12.9832 6.28684 12.9832C6.28036 12.9832 6.27388 12.9832 6.2674 12.9832C6.26092 12.9832 6.25444 12.9832 6.24796 12.9832C6.24148 12.9832 6.235 12.9832 6.22852 12.9832C6.22204 12.9832 6.21555 12.9832 6.20907 12.9832C6.20259 12.9832 6.19611 12.9832 6.18963 12.9832C6.18315 12.9832 6.17667 12.9832 6.17019 12.9832C6.16371 12.9832 6.15723 12.9832 6.15075 12.9832C6.14427 12.9832 6.13778 12.9832 6.1313 12.9832C6.12482 12.9832 6.11834 12.9832 6.11186 12.9832C6.10538 12.9832 6.0989 12.9832 6.09242 12.9832C6.08594 12.9832 6.07946 12.9832 6.07298 12.9832C6.0665 12.9832 6.06001 12.9832 6.05353 12.9832C6.04705 12.9832 6.04057 12.9832 6.03409 12.9832C6.02761 12.9832 6.02113 12.9832 6.01465 12.9832C6.00817 12.9832 6.00169 12.9832 5.99521 12.9832C5.98873 12.9832 5.98224 12.9832 5.97576 12.9832C5.96928 12.9832 5.9628 12.9832 5.95632 12.9832C5.94984 12.9832 5.94336 12.9832 5.93688 12.9832C5.9304 12.9832 5.92392 12.9832 5.91744 12.9832C5.91096 12.9832 5.90448 12.9832 5.89799 12.9832C5.89151 12.9832 5.88503 12.9832 5.87855 12.9832C5.87207 12.9832 5.86559 12.9832 5.85911 12.9832C5.85263 12.9832 5.84615 12.9832 5.83967 12.9832C5.83319 12.9832 5.8267 12.9832 5.82022 12.9832C5.81374 12.9832 5.80726 12.9832 5.80078 12.9832C5.7943 12.9832 5.78782 12.9832 5.78134 12.9832C5.77486 12.9832 5.76838 12.9832 5.7619 12.9832C5.75542 12.9832 5.74894 12.9832 5.74245 12.9832C5.73597 12.9832 5.72949 12.9832 5.72301 12.9832C5.71653 12.9832 5.71005 12.9832 5.70357 12.9832C5.69709 12.9832 5.69061 12.9832 5.68413 12.9832C5.67765 12.9832 5.67117 12.9832 5.66468 12.9832C5.6582 12.9832 5.65172 12.9832 5.64524 12.9832C5.63876 12.9832 5.63228 12.9832 5.6258 12.9832C5.61932 12.9832 5.61284 12.9832 5.60636 12.9832C5.59988 12.9832 5.5934 12.9832 5.58691 12.9832C5.58043 12.9832 5.57395 12.9832 5.56747 12.9832C5.56099 12.9832 5.55451 12.9832 5.54803 12.9832C5.54155 12.9832 5.53507 12.9832 5.52859 12.9832C5.52211 12.9832 5.51563 12.9832 5.50914 12.9832C5.50266 12.9832 5.49618 12.9832 5.4897 12.9832C5.48322 12.9832 5.47674 12.9832 5.47026 12.9832C5.46378 12.9832 5.4573 12.9832 5.45082 12.9832C5.44434 12.9832 5.43786 12.9832 5.43137 12.9832C5.42489 12.9832 5.41841 12.9832 5.41193 12.9832C5.40545 12.9832 5.39897 12.9832 5.39249 12.9832C5.38601 12.9832 5.37953 12.9832 5.37305 12.9832C5.36657 12.9832 5.36009 12.9832 5.35361 12.9832C5.34712 12.9832 5.34064 12.9832 5.33416 12.9832C5.32768 12.9832 5.3212 12.9832 5.31472 12.9832C5.30824 12.9832 5.30176 12.9832 5.29528 12.9832C5.2888 12.9832 5.28232 12.9832 5.27584 12.9832C5.26935 12.9832 5.26287 12.9832 5.25639 12.9832C5.24991 12.9832 5.24343 12.9832 5.23695 12.9832C5.23047 12.9832 5.22399 12.9832 5.21751 12.9832C5.21103 12.9832 5.20455 12.9832 5.19807 12.9832C5.19158 12.9832 5.1851 12.9832 5.17862 12.9832C5.17214 12.9832 5.16566 12.9832 5.15918 12.9832C5.1527 12.9832 5.14622 12.9832 5.13974 12.9832C5.13326 12.9832 5.12678 12.9832 5.1203 12.9832C5.11381 12.9832 5.10733 12.9832 5.10085 12.9832C5.09437 12.9832 5.08789 12.9832 5.08141 12.9832C5.07493 12.9832 5.06845 12.9832 5.06197 12.9832C5.05549 12.9832 5.04901 12.9832 5.04253 12.9832C5.03604 12.9832 5.02956 12.9832 5.02308 12.9832C5.0166 12.9832 5.01012 12.9832 5.00364 12.9832C4.99716 12.9832 4.99068 12.9832 4.9842 12.9832C4.97772 12.9832 4.97124 12.9832 4.96476 12.9832C4.95827 12.9832 4.95179 12.9832 4.94531 12.9832C4.93883 12.9832 4.93235 12.9832 4.92587 12.9832C4.91939 12.9832 4.91291 12.9832 4.90643 12.9832C4.89995 12.9832 4.89347 12.9832 4.88699 12.9832C4.8805 12.9832 4.87402 12.9832 4.86754 12.9832C4.86106 12.9832 4.85458 12.9832 4.8481 12.9832C4.84162 12.9832 4.83514 12.9832 4.82866 12.9832C4.82218 12.9832 4.8157 12.9832 4.80922 12.9832C4.80273 12.9832 4.79625 12.9832 4.78977 12.9832C4.78329 12.9832 4.77681 12.9832 4.77033 12.9832C4.76385 12.9832 4.75737 12.9832 4.75089 12.9832C4.74441 12.9832 4.73793 12.9832 4.73145 12.9832C4.72496 12.9832 4.71848 12.9832 4.712 12.9832C4.70552 12.9832 4.69904 12.9832 4.69256 12.9832C4.68608 12.9832 4.6796 12.9832 4.67312 12.9832C4.66664 12.9832 4.66016 12.9832 4.65368 12.9832C4.64719 12.9832 4.64071 12.9832 4.63423 12.9832C4.62775 12.9832 4.62127 12.9832 4.61479 12.9832C4.60831 12.9832 4.60183 12.9832 4.59535 12.9832C4.58887 12.9832 4.58239 12.9832 4.57591 12.9832C4.56943 12.9832 4.56294 12.9832 4.55646 12.9832C4.54998 12.9832 4.5435 12.9832 4.53702 12.9832C4.53054 12.9832 4.52406 12.9832 4.51758 12.9832C4.5111 12.9832 4.50462 12.9832 4.49814 12.9832C4.49166 12.9832 4.48517 12.9832 4.47869 12.9832C4.47221 12.9832 4.46573 12.9832 4.45925 12.9832C4.45277 12.9832 4.44629 12.9832 4.43981 12.9832C4.43333 12.9832 4.42685 12.9832 4.42037 12.9832C4.41389 12.9832 4.4074 12.9832 4.40092 12.9832C4.39444 12.9832 4.38796 12.9832 4.38148 12.9832C4.375 12.9832 4.36852 12.9832 4.36204 12.9832C4.35556 12.9832 4.34908 12.9832 4.3426 12.9832C4.33612 12.9832 4.32963 12.9832 4.32315 12.9832C4.31667 12.9832 4.31019 12.9832 4.30371 12.9832C4.29723 12.9832 4.29075 12.9832 4.28427 12.9832C4.27779 12.9832 4.27131 12.9832 4.26483 12.9832C4.25835 12.9832 4.25186 12.9832 4.24538 12.9832C4.2389 12.9832 4.23242 12.9832 4.22594 12.9832C4.21946 12.9832 4.21298 12.9832 4.2065 12.9832C4.20002 12.9832 4.19354 12.9832 4.18706 12.9832C4.18058 12.9832 4.17409 12.9832 4.16761 12.9832C4.16113 12.9832 4.15465 12.9832 4.14817 12.9832C4.14169 12.9832 4.13521 12.9832 4.12873 12.9832C4.12225 12.9832 4.11577 12.9832 4.10929 12.9832C4.10281 12.9832 4.09632 12.9832 4.08984 12.9832C4.08336 12.9832 4.07688 12.9832 4.0704 12.9832C4.06392 12.9832 4.05744 12.9832 4.05096 12.9832C4.04448 12.9832 4.038 12.9832 4.03152 12.9832C4.02504 12.9832 4.01855 12.9832 4.01207 12.9832C4.00559 12.9832 3.99911 12.9832 3.99263 12.9832C3.98615 12.9832 3.97967 12.9832 3.97319 12.9832C3.96671 12.9832 3.96023 12.9832 3.95375 12.9832C3.94727 12.9832 3.94078 12.9832 3.9343 12.9832C3.92782 12.9832 3.92134 12.9832 3.91486 12.9832C3.90838 12.9832 3.9019 12.9832 3.89542 12.9832C3.88894 12.9832 3.88246 12.9832 3.87598 12.9832C3.8695 12.9832 3.86301 12.9832 3.85653 12.9832C3.85005 12.9832 3.84357 12.9832 3.83709 12.9832C3.83061 12.9832 3.82413 12.9832 3.81765 12.9832C3.81117 12.9832 3.80469 12.9832 3.79821 12.9832C3.79173 12.9832 3.78525 12.9832 3.77876 12.9832C3.77228 12.9832 3.7658 12.9832 3.75932 12.9832C3.75284 12.9832 3.74636 12.9832 3.73988 12.9832C3.7334 12.9832 3.72692 12.9832 3.72044 12.9832C3.71396 12.9832 3.70748 12.9832 3.70099 12.9832C3.69451 12.9832 3.68803 12.9832 3.68155 12.9832C3.67507 12.9832 3.66859 12.9832 3.66211 12.9832C3.65563 12.9832 3.64915 12.9832 3.64267 12.9832C3.63619 12.9832 3.62971 12.9832 3.62322 12.9832C3.61674 12.9832 3.61026 12.9832 3.60378 12.9832C3.5973 12.9832 3.59082 12.9832 3.58434 12.9832C3.57786 12.9832 3.57138 12.9832 3.5649 12.9832C3.55842 12.9832 3.55194 12.9832 3.54545 12.9832V14.4832ZM13.5 16.9062H3.54545V18.4062H13.5V16.9062ZM13.5 18.4062C15.5711 18.4062 17.25 16.7273 17.25 14.6562H15.75C15.75 15.8989 14.7426 16.9062 13.5 16.9062V18.4062ZM4.5 0.906331C2.42893 0.906331 0.75 2.58526 0.75 4.65633H2.25C2.25 3.41369 3.25736 2.40633 4.5 2.40633V0.906331ZM13.5 2.40633C14.7426 2.40633 15.75 3.41369 15.75 4.65633H17.25C17.25 2.58526 15.5711 0.906331 13.5 0.906331V2.40633ZM7.57246 0.906331C7.57245 0.906331 7.5724 0.906331 7.57234 0.906331C7.57232 0.906331 7.57229 0.906331 7.57225 0.906331C7.57225 0.906331 7.57211 0.906331 7.57195 0.906331C7.5719 0.906331 7.57181 0.906331 7.57169 0.906331C7.57162 0.906331 7.57132 0.906332 7.57093 0.906333C7.5708 0.906333 7.57024 0.906334 7.56953 0.906337C7.56909 0.906339 7.56786 0.906346 7.56706 0.906351C7.56512 0.906368 7.55147 0.906628 7.53978 0.907048C6.8226 1.66206 7.5579 2.40619 7.56458 2.40629C7.56613 2.4063 7.56838 2.40632 7.56907 2.40632C7.57007 2.40633 7.57087 2.40633 7.57097 2.40633C7.57143 2.40633 7.57179 2.40633 7.57184 2.40633C7.57197 2.40633 7.57207 2.40633 7.57213 2.40633C7.57223 2.40633 7.57232 2.40633 7.57235 2.40633C7.57242 2.40633 7.57248 2.40633 7.5725 2.40633C7.57253 2.40633 7.57255 2.40633 7.57256 2.40633C7.57259 2.40633 7.57261 2.40633 7.57262 2.40633C7.57265 2.40633 7.57267 2.40633 7.57269 2.40633C7.57271 2.40633 7.57274 2.40633 7.57276 2.40633C7.57278 2.40633 7.5728 2.40633 7.57282 2.40633C7.57284 2.40633 7.57286 2.40633 7.57288 2.40633C7.5729 2.40633 7.57296 2.40633 7.57303 2.40633C7.57307 2.40633 7.57315 2.40633 7.57326 2.40633C7.57331 2.40633 7.57341 2.40633 7.57354 2.40633C7.5736 2.40633 7.57396 2.40633 7.57442 2.40633C7.57452 2.40633 7.57531 2.40633 7.57631 2.40632C7.577 2.40632 7.57925 2.4063 7.58081 2.40629C7.58748 2.40618 8.32263 1.66191 7.6053 0.907042C7.59361 0.906623 7.57996 0.906366 7.57802 0.90635C7.57722 0.906345 7.57599 0.906338 7.57555 0.906336C7.57484 0.906334 7.57428 0.906333 7.57415 0.906332C7.57376 0.906331 7.57346 0.906331 7.57339 0.906331C7.57327 0.906331 7.57318 0.906331 7.57313 0.906331C7.57297 0.906331 7.57283 0.906331 7.57283 0.906331C7.57279 0.906331 7.57276 0.906331 7.57274 0.906331C7.57268 0.906331 7.57263 0.906331 7.57262 0.906331V2.40633C7.57263 2.40633 7.5726 2.40633 7.57256 2.40633C7.57255 2.40633 7.57252 2.40633 7.57248 2.40633C7.57247 2.40633 7.57234 2.40633 7.57218 2.40633C7.57213 2.40633 7.57204 2.40633 7.57192 2.40633C7.57186 2.40633 7.57155 2.40633 7.57116 2.40633C7.57103 2.40633 7.57047 2.40633 7.56976 2.40633C7.56932 2.40632 7.56809 2.40632 7.56729 2.40631C7.56535 2.4063 7.5517 2.40604 7.54001 2.40562C6.82268 1.65076 7.55783 0.906477 7.5645 0.906375C7.56606 0.90636 7.56831 0.906343 7.569 0.90634C7.57 0.906335 7.57079 0.906333 7.57089 0.906333C7.57135 0.906332 7.57171 0.906331 7.57177 0.906331C7.5719 0.906331 7.572 0.906331 7.57205 0.906331C7.57216 0.906331 7.57224 0.906331 7.57227 0.906331C7.57235 0.906331 7.5724 0.906331 7.57242 0.906331C7.57244 0.906331 7.57246 0.906331 7.57247 0.906331C7.5725 0.906331 7.57251 0.906331 7.57252 0.906331C7.57253 0.906331 7.57254 0.906331 7.57254 0.906331C7.57254 0.906331 7.57255 0.906331 7.57256 0.906331C7.57257 0.906331 7.57258 0.906331 7.57261 0.906331C7.57262 0.906331 7.57264 0.906331 7.57266 0.906331C7.57268 0.906331 7.57273 0.906331 7.57281 0.906331C7.57284 0.906331 7.57292 0.906331 7.57303 0.906331C7.57308 0.906331 7.57318 0.906331 7.57331 0.906331C7.57337 0.906331 7.57373 0.906332 7.57419 0.906332C7.57429 0.906333 7.57508 0.906334 7.57608 0.906339C7.57677 0.906343 7.57902 0.906358 7.58058 0.906373C7.58725 0.906474 8.32256 1.6506 7.60538 2.40561C7.59368 2.40603 7.58004 2.40629 7.57809 2.40631C7.5773 2.40632 7.57606 2.40632 7.57563 2.40632C7.57491 2.40633 7.57435 2.40633 7.57422 2.40633C7.57383 2.40633 7.57353 2.40633 7.57347 2.40633C7.57335 2.40633 7.57326 2.40633 7.57321 2.40633C7.57304 2.40633 7.57291 2.40633 7.57291 2.40633C7.57287 2.40633 7.57284 2.40633 7.57282 2.40633C7.57278 2.40633 7.57275 2.40633 7.57277 2.40633L7.57246 0.906331ZM15.75 10.7332C15.75 11.9758 14.7426 12.9832 13.5 12.9832V14.4832C15.5711 14.4832 17.25 12.8043 17.25 10.7332H15.75ZM5.25 2.15625V13.1562H6.75V2.15625H5.25ZM13.5 0.906331H9V2.40633H13.5V0.906331ZM15.75 10.6562V14.6562H17.25V10.6562H15.75Z" fill="#A6FF42"/>
</svg>
