<svg width="20" height="17" viewBox="0 0 20 17" fill="none" xmlns="http://www.w3.org/2000/svg">
<path d="M13.5677 2.46673C14.8107 1.17776 16.8249 1.17776 18.0679 2.46673C19.3108 3.75571 19.3108 5.84458 18.0679 7.13355L12.7766 12.6208C11.5337 13.9098 9.51944 13.9098 8.27651 12.6208C7.03358 11.3318 7.03358 9.24296 8.27651 7.95398L9.06763 7.13355M6.43231 14.5332C5.18938 15.8222 3.17513 15.8222 1.9322 14.5332C0.689267 13.2443 0.689267 11.1554 1.9322 9.86641L7.22343 4.37916C8.46636 3.09019 10.4806 3.09019 11.7235 4.37916C12.9665 5.66814 12.9665 7.75701 11.7235 9.04598L10.9 9.90001" stroke="#222222" stroke-width="1.5" stroke-linecap="round" stroke-linejoin="round"/>
</svg>
