<svg width="22" height="19" viewBox="0 0 22 19" fill="none" xmlns="http://www.w3.org/2000/svg">
<path d="M5.80423 4.07743C7.33444 3.07395 9.10753 2.32838 11 2.32838C15.3005 2.32838 18.9845 6.17839 20.6029 8.1559C20.8585 8.47746 21 8.89523 21 9.3284C21 9.76157 20.8585 10.1793 20.6029 10.5009C19.7108 11.5909 18.191 13.2499 16.2864 14.5194M13.3121 15.97C12.5686 16.1969 11.7948 16.3284 11 16.3284C6.69952 16.3284 3.01559 12.4784 1.39712 10.5009C1.1415 10.1793 1 9.76157 1 9.3284C1 8.89523 1.1415 8.47746 1.39712 8.1559C1.9099 7.52936 2.63001 6.71486 3.51138 5.89441M13.1754 11.5041C14.377 10.3025 14.377 8.35427 13.1754 7.15265C11.9737 5.95105 10.0256 5.95105 8.82395 7.15265M19.6766 18.0049L2.50005 0.828369" stroke="#222222" stroke-width="1.5" stroke-linecap="round" stroke-linejoin="round"/>
</svg>
