<svg width="20" height="21" viewBox="0 0 20 21" fill="none" xmlns="http://www.w3.org/2000/svg">
<g clip-path="url(#clip0_90_8807)">
<path d="M9.99357 20.3046C9.45494 20.3046 8.95598 20.0616 8.62395 19.6371L6.62627 17.1037L3.12454 17.1015C1.40182 17.1015 0 15.6997 0 13.9765V3.78124C0 2.05807 1.40182 0.65625 3.12499 0.65625H16.875C18.5981 0.65625 20 2.05807 20 3.78124V10.0703C20 10.5018 19.6502 10.8515 19.2187 10.8515C18.7872 10.8515 18.4375 10.5018 18.4375 10.0703V3.78124C18.4375 2.91973 17.7365 2.21875 16.875 2.21875H3.12499C2.26348 2.21875 1.5625 2.91973 1.5625 3.78124V13.9765C1.5625 14.838 2.26348 15.539 3.12499 15.539L7.00591 15.5413C7.24501 15.5415 7.47084 15.6512 7.61885 15.8389L9.85289 18.672C9.89851 18.7304 9.9542 18.7422 9.99372 18.7422H9.99449C10.0339 18.742 10.09 18.7299 10.1336 18.6733C10.135 18.6715 10.1364 18.6697 10.1378 18.668L12.3536 15.8386C12.5018 15.6495 12.7286 15.539 12.9687 15.539H16.875C17.7366 15.539 18.4375 14.838 18.4375 13.9765C18.4375 13.545 18.7872 13.1953 19.2187 13.1953C19.6502 13.1953 20 13.545 20 13.9765C20 15.6997 18.5981 17.1015 16.875 17.1015H13.3493L11.3696 19.6291C11.0394 20.0564 10.5408 20.3025 10.0006 20.3046C9.9983 20.3046 9.99586 20.3046 9.99357 20.3046ZM10.7812 12.5703V8.35155C10.7812 7.92003 10.4315 7.5703 9.99998 7.5703C9.56846 7.5703 9.21873 7.92003 9.21873 8.35155V12.5703C9.21873 13.0018 9.56846 13.3515 9.99998 13.3515C10.4315 13.3515 10.7812 13.0018 10.7812 12.5703ZM9.99998 4.87499C9.56846 4.87499 9.21873 5.22472 9.21873 5.65624C9.21873 6.08776 9.56846 6.43749 9.99998 6.43749C10.4315 6.43749 10.7812 6.08776 10.7812 5.65624C10.7812 5.22472 10.4315 4.87499 9.99998 4.87499Z" fill="#222222"/>
</g>
<defs>
<clipPath id="clip0_90_8807">
<rect width="20" height="20" fill="white" transform="translate(0 0.5)"/>
</clipPath>
</defs>
</svg>
