<svg width="107" height="32" viewBox="0 0 107 32" fill="none" xmlns="http://www.w3.org/2000/svg">
<g clip-path="url(#clip0_7_874)">
<path d="M7.63736 31.9042H7.38031L7.20396 31.6881C7.14536 31.5986 7.10712 31.4965 7.09211 31.3896C7.0771 31.2827 7.0857 31.1736 7.11728 31.0706L9.69077 20.5727H6.6779C6.55413 20.5743 6.4319 20.5442 6.32221 20.4849C6.21251 20.4257 6.11878 20.3392 6.04944 20.2333C5.98009 20.1274 5.93731 20.0053 5.92492 19.8781C5.91254 19.7509 5.93094 19.6225 5.97849 19.5044L7.84359 14.4592H5.79018C5.66516 14.4621 5.54144 14.4326 5.43026 14.3735C5.31908 14.3143 5.22397 14.2274 5.15358 14.1207C5.08319 14.0139 5.03975 13.8907 5.02722 13.7621C5.01468 13.6336 5.03344 13.5039 5.0818 13.3847L9.66984 0.691579C9.74726 0.49112 9.8801 0.31864 10.0518 0.195648C10.2235 0.0726568 10.4264 0.00459628 10.6353 -4.54493e-05H20.8336C20.9612 -0.00454013 21.0878 0.0252442 21.201 0.0863976C21.3141 0.147551 21.41 0.237982 21.4792 0.348855C21.5483 0.459539 21.5885 0.586821 21.5958 0.718305C21.6031 0.84979 21.5774 0.980995 21.521 1.09914L17.9761 8.8367H19.3003C19.4293 8.82938 19.5579 8.85837 19.6723 8.92059C19.7867 8.98281 19.8825 9.07592 19.9497 9.19C20.0169 9.30409 20.0529 9.43486 20.0538 9.56839C20.0547 9.70192 20.0205 9.8332 19.9548 9.94824L16.8852 16.0154H18.4125C18.5458 16.0092 18.678 16.0422 18.7939 16.1105C18.9098 16.1788 19.0045 16.2797 19.0671 16.4013C19.1233 16.5268 19.1433 16.6663 19.1248 16.8032C19.1062 16.9401 19.0499 17.0686 18.9625 17.1732L8.16939 31.5955C8.10954 31.6856 8.03044 31.7603 7.93819 31.8139C7.84594 31.8674 7.74301 31.8983 7.63736 31.9042ZM7.09038 19.4951H10.0166C10.1388 19.4918 10.2602 19.5182 10.3707 19.5723C10.4813 19.6263 10.578 19.7065 10.6531 19.8062C10.7281 19.906 10.7794 20.0226 10.8028 20.1466C10.8262 20.2707 10.821 20.3986 10.7877 20.5202L8.66855 29.1532L17.6922 17.1115H16.3681C16.2386 17.1192 16.1095 17.0903 15.9947 17.0279C15.8798 16.9656 15.7836 16.8721 15.7163 16.7575C15.649 16.6429 15.6132 16.5116 15.6127 16.3776C15.6122 16.2436 15.6471 16.112 15.7135 15.9969L18.7832 9.92045H17.4979C17.3702 9.92643 17.2431 9.89746 17.1297 9.83646C17.0162 9.77545 16.9204 9.68459 16.8518 9.57305C16.7833 9.46151 16.7445 9.33325 16.7393 9.20124C16.7341 9.06923 16.7628 8.93815 16.8224 8.82126L20.3554 1.08371H10.6353L6.19668 13.3724H8.24112C8.3679 13.3655 8.49428 13.3921 8.60835 13.4496C8.72243 13.5072 8.82043 13.5938 8.89311 13.7013C8.96579 13.8088 9.01075 13.9337 9.02376 14.0642C9.03676 14.1946 9.01738 14.3263 8.96744 14.4469L7.09038 19.4951Z" fill="#00B83F"/>
<path d="M7.53901 32C7.46574 32.0002 7.3936 31.9813 7.32926 31.9451C7.26491 31.909 7.21042 31.8566 7.17081 31.7929C7.13121 31.7292 7.10776 31.6563 7.10263 31.5808C7.09751 31.5053 7.11086 31.4297 7.14148 31.3609L13.3585 17.3462H11.6578C11.5444 17.3509 11.4318 17.3248 11.3311 17.2706C11.2305 17.2165 11.1452 17.1361 11.0839 17.0375C11.0222 16.9377 10.9874 16.8226 10.9832 16.7043C10.979 16.5859 11.0055 16.4686 11.06 16.3644L13.5169 11.4489H12.0822C11.9713 11.4506 11.8618 11.4231 11.7641 11.3689C11.6663 11.3147 11.5836 11.2356 11.5237 11.1391C11.4639 11.0427 11.4288 10.932 11.422 10.8176C11.4151 10.7032 11.4366 10.589 11.4844 10.4856L12.3004 8.53111C12.3458 8.42609 12.4284 8.34297 12.5312 8.29877C12.634 8.25457 12.7492 8.25264 12.8534 8.29336C12.9598 8.34155 13.0436 8.43107 13.0867 8.54258C13.1298 8.65409 13.1286 8.77863 13.0835 8.88927L12.3901 10.5442H13.8846C13.9987 10.5373 14.1126 10.5626 14.214 10.6174C14.3153 10.6722 14.4003 10.7544 14.4599 10.8553C14.5195 10.9562 14.5513 11.0719 14.5521 11.19C14.5529 11.3082 14.5226 11.4244 14.4644 11.5261L12.0135 16.4416H13.6903C13.8029 16.4366 13.9149 16.4622 14.0149 16.5161C14.1148 16.5699 14.1994 16.6499 14.2599 16.7482C14.3205 16.8464 14.355 16.9594 14.3599 17.0757C14.3649 17.1921 14.3401 17.3077 14.2881 17.4111L7.93654 31.7376C7.901 31.8156 7.84481 31.8817 7.77447 31.9281C7.70412 31.9746 7.62249 31.9995 7.53901 32Z" fill="#00B83F"/>
<path d="M13.3292 7.63538C13.2696 7.63497 13.2107 7.62238 13.1558 7.59833C13.0494 7.55021 12.9657 7.4605 12.9231 7.34882C12.8806 7.23714 12.8825 7.11259 12.9286 7.00242L13.3531 5.9866C13.3758 5.93226 13.4087 5.88309 13.4499 5.8419C13.4911 5.8007 13.5397 5.76828 13.593 5.74649C13.6463 5.7247 13.7032 5.71397 13.7605 5.7149C13.8178 5.71583 13.8744 5.72842 13.927 5.75194C13.9796 5.77545 14.0272 5.80944 14.067 5.85196C14.1069 5.89448 14.1383 5.9447 14.1594 5.99975C14.1805 6.0548 14.1909 6.1136 14.19 6.1728C14.1891 6.23199 14.1769 6.29043 14.1541 6.34476L13.7327 7.36058C13.6991 7.44236 13.6429 7.51207 13.5711 7.56096C13.4993 7.60985 13.4152 7.63574 13.3292 7.63538Z" fill="#00B83F"/>
<path d="M14.4622 4.91866C14.4026 4.91825 14.3437 4.90566 14.2889 4.88161C14.2352 4.85927 14.1864 4.82612 14.1452 4.78411C14.1041 4.7421 14.0714 4.69206 14.0492 4.63689C14.0269 4.58173 14.0155 4.52255 14.0156 4.46278C14.0157 4.40302 14.0273 4.34388 14.0497 4.28879L15.6966 0.364436C15.7192 0.3099 15.752 0.26049 15.793 0.219028C15.8341 0.177566 15.8826 0.144862 15.9359 0.122786C15.9892 0.100709 16.0462 0.0896909 16.1036 0.0903608C16.161 0.0910307 16.2177 0.103375 16.2705 0.12669C16.3233 0.150005 16.3712 0.183832 16.4113 0.226242C16.4514 0.268652 16.4831 0.318813 16.5045 0.373862C16.5258 0.42891 16.5365 0.487768 16.5358 0.547075C16.5352 0.606381 16.5232 0.664975 16.5007 0.719511L14.8657 4.63151C14.834 4.7156 14.7786 4.78792 14.7067 4.83911C14.6347 4.89031 14.5496 4.91802 14.4622 4.91866Z" fill="#00B83F"/>
<path d="M8.43267 28.4584C8.37358 28.4586 8.3149 28.4482 8.25931 28.4275C5.82985 27.5568 3.72711 25.9186 2.24882 23.745C0.770532 21.5714 -0.00838431 18.9725 0.0223607 16.3163C0.0531058 13.6601 0.891954 11.0812 2.42013 8.94473C3.9483 6.80827 6.08836 5.22253 8.53728 4.41206C8.66966 4.36866 8.81332 4.38137 8.93663 4.44738C9.05995 4.51339 9.15284 4.6273 9.19485 4.76405C9.23686 4.90081 9.22457 5.0492 9.16067 5.17659C9.09677 5.30398 8.98649 5.39992 8.85411 5.44333C6.61546 6.1857 4.65948 7.63648 3.26295 9.5904C1.86642 11.5443 1.10005 13.9024 1.07229 16.331C1.04452 18.7596 1.75677 21.1358 3.10824 23.1232C4.45972 25.1106 6.38198 26.6087 8.60304 27.4055C8.72124 27.4462 8.82149 27.5292 8.88573 27.6395C8.94997 27.7498 8.97397 27.8802 8.95343 28.0072C8.93289 28.1341 8.86914 28.2493 8.77367 28.3321C8.67819 28.4148 8.55727 28.4596 8.43267 28.4584Z" fill="#00B83F"/>
<path d="M12.2733 29.1253C11.4553 29.1246 10.6394 29.0408 9.83729 28.8752C9.76782 28.8632 9.7014 28.8368 9.64197 28.7977C9.58254 28.7586 9.53132 28.7076 9.49134 28.6477C9.45137 28.5878 9.42345 28.5202 9.40924 28.4489C9.39504 28.3776 9.39484 28.3041 9.40865 28.2328C9.42247 28.1614 9.45002 28.0936 9.48967 28.0335C9.52932 27.9733 9.58027 27.922 9.63948 27.8826C9.69869 27.8431 9.76497 27.8164 9.83438 27.8039C9.90378 27.7915 9.97491 27.7935 10.0435 27.81C10.7777 27.9619 11.5246 28.0384 12.2733 28.0385C14.6976 28.0386 17.0565 27.2263 18.9958 25.7236C20.9351 24.2209 22.3503 22.1089 23.0287 19.7047C23.7072 17.3005 23.6123 14.7338 22.7584 12.39C21.9045 10.0462 20.3376 8.05177 18.293 6.70618C18.1741 6.62839 18.09 6.50498 18.0592 6.36312C18.0439 6.29288 18.0422 6.22021 18.0541 6.14928C18.066 6.07835 18.0914 6.01054 18.1287 5.94972C18.1659 5.8889 18.2145 5.83626 18.2714 5.79481C18.3284 5.75336 18.3928 5.72391 18.4608 5.70814C18.5981 5.67629 18.742 5.7021 18.8609 5.7799C21.0957 7.2519 22.8082 9.43264 23.7417 11.9951C24.6752 14.5575 24.7793 17.3635 24.0385 19.9922C23.2977 22.621 21.7518 24.9308 19.6327 26.5752C17.5137 28.2196 14.9356 29.1101 12.2852 29.113L12.2733 29.1253Z" fill="#00B83F"/>
<path d="M12.273 27.2761C11.8193 27.2771 11.366 27.2472 10.9161 27.1866C10.8701 27.1804 10.8283 27.1557 10.8 27.1177C10.7717 27.0798 10.7592 27.0318 10.7651 26.9843C10.7711 26.9368 10.795 26.8937 10.8317 26.8645C10.8685 26.8352 10.9149 26.8223 10.9609 26.8284C13.2281 27.1336 15.5285 26.6354 17.4861 25.4151C19.4437 24.1948 20.9427 22.3246 21.738 20.1103C22.5334 17.8959 22.5782 15.4684 21.865 13.2244C21.1518 10.9804 19.7228 9.05262 17.8116 7.75624C17.7922 7.74341 17.7755 7.72672 17.7624 7.70714C17.7493 7.68756 17.7401 7.66548 17.7354 7.6422C17.7307 7.61892 17.7305 7.59489 17.7348 7.57153C17.7392 7.54817 17.748 7.52594 17.7608 7.50614C17.7864 7.46633 17.8261 7.43851 17.8714 7.42869C17.9167 7.41887 17.9639 7.42784 18.0029 7.45365C19.8764 8.7326 21.3018 10.6004 22.0683 12.7808C22.8349 14.9613 22.9018 17.3387 22.2593 19.5615C21.6168 21.7843 20.2989 23.7345 18.5005 25.1238C16.7021 26.5131 14.5187 27.2677 12.273 27.2761Z" fill="#00B83F"/>
<path d="M8.82025 26.6647C8.80143 26.6676 8.78229 26.6676 8.76346 26.6647C6.80749 25.9391 5.10507 24.6281 3.87331 22.899C2.64155 21.1698 1.93628 19.1008 1.84745 16.9559C1.75863 14.811 2.29027 12.6874 3.37457 10.8559C4.45887 9.02435 6.04669 7.56796 7.93552 6.67244C7.95614 6.65467 7.98048 6.64209 8.00661 6.63569C8.03274 6.62929 8.05996 6.62925 8.08611 6.63557C8.11226 6.6419 8.13663 6.65441 8.15729 6.67212C8.17796 6.68984 8.19436 6.71227 8.2052 6.73766C8.21604 6.76304 8.22103 6.79068 8.21976 6.81839C8.21849 6.8461 8.21101 6.87313 8.1979 6.89734C8.1848 6.92156 8.16642 6.94229 8.14423 6.95792C8.12204 6.97354 8.09664 6.98363 8.07003 6.98738C6.24022 7.84927 4.70107 9.25569 3.64962 11.0266C2.59817 12.7974 2.08227 14.8522 2.16798 16.9277C2.25369 19.0033 2.93711 21.0052 4.13073 22.6771C5.32435 24.349 6.97386 25.6149 8.86808 26.3127C8.91144 26.3294 8.94671 26.3631 8.96628 26.4064C8.98586 26.4497 8.98816 26.4992 8.97269 26.5443C8.96158 26.5777 8.94119 26.6069 8.91407 26.6283C8.88696 26.6497 8.85432 26.6624 8.82025 26.6647Z" fill="#00B83F"/>
</g>
<path d="M102.145 11.4295L106.389 16.6168H103.314L99.5824 11.9626V16.6168H96.9375V2.26465H99.5824V10.8759L103.109 6.36526H106.266L102.145 11.4295Z" fill="#222222"/>
<path d="M90.9069 16.9037C89.3624 16.9037 88.0707 16.3843 87.0319 15.3455C86.0067 14.3067 85.4941 13.0218 85.4941 11.4909C85.4941 9.96004 86.0067 8.67518 87.0319 7.63636C88.0707 6.59754 89.3624 6.07812 90.9069 6.07812C91.9048 6.07812 92.8137 6.31733 93.6339 6.79573C94.454 7.27414 95.0759 7.91657 95.4996 8.72302L93.2238 10.0557C93.0188 9.63199 92.7044 9.29711 92.2807 9.05107C91.8706 8.80503 91.4059 8.68201 90.8864 8.68201C90.0937 8.68201 89.4376 8.94855 88.9182 9.48163C88.3987 10.001 88.139 10.6708 88.139 11.4909C88.139 12.2837 88.3987 12.9535 88.9182 13.5002C89.4376 14.0196 90.0937 14.2794 90.8864 14.2794C91.4195 14.2794 91.8911 14.1632 92.3012 13.9308C92.7249 13.6848 93.0393 13.3499 93.2443 12.9261L95.5406 14.2383C95.0896 15.0585 94.4471 15.7077 93.6134 16.1861C92.7932 16.6645 91.8911 16.9037 90.9069 16.9037Z" fill="#222222"/>
<path d="M82.5877 15.3455C81.5489 16.3843 80.264 16.9037 78.7331 16.9037C77.2022 16.9037 75.9174 16.3843 74.8785 15.3455C73.8397 14.3067 73.3203 13.0218 73.3203 11.4909C73.3203 9.97371 73.8397 8.69568 74.8785 7.65686C75.931 6.60437 77.2159 6.07812 78.7331 6.07812C80.2503 6.07812 81.5352 6.60437 82.5877 7.65686C83.6402 8.70935 84.1664 9.98738 84.1664 11.4909C84.1664 13.0082 83.6402 14.293 82.5877 15.3455ZM76.7443 13.5207C77.2774 14.0538 77.9403 14.3204 78.7331 14.3204C79.5259 14.3204 80.1888 14.0538 80.7219 13.5207C81.255 12.9877 81.5215 12.3111 81.5215 11.4909C81.5215 10.6708 81.255 9.99421 80.7219 9.46113C80.1888 8.92805 79.5259 8.66151 78.7331 8.66151C77.9403 8.66151 77.2774 8.92805 76.7443 9.46113C76.2249 10.0079 75.9652 10.6845 75.9652 11.4909C75.9652 12.2974 76.2249 12.974 76.7443 13.5207Z" fill="#222222"/>
<path d="M72.8285 16.6168H69.7736L66.8826 11.6346H64.7298V16.6168H61.9004V2.26465H67.6412C68.9671 2.26465 70.0948 2.72938 71.0243 3.65886C71.9537 4.58833 72.4185 5.70916 72.4185 7.02136C72.4185 7.90983 72.1656 8.73678 71.6598 9.50223C71.1541 10.254 70.4843 10.8213 69.6506 11.204L72.8285 16.6168ZM67.6412 4.90954H64.7298V9.15368H67.6412C68.1743 9.15368 68.6322 8.94865 69.015 8.53859C69.3977 8.11486 69.589 7.60912 69.589 7.02136C69.589 6.43361 69.3977 5.9347 69.015 5.52464C68.6322 5.11458 68.1743 4.90954 67.6412 4.90954Z" fill="#222222"/>
<path d="M59.7533 6.36457V8.90695H57.4365V13.1716C57.4365 13.527 57.5253 13.7867 57.703 13.9507C57.8807 14.1147 58.1404 14.2104 58.4821 14.2377C58.8238 14.2514 59.2476 14.2446 59.7533 14.2172V16.6161C57.9627 16.8211 56.6847 16.6571 55.9192 16.124C55.1675 15.5773 54.7916 14.5931 54.7916 13.1716V8.90695H53.0078V6.36457H54.7916V4.29376L57.4365 3.49414V6.36457H59.7533Z" fill="#222222"/>
<path d="M50.1373 5.13499C49.6999 5.13499 49.3172 4.9778 48.9891 4.66342C48.6748 4.33537 48.5176 3.95264 48.5176 3.51524C48.5176 3.07785 48.6748 2.69512 48.9891 2.36707C49.3172 2.03902 49.6999 1.875 50.1373 1.875C50.5884 1.875 50.9711 2.03902 51.2855 2.36707C51.6135 2.69512 51.7776 3.07785 51.7776 3.51524C51.7776 3.95264 51.6135 4.33537 51.2855 4.66342C50.9711 4.9778 50.5884 5.13499 50.1373 5.13499ZM51.47 16.6167H48.8251V6.36517H51.47V16.6167Z" fill="#222222"/>
<path d="M45.206 9.17418C46.4635 9.89862 47.0923 10.9921 47.0923 12.4547C47.0923 13.6712 46.6617 14.669 45.8006 15.4481C44.9395 16.2272 43.8801 16.6168 42.6226 16.6168H36.5332V2.26465H42.192C43.4086 2.26465 44.4406 2.64737 45.288 3.41282C46.1355 4.17827 46.5592 5.14191 46.5592 6.30375C46.5592 7.49293 46.1081 8.44974 45.206 9.17418ZM42.192 4.90954H39.3626V8.06702H42.192C42.6294 8.06702 42.9917 7.91666 43.2787 7.61595C43.5794 7.31524 43.7298 6.93935 43.7298 6.48828C43.7298 6.03721 43.5863 5.66132 43.2992 5.36061C43.0122 5.0599 42.6431 4.90954 42.192 4.90954ZM39.3626 13.9719H42.6226C43.101 13.9719 43.4974 13.8147 43.8118 13.5003C44.1262 13.1723 44.2834 12.7622 44.2834 12.2701C44.2834 11.7917 44.1262 11.3953 43.8118 11.081C43.4974 10.7529 43.101 10.5889 42.6226 10.5889H39.3626V13.9719Z" fill="#222222"/>
<path d="M103.425 28.1673C102.38 28.1673 101.522 27.8247 100.85 27.1395C100.171 26.4477 99.832 25.6091 99.832 24.6237C99.832 23.6383 100.171 22.7997 100.85 22.1079C101.522 21.4227 102.38 21.0801 103.425 21.0801C104.051 21.0801 104.629 21.2334 105.157 21.5402C105.686 21.8404 106.097 22.2482 106.391 22.7638L105.784 23.1162C105.568 22.6985 105.249 22.3657 104.824 22.1177C104.4 21.8697 103.934 21.7457 103.425 21.7457C102.563 21.7457 101.865 22.0231 101.33 22.5778C100.788 23.139 100.517 23.821 100.517 24.6237C100.517 25.4264 100.788 26.1084 101.33 26.6696C101.865 27.2243 102.563 27.5016 103.425 27.5016C103.934 27.5016 104.4 27.3777 104.824 27.1297C105.249 26.8817 105.568 26.5489 105.784 26.1312L106.391 26.4738C106.11 26.9894 105.702 27.4005 105.167 27.7072C104.632 28.0139 104.051 28.1673 103.425 28.1673Z" fill="#222222"/>
<path d="M96.5954 21.1978V27.404H99.7279V28.05H95.9102V21.1978H96.5954Z" fill="#222222"/>
<path d="M91.7985 21.1978V27.404H94.931V28.05H91.1133V21.1978H91.7985Z" fill="#222222"/>
<path d="M85.5158 27.2569L87.1016 23.1553H87.7868L85.692 28.5001C85.4962 28.996 85.2221 29.3778 84.8697 29.6454C84.5238 29.9195 84.1388 30.0402 83.7146 30.0076V29.4006C84.302 29.4724 84.749 29.1331 85.0557 28.3826L85.183 28.0791L82.9902 23.1553H83.6755L85.5158 27.2569Z" fill="#222222"/>
<path d="M81.5635 24.1149V23.1556H82.2096V27.8543C82.2096 28.5591 81.9681 29.1138 81.4852 29.5184C81.0022 29.923 80.4247 30.1253 79.7525 30.1253C78.6105 30.1253 77.8371 29.7272 77.4325 28.9311L78.0003 28.608C78.294 29.2019 78.878 29.4988 79.7525 29.4988C80.3138 29.4988 80.7543 29.352 81.074 29.0583C81.4003 28.7646 81.5635 28.3633 81.5635 27.8543V27.0907C81.1132 27.8086 80.4541 28.1675 79.5861 28.1675C78.8878 28.1675 78.2907 27.9195 77.7947 27.4235C77.3053 26.9276 77.0605 26.3207 77.0605 25.6028C77.0605 24.8849 77.3053 24.278 77.7947 23.782C78.2907 23.2861 78.8878 23.0381 79.5861 23.0381C80.4541 23.0381 81.1132 23.397 81.5635 24.1149ZM78.2646 26.983C78.6366 27.355 79.0934 27.541 79.635 27.541C80.1767 27.541 80.6335 27.355 81.0055 26.983C81.3775 26.598 81.5635 26.1379 81.5635 25.6028C81.5635 25.0611 81.3775 24.6043 81.0055 24.2323C80.6335 23.8538 80.1767 23.6646 79.635 23.6646C79.0934 23.6646 78.6366 23.8538 78.2646 24.2323C77.8926 24.6043 77.7066 25.0611 77.7066 25.6028C77.7066 26.1379 77.8926 26.598 78.2646 26.983Z" fill="#222222"/>
<path d="M75.5203 27.4333C75.0178 27.9228 74.4108 28.1675 73.6995 28.1675C72.9751 28.1675 72.3649 27.9228 71.869 27.4333C71.373 26.9374 71.125 26.3272 71.125 25.6028C71.125 24.8784 71.373 24.2715 71.869 23.782C72.3649 23.2861 72.9751 23.0381 73.6995 23.0381C74.4174 23.0381 75.0243 23.2861 75.5203 23.782C76.0228 24.2715 76.274 24.8784 76.274 25.6028C76.274 26.3207 76.0228 26.9308 75.5203 27.4333ZM72.329 26.983C72.701 27.355 73.1578 27.541 73.6995 27.541C74.2412 27.541 74.698 27.355 75.07 26.983C75.4419 26.598 75.6279 26.1379 75.6279 25.6028C75.6279 25.0611 75.4419 24.6043 75.07 24.2323C74.698 23.8538 74.2412 23.6646 73.6995 23.6646C73.1578 23.6646 72.701 23.8538 72.329 24.2323C71.9571 24.6043 71.7711 25.0611 71.7711 25.6028C71.7711 26.1379 71.9571 26.598 72.329 26.983Z" fill="#222222"/>
<path d="M70.0465 28.0498H69.4004V20.9038H70.0465V28.0498Z" fill="#222222"/>
<path d="M67.5671 27.4333C67.0646 27.9228 66.4577 28.1675 65.7464 28.1675C65.022 28.1675 64.4118 27.9228 63.9158 27.4333C63.4199 26.9374 63.1719 26.3272 63.1719 25.6028C63.1719 24.8784 63.4199 24.2715 63.9158 23.782C64.4118 23.2861 65.022 23.0381 65.7464 23.0381C66.4642 23.0381 67.0712 23.2861 67.5671 23.782C68.0696 24.2715 68.3209 24.8784 68.3209 25.6028C68.3209 26.3207 68.0696 26.9308 67.5671 27.4333ZM64.3759 26.983C64.7479 27.355 65.2047 27.541 65.7464 27.541C66.288 27.541 66.7449 27.355 67.1168 26.983C67.4888 26.598 67.6748 26.1379 67.6748 25.6028C67.6748 25.0611 67.4888 24.6043 67.1168 24.2323C66.7449 23.8538 66.288 23.6646 65.7464 23.6646C65.2047 23.6646 64.7479 23.8538 64.3759 24.2323C64.0039 24.6043 63.8179 25.0611 63.8179 25.6028C63.8179 26.1379 64.0039 26.598 64.3759 26.983Z" fill="#222222"/>
<path d="M60.2965 23.0381C60.8838 23.0381 61.3504 23.2208 61.6963 23.5863C62.0422 23.9452 62.2151 24.4314 62.2151 25.0448V28.05H61.569V25.0448C61.569 24.6076 61.4516 24.2682 61.2166 24.0268C60.9882 23.7853 60.6619 23.6646 60.2377 23.6646C59.7483 23.6646 59.36 23.8179 59.0729 24.1247C58.7922 24.4314 58.6519 24.8849 58.6519 25.4853V28.05H58.0059V23.1556H58.6519V23.9191C59.0174 23.3318 59.5656 23.0381 60.2965 23.0381Z" fill="#222222"/>
<path d="M54.8375 23.0381C55.4248 23.0381 55.8914 23.2208 56.2373 23.5863C56.5832 23.9452 56.7561 24.4314 56.7561 25.0448V28.05H56.1101V25.0448C56.1101 24.6076 55.9926 24.2682 55.7577 24.0268C55.5293 23.7853 55.203 23.6646 54.7788 23.6646C54.2893 23.6646 53.901 23.8179 53.6139 24.1247C53.3333 24.4314 53.1929 24.8849 53.1929 25.4853V28.05H52.5469V21.1978H53.1929V23.9191C53.5584 23.3318 54.1066 23.0381 54.8375 23.0381Z" fill="#222222"/>
<path d="M49.4261 28.1675C48.6886 28.1675 48.0752 27.9228 47.5857 27.4333C47.0963 26.9308 46.8516 26.3207 46.8516 25.6028C46.8516 24.8784 47.0963 24.2715 47.5857 23.782C48.0752 23.2861 48.6886 23.0381 49.4261 23.0381C49.909 23.0381 50.343 23.1556 50.728 23.3905C51.113 23.6189 51.3937 23.9289 51.5699 24.3204L51.0412 24.6239C50.9107 24.3302 50.6986 24.0986 50.405 23.9289C50.1178 23.7527 49.7915 23.6646 49.4261 23.6646C48.8844 23.6646 48.4276 23.8538 48.0556 24.2323C47.6836 24.6043 47.4976 25.0611 47.4976 25.6028C47.4976 26.1379 47.6836 26.598 48.0556 26.983C48.4276 27.355 48.8844 27.541 49.4261 27.541C49.785 27.541 50.108 27.4562 50.3952 27.2865C50.6888 27.1168 50.9173 26.8819 51.0804 26.5817L51.6188 26.8949C51.4165 27.2865 51.1196 27.5965 50.728 27.8249C50.3364 28.0533 49.9025 28.1675 49.4261 28.1675Z" fill="#222222"/>
<path d="M43.6916 23.0381C44.4226 23.0381 45.0066 23.2959 45.4439 23.8114C45.8942 24.3204 46.1193 24.9241 46.1193 25.6224C46.1193 25.655 46.1128 25.7562 46.0997 25.9258H41.8024C41.8676 26.4153 42.0765 26.8068 42.4289 27.1005C42.7813 27.3942 43.2218 27.541 43.7504 27.541C44.4943 27.541 45.0197 27.2637 45.3264 26.709L45.8942 27.0418C45.6788 27.3942 45.3819 27.6715 45.0034 27.8738C44.6314 28.0696 44.2105 28.1675 43.7406 28.1675C42.9705 28.1675 42.344 27.9261 41.8611 27.4431C41.3782 26.9602 41.1367 26.3468 41.1367 25.6028C41.1367 24.8654 41.3749 24.2552 41.8513 23.7723C42.3277 23.2828 42.9412 23.0381 43.6916 23.0381ZM43.6916 23.6646C43.1826 23.6646 42.7552 23.8147 42.4093 24.1149C42.0699 24.4151 41.8676 24.8099 41.8024 25.2993H45.4537C45.3819 24.7773 45.1828 24.3759 44.8565 24.0953C44.5172 23.8082 44.1289 23.6646 43.6916 23.6646Z" fill="#222222"/>
<path d="M36.5332 21.1978H41.4277V21.8438H39.3231V28.05H38.6378V21.8438H36.5332V21.1978Z" fill="#222222"/>
<defs>
<clipPath id="clip0_7_874">
<rect width="24.5333" height="32" fill="white"/>
</clipPath>
</defs>
</svg>
