<svg width="120" height="110" viewBox="0 0 120 110" fill="none" xmlns="http://www.w3.org/2000/svg">
<g clip-path="url(#clip0_90_8187)">
<path d="M51.3191 59.8206H50.8371L50.5064 59.4154C50.3966 59.2475 50.3249 59.0562 50.2967 58.8557C50.2686 58.6552 50.2847 58.4507 50.3439 58.2575L55.1692 38.574H49.5201C49.288 38.577 49.0588 38.5205 48.8532 38.4094C48.6475 38.2983 48.4717 38.1362 48.3417 37.9376C48.2117 37.739 48.1315 37.5102 48.1083 37.2716C48.085 37.0331 48.1195 36.7923 48.2087 36.5709L51.7058 27.1113H47.8556C47.6212 27.1166 47.3892 27.0613 47.1808 26.9504C46.9723 26.8396 46.794 26.6766 46.662 26.4764C46.53 26.2763 46.4486 26.0452 46.4251 25.8042C46.4016 25.5632 46.4367 25.3199 46.5274 25.0966L55.13 1.29689C55.2751 0.921034 55.5242 0.597633 55.8461 0.367024C56.168 0.136415 56.5485 0.00880114 56.9402 9.7888e-05H76.062C76.3013 -0.00832964 76.5387 0.0475161 76.7508 0.162179C76.963 0.276841 77.1428 0.446399 77.2725 0.654285C77.4021 0.861818 77.4774 1.10047 77.4912 1.34701C77.5049 1.59354 77.4566 1.83955 77.351 2.06108L70.7043 16.569H73.187C73.429 16.5553 73.6701 16.6096 73.8845 16.7263C74.099 16.8429 74.2788 17.0175 74.4048 17.2314C74.5307 17.4453 74.5981 17.6905 74.5998 17.9409C74.6015 18.1913 74.5374 18.4374 74.4143 18.6531L68.6587 30.029H71.5225C71.7724 30.0174 72.0204 30.0793 72.2376 30.2073C72.4548 30.3354 72.6325 30.5245 72.7499 30.7527C72.8552 30.9879 72.8928 31.2495 72.858 31.5062C72.8232 31.7628 72.7176 32.0037 72.5537 32.2L52.3166 59.2417C52.2044 59.4107 52.0561 59.5508 51.8831 59.6512C51.7102 59.7516 51.5172 59.8095 51.3191 59.8206ZM50.2935 36.5536H55.7801C56.0094 36.5473 56.2368 36.5969 56.4441 36.6982C56.6515 36.7995 56.8328 36.9498 56.9735 37.1369C57.1143 37.3239 57.2105 37.5426 57.2543 37.7751C57.2982 38.0077 57.2885 38.2476 57.226 38.4756L53.2525 54.6624L70.1719 32.0842H67.6892C67.4464 32.0987 67.2043 32.0445 66.989 31.9276C66.7737 31.8106 66.5933 31.6354 66.4671 31.4205C66.341 31.2057 66.2738 30.9594 66.2729 30.7082C66.272 30.4569 66.3373 30.2101 66.4619 29.9943L72.2175 18.601H69.8076C69.5681 18.6122 69.3299 18.5579 69.1172 18.4435C68.9044 18.3292 68.7247 18.1588 68.5962 17.9497C68.4677 17.7405 68.3949 17.5 68.3852 17.2525C68.3755 17.005 68.4293 16.7592 68.541 16.54L75.1653 2.03213H56.9402L48.6178 25.0734H52.4511C52.6888 25.0605 52.9258 25.1103 53.1397 25.2182C53.3536 25.3261 53.5373 25.4885 53.6736 25.6901C53.8099 25.8917 53.8942 26.1259 53.9186 26.3705C53.943 26.6151 53.9066 26.862 53.813 27.0881L50.2935 36.5536Z" fill="#00B83F"/>
<path d="M51.1347 59.9999C50.9973 60.0002 50.862 59.9648 50.7414 59.897C50.6207 59.8291 50.5186 59.7309 50.4443 59.6115C50.37 59.4922 50.3261 59.3554 50.3165 59.2138C50.3068 59.0722 50.3319 58.9304 50.3893 58.8015L62.0462 32.524H58.8574C58.6447 32.5327 58.4336 32.4838 58.2449 32.3823C58.0562 32.2807 57.8964 32.13 57.7814 31.9451C57.6656 31.758 57.6004 31.5423 57.5925 31.3204C57.5846 31.0984 57.6343 30.8784 57.7365 30.683L62.3432 21.4665H59.6532C59.4452 21.4698 59.2399 21.4181 59.0566 21.3165C58.8734 21.2149 58.7183 21.0666 58.606 20.8857C58.4938 20.7048 58.4281 20.4973 58.4152 20.2828C58.4023 20.0684 58.4426 19.8541 58.5323 19.6603L60.0623 15.9956C60.1474 15.7987 60.3022 15.6429 60.495 15.56C60.6877 15.4771 60.9038 15.4735 61.0991 15.5499C61.2987 15.6402 61.4558 15.8081 61.5366 16.0171C61.6173 16.2262 61.6152 16.4597 61.5306 16.6672L60.2304 19.7702H63.0326C63.2467 19.7573 63.4602 19.8047 63.6502 19.9074C63.8402 20.0102 63.9996 20.1644 64.1113 20.3535C64.223 20.5427 64.2828 20.7596 64.2843 20.9812C64.2858 21.2027 64.2289 21.4205 64.1198 21.6112L59.5243 30.8278H62.6683C62.8795 30.8184 63.0894 30.8665 63.2769 30.9674C63.4644 31.0683 63.6229 31.2184 63.7364 31.4026C63.85 31.5868 63.9147 31.7986 63.9239 32.0168C63.9332 32.235 63.8867 32.4518 63.7891 32.6456L51.88 59.5078C51.8134 59.6541 51.7081 59.778 51.5762 59.8651C51.4443 59.9521 51.2912 59.9989 51.1347 59.9999Z" fill="#00B83F"/>
<path d="M61.9905 14.3168C61.8788 14.3161 61.7683 14.2925 61.6654 14.2474C61.4659 14.1571 61.309 13.9889 61.2292 13.7795C61.1493 13.5701 61.1531 13.3366 61.2395 13.13L62.0353 11.2254C62.078 11.1235 62.1397 11.0313 62.2169 10.954C62.294 10.8768 62.3852 10.816 62.4851 10.7752C62.585 10.7343 62.6918 10.7142 62.7992 10.7159C62.9067 10.7177 63.0127 10.7413 63.1113 10.7854C63.21 10.8295 63.2992 10.8932 63.374 10.9729C63.4488 11.0526 63.5076 11.1468 63.5472 11.25C63.5867 11.3532 63.6062 11.4635 63.6045 11.5745C63.6028 11.6855 63.58 11.795 63.5373 11.8969L62.7471 13.8016C62.6841 13.9549 62.5787 14.0856 62.4441 14.1773C62.3095 14.2689 62.1517 14.3175 61.9905 14.3168Z" fill="#00B83F"/>
<path d="M64.1147 9.22231C64.003 9.22154 63.8925 9.19793 63.7896 9.15284C63.689 9.11094 63.5975 9.0488 63.5204 8.97003C63.4432 8.89126 63.382 8.79743 63.3403 8.69399C63.2986 8.59056 63.2772 8.47959 63.2773 8.36754C63.2775 8.25549 63.2993 8.14459 63.3413 8.0413L66.4293 0.683134C66.4716 0.58088 66.533 0.488237 66.61 0.410495C66.6869 0.332752 66.778 0.271434 66.8779 0.23004C66.9778 0.188646 67.0847 0.167987 67.1923 0.169243C67.2999 0.1705 67.4063 0.193646 67.5053 0.237361C67.6043 0.281075 67.694 0.344503 67.7692 0.424021C67.8445 0.50354 67.9038 0.597592 67.9439 0.700808C67.984 0.804024 68.004 0.914382 68.0028 1.02558C68.0015 1.13678 67.9791 1.24665 67.9368 1.3489L64.8713 8.68391C64.8118 8.84157 64.7079 8.97716 64.573 9.07315C64.4382 9.16914 64.2785 9.2211 64.1147 9.22231Z" fill="#00B83F"/>
<path d="M52.81 53.3597C52.6992 53.3602 52.5892 53.3406 52.485 53.3018C47.9297 51.6692 43.9871 48.5977 41.2153 44.5222C38.4435 40.4467 36.9831 35.5738 37.0407 30.5934C37.0984 25.613 38.6712 20.7775 41.5365 16.7716C44.4018 12.7657 48.4145 9.7925 53.0062 8.27286C53.2544 8.19149 53.5237 8.2153 53.755 8.33907C53.9862 8.46284 54.1603 8.67643 54.2391 8.93284C54.3179 9.18925 54.2948 9.46749 54.175 9.70635C54.0552 9.9452 53.8485 10.1251 53.6002 10.2065C49.4028 11.5984 45.7353 14.3186 43.1168 17.9822C40.4983 21.6458 39.0614 26.0673 39.0093 30.6209C38.9573 35.1745 40.2927 39.6298 42.8267 43.3562C45.3608 47.0827 48.965 49.8916 53.1295 51.3856C53.3511 51.4619 53.5391 51.6175 53.6595 51.8243C53.78 52.0312 53.825 52.2756 53.7865 52.5137C53.7479 52.7517 53.6284 52.9677 53.4494 53.1228C53.2704 53.2779 53.0437 53.3619 52.81 53.3597Z" fill="#00B83F"/>
<path d="M60.0114 54.6102C58.4778 54.6087 56.9479 54.4517 55.4439 54.1412C55.3137 54.1186 55.1891 54.0692 55.0777 53.9959C54.9663 53.9226 54.8703 53.827 54.7953 53.7146C54.7203 53.6023 54.668 53.4755 54.6414 53.3419C54.6147 53.2082 54.6143 53.0704 54.6402 52.9366C54.6662 52.8028 54.7178 52.6757 54.7922 52.5629C54.8665 52.4502 54.962 52.3539 55.073 52.28C55.1841 52.2061 55.3083 52.1559 55.4385 52.1326C55.5686 52.1092 55.702 52.1131 55.8306 52.1439C57.2072 52.4287 58.6076 52.5722 60.0114 52.5723C64.557 52.5725 68.9799 51.0495 72.6161 48.232C76.2524 45.4145 78.9058 41.4544 80.1779 36.9465C81.4499 32.4386 81.2721 27.626 79.671 23.2314C78.07 18.8368 75.1321 15.0973 71.2985 12.5743C71.0755 12.4284 70.9178 12.197 70.86 11.931C70.8314 11.7993 70.8281 11.6631 70.8505 11.5301C70.8728 11.3971 70.9203 11.2699 70.9902 11.1559C71.0602 11.0419 71.1511 10.9432 71.258 10.8654C71.3648 10.7877 71.4854 10.7325 71.6129 10.7029C71.8704 10.6432 72.1403 10.6916 72.3633 10.8375C76.5534 13.5975 79.7644 17.6864 81.5147 22.4909C83.265 27.2955 83.4603 32.5567 82.0712 37.4856C80.6822 42.4145 77.7837 46.7454 73.8104 49.8287C69.8372 52.912 65.0033 54.5816 60.0339 54.587L60.0114 54.6102Z" fill="#00B83F"/>
<path d="M60.0117 51.1426C59.1609 51.1445 58.311 51.0885 57.4674 50.9747C57.3812 50.9632 57.3029 50.9168 57.2498 50.8457C57.1968 50.7745 57.1732 50.6846 57.1843 50.5955C57.1955 50.5065 57.2404 50.4256 57.3093 50.3708C57.3781 50.316 57.4652 50.2916 57.5514 50.3032C61.8025 50.8754 66.1157 49.9412 69.7862 47.6531C73.4566 45.3651 76.2672 41.8585 77.7586 37.7067C79.2499 33.5548 79.3338 29.0031 77.9966 24.7956C76.6593 20.5881 73.9799 16.9735 70.3965 14.5428C70.3601 14.5188 70.3287 14.4875 70.3042 14.4508C70.2797 14.4141 70.2625 14.3727 70.2536 14.329C70.2447 14.2853 70.2444 14.2403 70.2525 14.1965C70.2607 14.1527 70.2772 14.111 70.3012 14.0739C70.3492 13.9992 70.4237 13.9471 70.5087 13.9287C70.5936 13.9103 70.6821 13.9271 70.7551 13.9755C74.268 16.3735 76.9407 19.8756 78.3779 23.964C79.8151 28.0523 79.9407 32.5099 78.7359 36.6777C77.5312 40.8454 75.0602 44.5021 71.6882 47.107C68.3162 49.712 64.2223 51.1269 60.0117 51.1426Z" fill="#00B83F"/>
<path d="M53.5392 49.9961C53.5039 50.0015 53.468 50.0015 53.4327 49.9961C49.7653 48.6356 46.5732 46.1775 44.2637 42.9353C41.9541 39.6931 40.6317 35.8138 40.4652 31.7921C40.2986 27.7704 41.2955 23.7886 43.3285 20.3545C45.3616 16.9204 48.3388 14.1897 51.8803 12.5106C51.919 12.4773 51.9646 12.4537 52.0136 12.4417C52.0626 12.4297 52.1136 12.4296 52.1627 12.4415C52.2117 12.4533 52.2574 12.4768 52.2962 12.51C52.3349 12.5432 52.3657 12.5853 52.386 12.6329C52.4063 12.6805 52.4156 12.7323 52.4133 12.7842C52.4109 12.8362 52.3969 12.8869 52.3723 12.9323C52.3477 12.9777 52.3133 13.0166 52.2717 13.0459C52.23 13.0751 52.1824 13.0941 52.1325 13.1011C48.7016 14.7171 45.8157 17.3542 43.8443 20.6746C41.8728 23.9949 40.9055 27.8476 41.0662 31.7392C41.2269 35.6309 42.5083 39.3844 44.7463 42.5193C46.9844 45.6542 50.0772 48.0278 53.6289 49.3361C53.7102 49.3674 53.7763 49.4305 53.813 49.5117C53.8497 49.593 53.854 49.6858 53.825 49.7703C53.8042 49.8329 53.766 49.8876 53.7151 49.9278C53.6643 49.968 53.6031 49.9917 53.5392 49.9961Z" fill="#00B83F"/>
</g>
<path d="M112.71 80.4123L120 89.323H114.717L108.307 81.328V89.323H103.764V64.6689H108.307V79.4614L114.365 71.713H119.789L112.71 80.4123Z" fill="#FAFAFA"/>
<path d="M93.4016 89.8164C90.7484 89.8164 88.5295 88.9242 86.745 87.1397C84.984 85.3552 84.1035 83.1481 84.1035 80.5183C84.1035 77.8885 84.984 75.6814 86.745 73.8969C88.5295 72.1125 90.7484 71.2202 93.4016 71.2202C95.1157 71.2202 96.6771 71.6311 98.0859 72.4529C99.4947 73.2747 100.563 74.3783 101.291 75.7636L97.3815 78.0529C97.0293 77.325 96.4892 76.7498 95.7614 76.3271C95.057 75.9045 94.2586 75.6932 93.3664 75.6932C92.0046 75.6932 90.8775 76.151 89.9853 77.0667C89.093 77.959 88.6469 79.1095 88.6469 80.5183C88.6469 81.8802 89.093 83.0307 89.9853 83.9699C90.8775 84.8621 92.0046 85.3082 93.3664 85.3082C94.2821 85.3082 95.0922 85.1087 95.7966 84.7095C96.5245 84.2869 97.0645 83.7116 97.4167 82.9837L101.361 85.2378C100.587 86.6466 99.4829 87.7619 98.0507 88.5837C96.6419 89.4055 95.0922 89.8164 93.4016 89.8164Z" fill="#FAFAFA"/>
<path d="M79.1109 87.1397C77.3264 88.9242 75.1193 89.8164 72.4895 89.8164C69.8597 89.8164 67.6526 88.9242 65.8681 87.1397C64.0836 85.3552 63.1914 83.1481 63.1914 80.5183C63.1914 77.912 64.0836 75.7166 65.8681 73.9322C67.6761 72.1242 69.8832 71.2202 72.4895 71.2202C75.0958 71.2202 77.3029 72.1242 79.1109 73.9322C80.9188 75.7401 81.8228 77.9355 81.8228 80.5183C81.8228 83.1246 80.9188 85.3317 79.1109 87.1397ZM69.0732 84.0051C69.9889 84.9208 71.1277 85.3787 72.4895 85.3787C73.8513 85.3787 74.9901 84.9208 75.9059 84.0051C76.8216 83.0894 77.2794 81.9271 77.2794 80.5183C77.2794 79.1095 76.8216 77.9472 75.9059 77.0315C74.9901 76.1158 73.8513 75.6579 72.4895 75.6579C71.1277 75.6579 69.9889 76.1158 69.0732 77.0315C68.1809 77.9707 67.7348 79.133 67.7348 80.5183C67.7348 81.9036 68.1809 83.0659 69.0732 84.0051Z" fill="#FAFAFA"/>
<path d="M62.3504 89.323H57.1026L52.1366 80.7645H48.4385V89.323H43.5781V64.6689H53.4397C55.7173 64.6689 57.6544 65.4673 59.2511 67.0639C60.8477 68.6606 61.646 70.5859 61.646 72.84C61.646 74.3662 61.2116 75.7867 60.3429 77.1016C59.4741 78.393 58.3236 79.3675 56.8913 80.0249L62.3504 89.323ZM53.4397 69.2123H48.4385V76.5029H53.4397C54.3555 76.5029 55.142 76.1507 55.7995 75.4463C56.4569 74.7184 56.7857 73.8496 56.7857 72.84C56.7857 71.8304 56.4569 70.9733 55.7995 70.2689C55.142 69.5645 54.3555 69.2123 53.4397 69.2123Z" fill="#FAFAFA"/>
<path d="M39.8882 71.713V76.0803H35.9083V83.4061C35.9083 84.0166 36.0609 84.4627 36.3662 84.7445C36.6714 85.0262 37.1175 85.1906 37.7045 85.2375C38.2915 85.261 39.0194 85.2493 39.8882 85.2023V89.3231C36.8123 89.6753 34.6169 89.3935 33.302 88.4778C32.0106 87.5386 31.3649 85.848 31.3649 83.4061V76.0803H28.3008V71.713H31.3649V68.1558L35.9083 66.7822V71.713H39.8882Z" fill="#FAFAFA"/>
<path d="M23.3683 69.6C22.617 69.6 21.9595 69.33 21.396 68.7899C20.856 68.2264 20.5859 67.569 20.5859 66.8176C20.5859 66.0662 20.856 65.4088 21.396 64.8453C21.9595 64.2818 22.617 64 23.3683 64C24.1432 64 24.8006 64.2818 25.3406 64.8453C25.9042 65.4088 26.1859 66.0662 26.1859 66.8176C26.1859 67.569 25.9042 68.2264 25.3406 68.7899C24.8006 69.33 24.1432 69.6 23.3683 69.6ZM25.6576 89.3232H21.1142V71.7132H25.6576V89.3232Z" fill="#FAFAFA"/>
<path d="M14.8981 76.5381C17.0583 77.7826 18.1383 79.661 18.1383 82.1733C18.1383 84.263 17.3987 85.9771 15.9195 87.3155C14.4402 88.6538 12.6205 89.323 10.4604 89.323H0V64.6689H9.72074C11.8105 64.6689 13.5832 65.3264 15.039 66.6413C16.4947 67.9562 17.2226 69.6115 17.2226 71.6073C17.2226 73.6501 16.4478 75.2937 14.8981 76.5381ZM9.72074 69.2123H4.86037V74.6362H9.72074C10.4721 74.6362 11.0943 74.3779 11.5874 73.8614C12.104 73.3448 12.3622 72.6991 12.3622 71.9243C12.3622 71.1494 12.1157 70.5037 11.6226 69.9872C11.1295 69.4706 10.4956 69.2123 9.72074 69.2123ZM4.86037 84.7796H10.4604C11.2822 84.7796 11.9631 84.5096 12.5031 83.9695C13.0432 83.406 13.3132 82.7016 13.3132 81.8563C13.3132 81.0345 13.0432 80.3536 12.5031 79.8136C11.9631 79.2501 11.2822 78.9683 10.4604 78.9683H4.86037V84.7796Z" fill="#FAFAFA"/>
<path d="M114.906 106.294C113.112 106.294 111.638 105.705 110.483 104.528C109.317 103.34 108.734 101.899 108.734 100.206C108.734 98.5136 109.317 97.0731 110.483 95.8848C111.638 94.7077 113.112 94.1191 114.906 94.1191C115.982 94.1191 116.974 94.3826 117.882 94.9095C118.79 95.4251 119.496 96.1258 120.001 97.0114L118.958 97.6168C118.588 96.8993 118.039 96.3276 117.31 95.9016C116.582 95.4756 115.78 95.2626 114.906 95.2626C113.426 95.2626 112.226 95.739 111.307 96.6919C110.377 97.656 109.911 98.8275 109.911 100.206C109.911 101.585 110.377 102.757 111.307 103.721C112.226 104.674 113.426 105.15 114.906 105.15C115.78 105.15 116.582 104.937 117.31 104.511C118.039 104.085 118.588 103.513 118.958 102.796L120.001 103.384C119.519 104.27 118.818 104.976 117.899 105.503C116.98 106.03 115.982 106.294 114.906 106.294Z" fill="#FAFAFA"/>
<path d="M103.177 94.3208V104.982H108.558V106.092H102V94.3208H103.177Z" fill="#FAFAFA"/>
<path d="M94.9329 94.3208V104.982H100.314V106.092H93.7559V94.3208H94.9329Z" fill="#FAFAFA"/>
<path d="M84.1431 104.73L86.8672 97.6841H88.0443L84.4458 106.865C84.1094 107.717 83.6386 108.373 83.0333 108.833C82.4391 109.304 81.7777 109.511 81.049 109.455V108.412C82.058 108.536 82.8259 107.953 83.3527 106.664L83.5714 106.142L79.8047 97.6841H80.9818L84.1431 104.73Z" fill="#FAFAFA"/>
<path d="M77.3523 99.3321V97.6842H78.4621V105.756C78.4621 106.966 78.0473 107.919 77.2178 108.614C76.3882 109.309 75.3961 109.657 74.2414 109.657C72.2796 109.657 70.9512 108.973 70.2562 107.605L71.2315 107.05C71.7359 108.071 72.7393 108.581 74.2414 108.581C75.2055 108.581 75.9622 108.328 76.5115 107.824C77.072 107.319 77.3523 106.63 77.3523 105.756V104.444C76.5788 105.677 75.4465 106.294 73.9556 106.294C72.7561 106.294 71.7303 105.868 70.8783 105.016C70.0376 104.164 69.6172 103.121 69.6172 101.888C69.6172 100.655 70.0376 99.6124 70.8783 98.7604C71.7303 97.9084 72.7561 97.4824 73.9556 97.4824C75.4465 97.4824 76.5788 98.099 77.3523 99.3321ZM71.6855 104.259C72.3245 104.898 73.1092 105.218 74.0397 105.218C74.9701 105.218 75.7548 104.898 76.3938 104.259C77.0328 103.598 77.3523 102.807 77.3523 101.888C77.3523 100.958 77.0328 100.173 76.3938 99.5339C75.7548 98.8837 74.9701 98.5586 74.0397 98.5586C73.1092 98.5586 72.3245 98.8837 71.6855 99.5339C71.0465 100.173 70.727 100.958 70.727 101.888C70.727 102.807 71.0465 103.598 71.6855 104.259Z" fill="#FAFAFA"/>
<path d="M66.9701 105.033C66.1069 105.873 65.0643 106.294 63.8424 106.294C62.598 106.294 61.5499 105.873 60.6979 105.033C59.8459 104.181 59.4199 103.132 59.4199 101.888C59.4199 100.644 59.8459 99.6012 60.6979 98.7604C61.5499 97.9084 62.598 97.4824 63.8424 97.4824C65.0755 97.4824 66.1181 97.9084 66.9701 98.7604C67.8333 99.6012 68.2649 100.644 68.2649 101.888C68.2649 103.121 67.8333 104.169 66.9701 105.033ZM61.4882 104.259C62.1272 104.898 62.9119 105.218 63.8424 105.218C64.7728 105.218 65.5576 104.898 66.1966 104.259C66.8355 103.598 67.155 102.807 67.155 101.888C67.155 100.958 66.8355 100.173 66.1966 99.5339C65.5576 98.8837 64.7728 98.5586 63.8424 98.5586C62.9119 98.5586 62.1272 98.8837 61.4882 99.5339C60.8492 100.173 60.5297 100.958 60.5297 101.888C60.5297 102.807 60.8492 103.598 61.4882 104.259Z" fill="#FAFAFA"/>
<path d="M57.5688 106.092H56.459V93.8164H57.5688V106.092Z" fill="#FAFAFA"/>
<path d="M53.308 105.033C52.4448 105.873 51.4022 106.294 50.1803 106.294C48.9359 106.294 47.8878 105.873 47.0358 105.033C46.1838 104.181 45.7578 103.132 45.7578 101.888C45.7578 100.644 46.1838 99.6012 47.0358 98.7604C47.8878 97.9084 48.9359 97.4824 50.1803 97.4824C51.4134 97.4824 52.456 97.9084 53.308 98.7604C54.1712 99.6012 54.6027 100.644 54.6027 101.888C54.6027 103.121 54.1712 104.169 53.308 105.033ZM47.8261 104.259C48.4651 104.898 49.2498 105.218 50.1803 105.218C51.1107 105.218 51.8955 104.898 52.5344 104.259C53.1734 103.598 53.4929 102.807 53.4929 101.888C53.4929 100.958 53.1734 100.173 52.5344 99.5339C51.8955 98.8837 51.1107 98.5586 50.1803 98.5586C49.2498 98.5586 48.4651 98.8837 47.8261 99.5339C47.1871 100.173 46.8676 100.958 46.8676 101.888C46.8676 102.807 47.1871 103.598 47.8261 104.259Z" fill="#FAFAFA"/>
<path d="M40.8196 97.4824C41.8285 97.4824 42.6301 97.7963 43.2242 98.4241C43.8183 99.0407 44.1154 99.8758 44.1154 100.93V106.092H43.0056V100.93C43.0056 100.179 42.8038 99.5956 42.4002 99.1808C42.0079 98.766 41.4474 98.5586 40.7187 98.5586C39.8779 98.5586 39.2109 98.8221 38.7177 99.3489C38.2356 99.8758 37.9946 100.655 37.9946 101.686V106.092H36.8848V97.6842H37.9946V98.9958C38.6224 97.9869 39.564 97.4824 40.8196 97.4824Z" fill="#FAFAFA"/>
<path d="M31.4446 97.4821C32.4535 97.4821 33.255 97.796 33.8492 98.4238C34.4433 99.0403 34.7404 99.8755 34.7404 100.929V106.092H33.6306V100.929C33.6306 100.178 33.4288 99.5953 33.0252 99.1805C32.6329 98.7657 32.0724 98.5583 31.3437 98.5583C30.5029 98.5583 29.8359 98.8217 29.3427 99.3486C28.8606 99.8755 28.6196 100.655 28.6196 101.686V106.092H27.5098V94.3208H28.6196V98.9955C29.2474 97.9866 30.189 97.4821 31.4446 97.4821Z" fill="#FAFAFA"/>
<path d="M22.149 106.294C20.8823 106.294 19.8285 105.873 18.9877 105.033C18.1469 104.169 17.7266 103.121 17.7266 101.888C17.7266 100.644 18.1469 99.6012 18.9877 98.7604C19.8285 97.9084 20.8823 97.4824 22.149 97.4824C22.9786 97.4824 23.7241 97.6842 24.3855 98.0878C25.0469 98.4801 25.5289 99.0126 25.8316 99.6852L24.9236 100.207C24.6994 99.7021 24.335 99.3041 23.8306 99.0126C23.3373 98.71 22.7768 98.5586 22.149 98.5586C21.2186 98.5586 20.4339 98.8837 19.7949 99.5339C19.1559 100.173 18.8364 100.958 18.8364 101.888C18.8364 102.807 19.1559 103.598 19.7949 104.259C20.4339 104.898 21.2186 105.218 22.149 105.218C22.7656 105.218 23.3205 105.072 23.8138 104.78C24.3182 104.489 24.7106 104.085 24.9908 103.57L25.9157 104.108C25.5682 104.78 25.0581 105.313 24.3855 105.705C23.7129 106.098 22.9674 106.294 22.149 106.294Z" fill="#FAFAFA"/>
<path d="M12.2951 97.4824C13.5506 97.4824 14.554 97.9252 15.3051 98.8108C16.0786 99.6852 16.4653 100.722 16.4653 101.922C16.4653 101.978 16.4541 102.152 16.4317 102.443H9.0497C9.1618 103.284 9.52053 103.956 10.1259 104.461C10.7312 104.965 11.4879 105.218 12.396 105.218C13.674 105.218 14.5764 104.741 15.1033 103.788L16.0786 104.36C15.7086 104.965 15.1986 105.442 14.5484 105.789C13.9094 106.126 13.1863 106.294 12.3792 106.294C11.0563 106.294 9.98016 105.879 9.15059 105.049C8.32103 104.22 7.90625 103.166 7.90625 101.888C7.90625 100.621 8.31543 99.5731 9.13378 98.7436C9.95213 97.9028 11.0059 97.4824 12.2951 97.4824ZM12.2951 98.5586C11.4207 98.5586 10.6864 98.8164 10.0923 99.3321C9.50932 99.8478 9.1618 100.526 9.0497 101.367H15.3219C15.1986 100.47 14.8566 99.7805 14.2961 99.2985C13.7132 98.8052 13.0462 98.5586 12.2951 98.5586Z" fill="#FAFAFA"/>
<path d="M0 94.3208H8.40773V95.4306H4.79241V106.092H3.61532V95.4306H0V94.3208Z" fill="#FAFAFA"/>
<defs>
<clipPath id="clip0_90_8187">
<rect width="46" height="60" fill="white" transform="translate(37)"/>
</clipPath>
</defs>
</svg>
