<svg width="120" height="111" viewBox="0 0 120 111" fill="none" xmlns="http://www.w3.org/2000/svg">
<g clip-path="url(#clip0_90_5933)">
<path d="M51.3191 60.4923H50.8371L50.5064 60.0871C50.3966 59.9192 50.3249 59.7279 50.2967 59.5274C50.2686 59.3269 50.2847 59.1224 50.3439 58.9292L55.1692 39.2457H49.5201C49.288 39.2487 49.0588 39.1922 48.8532 39.0811C48.6475 38.97 48.4717 38.8079 48.3417 38.6093C48.2117 38.4107 48.1315 38.1818 48.1083 37.9433C48.085 37.7047 48.1195 37.464 48.2087 37.2426L51.7058 27.7829H47.8556C47.6212 27.7883 47.3892 27.733 47.1808 27.6221C46.9723 27.5113 46.794 27.3483 46.662 27.1481C46.53 26.9479 46.4486 26.7168 46.4251 26.4759C46.4016 26.2349 46.4367 25.9916 46.5274 25.7683L55.13 1.96859C55.2751 1.59273 55.5242 1.26933 55.8461 1.03872C56.168 0.808106 56.5485 0.680493 56.9402 0.67179H76.062C76.3013 0.663362 76.5387 0.719208 76.7508 0.833871C76.963 0.948533 77.1428 1.11809 77.2725 1.32598C77.4021 1.53351 77.4774 1.77216 77.4912 2.0187C77.5049 2.26523 77.4566 2.51124 77.351 2.73277L70.7043 17.2407H73.187C73.429 17.227 73.6701 17.2813 73.8845 17.398C74.099 17.5146 74.2788 17.6892 74.4048 17.9031C74.5307 18.117 74.5981 18.3622 74.5998 18.6126C74.6015 18.863 74.5374 19.1091 74.4143 19.3248L68.6587 30.7007H71.5225C71.7724 30.6891 72.0204 30.7509 72.2376 30.879C72.4548 31.0071 72.6325 31.1962 72.7499 31.4244C72.8552 31.6596 72.8928 31.9212 72.858 32.1779C72.8232 32.4345 72.7176 32.6754 72.5537 32.8717L52.3166 59.9134C52.2044 60.0824 52.0561 60.2225 51.8831 60.3229C51.7102 60.4233 51.5172 60.4812 51.3191 60.4923ZM50.2935 37.2252H55.7801C56.0094 37.219 56.2368 37.2686 56.4441 37.3699C56.6515 37.4712 56.8328 37.6215 56.9735 37.8086C57.1143 37.9956 57.2105 38.2143 57.2543 38.4468C57.2982 38.6794 57.2885 38.9193 57.226 39.1473L53.2525 55.3341L70.1719 32.7559H67.6892C67.4464 32.7703 67.2043 32.7162 66.989 32.5993C66.7737 32.4823 66.5933 32.307 66.4671 32.0922C66.341 31.8774 66.2738 31.6311 66.2729 31.3799C66.272 31.1286 66.3373 30.8818 66.4619 30.666L72.2175 19.2727H69.8076C69.5681 19.2839 69.3299 19.2296 69.1172 19.1152C68.9044 19.0009 68.7247 18.8305 68.5962 18.6213C68.4677 18.4122 68.3949 18.1717 68.3852 17.9242C68.3755 17.6767 68.4293 17.4309 68.541 17.2117L75.1653 2.70382H56.9402L48.6178 25.7451H52.4511C52.6888 25.7322 52.9258 25.782 53.1397 25.8899C53.3536 25.9978 53.5373 26.1602 53.6736 26.3618C53.8099 26.5634 53.8942 26.7976 53.9186 27.0422C53.943 27.2867 53.9066 27.5337 53.813 27.7598L50.2935 37.2252Z" fill="#00B83F"/>
<path d="M51.1347 60.6717C50.9973 60.6721 50.862 60.6367 50.7414 60.5688C50.6207 60.5009 50.5186 60.4028 50.4443 60.2834C50.37 60.164 50.3261 60.0272 50.3165 59.8856C50.3068 59.7441 50.3319 59.6023 50.3893 59.4734L62.0462 33.1959H58.8574C58.6447 33.2045 58.4336 33.1557 58.2449 33.0541C58.0562 32.9526 57.8964 32.8019 57.7814 32.6169C57.6656 32.4298 57.6004 32.2141 57.5925 31.9922C57.5846 31.7703 57.6343 31.5502 57.7365 31.3549L62.3432 22.1384H59.6532C59.4452 22.1416 59.2399 22.09 59.0566 21.9883C58.8734 21.8867 58.7183 21.7384 58.606 21.5575C58.4938 21.3766 58.4281 21.1691 58.4152 20.9547C58.4023 20.7402 58.4426 20.5259 58.5323 20.3321L60.0623 16.6675C60.1474 16.4706 60.3022 16.3147 60.495 16.2319C60.6877 16.149 60.9038 16.1454 61.0991 16.2217C61.2987 16.3121 61.4558 16.4799 61.5366 16.689C61.6173 16.8981 61.6152 17.1316 61.5306 17.339L60.2304 20.4421H63.0326C63.2467 20.4291 63.4602 20.4765 63.6502 20.5793C63.8402 20.682 63.9996 20.8362 64.1113 21.0254C64.223 21.2145 64.2828 21.4315 64.2843 21.653C64.2858 21.8746 64.2289 22.0924 64.1198 22.2831L59.5243 31.4996H62.6683C62.8795 31.4902 63.0894 31.5384 63.2769 31.6393C63.4644 31.7402 63.6229 31.8903 63.7364 32.0745C63.85 32.2587 63.9147 32.4705 63.9239 32.6887C63.9332 32.9068 63.8867 33.1237 63.7891 33.3174L51.88 60.1796C51.8134 60.326 51.7081 60.4498 51.5762 60.5369C51.4443 60.624 51.2912 60.6707 51.1347 60.6717Z" fill="#00B83F"/>
<path d="M61.9905 14.9886C61.8788 14.9878 61.7683 14.9642 61.6654 14.9191C61.4659 14.8289 61.309 14.6607 61.2292 14.4513C61.1493 14.2419 61.1531 14.0084 61.2395 13.8018L62.0353 11.8971C62.078 11.7953 62.1397 11.7031 62.2169 11.6258C62.294 11.5486 62.3852 11.4878 62.4851 11.4469C62.585 11.4061 62.6918 11.386 62.7992 11.3877C62.9067 11.3895 63.0127 11.4131 63.1113 11.4572C63.21 11.5012 63.2992 11.565 63.374 11.6447C63.4488 11.7244 63.5076 11.8186 63.5472 11.9218C63.5867 12.025 63.6062 12.1353 63.6045 12.2463C63.6028 12.3573 63.58 12.4668 63.5373 12.5687L62.7471 14.4734C62.6841 14.6267 62.5787 14.7574 62.4441 14.8491C62.3095 14.9407 62.1517 14.9893 61.9905 14.9886Z" fill="#00B83F"/>
<path d="M64.1147 9.89406C64.003 9.8933 63.8925 9.86969 63.7896 9.82459C63.689 9.7827 63.5975 9.72055 63.5204 9.64178C63.4432 9.56301 63.382 9.46918 63.3403 9.36575C63.2986 9.26231 63.2772 9.15134 63.2773 9.03929C63.2775 8.92724 63.2993 8.81634 63.3413 8.71305L66.4293 1.35489C66.4716 1.25263 66.533 1.15999 66.61 1.08225C66.6869 1.00451 66.778 0.943187 66.8779 0.901793C66.9778 0.860399 67.0847 0.83974 67.1923 0.840996C67.2999 0.842252 67.4063 0.865399 67.5053 0.909114C67.6043 0.952828 67.694 1.01626 67.7692 1.09577C67.8445 1.17529 67.9038 1.26934 67.9439 1.37256C67.984 1.47578 68.004 1.58614 68.0028 1.69734C68.0015 1.80854 67.9791 1.9184 67.9368 2.02065L64.8713 9.35566C64.8118 9.51332 64.7079 9.64892 64.573 9.74491C64.4382 9.84089 64.2785 9.89285 64.1147 9.89406Z" fill="#00B83F"/>
<path d="M52.81 54.0315C52.6992 54.0319 52.5892 54.0123 52.485 53.9736C47.9297 52.341 43.9871 49.2694 41.2153 45.194C38.4435 41.1185 36.9831 36.2455 37.0407 31.2651C37.0984 26.2847 38.6712 21.4492 41.5365 17.4434C44.4018 13.4375 48.4145 10.4642 53.0062 8.94462C53.2544 8.86324 53.5237 8.88706 53.755 9.01083C53.9862 9.1346 54.1603 9.34818 54.2391 9.60459C54.3179 9.86101 54.2948 10.1392 54.175 10.3781C54.0552 10.617 53.8485 10.7969 53.6002 10.8782C49.4028 12.2702 45.7353 14.9904 43.1168 18.654C40.4983 22.3176 39.0614 26.739 39.0093 31.2927C38.9573 35.8463 40.2927 40.3015 42.8267 44.028C45.3608 47.7544 48.965 50.5634 53.1295 52.0573C53.3511 52.1337 53.5391 52.2893 53.6595 52.4961C53.78 52.7029 53.825 52.9474 53.7865 53.1854C53.7479 53.4235 53.6284 53.6395 53.4494 53.7946C53.2704 53.9497 53.0437 54.0337 52.81 54.0315Z" fill="#00B83F"/>
<path d="M60.0114 55.2819C58.4778 55.2805 56.9479 55.1234 55.4439 54.813C55.3137 54.7904 55.1891 54.741 55.0777 54.6677C54.9663 54.5944 54.8703 54.4987 54.7953 54.3864C54.7203 54.274 54.668 54.1473 54.6414 54.0136C54.6147 53.88 54.6143 53.7421 54.6402 53.6083C54.6662 53.4745 54.7178 53.3475 54.7922 53.2347C54.8665 53.1219 54.962 53.0257 55.073 52.9518C55.1841 52.8778 55.3083 52.8277 55.4385 52.8043C55.5686 52.7809 55.702 52.7848 55.8306 52.8157C57.2072 53.1005 58.6076 53.244 60.0114 53.2441C64.557 53.2443 68.9799 51.7213 72.6161 48.9037C76.2524 46.0862 78.9058 42.1262 80.1779 37.6183C81.4499 33.1104 81.2721 28.2978 79.671 23.9032C78.07 19.5085 75.1321 15.769 71.2985 13.246C71.0755 13.1002 70.9178 12.8688 70.86 12.6028C70.8314 12.4711 70.8281 12.3348 70.8505 12.2018C70.8728 12.0688 70.9203 11.9417 70.9902 11.8277C71.0602 11.7136 71.1511 11.6149 71.258 11.5372C71.3648 11.4595 71.4854 11.4043 71.6129 11.3747C71.8704 11.315 72.1403 11.3634 72.3633 11.5092C76.5534 14.2692 79.7644 18.3581 81.5147 23.1627C83.265 27.9673 83.4603 33.2285 82.0712 38.1574C80.6822 43.0863 77.7837 47.4171 73.8104 50.5004C69.8372 53.5838 65.0033 55.2533 60.0339 55.2588L60.0114 55.2819Z" fill="#00B83F"/>
<path d="M60.0117 51.8142C59.1609 51.8161 58.311 51.76 57.4674 51.6463C57.3812 51.6348 57.3029 51.5883 57.2498 51.5172C57.1968 51.4461 57.1732 51.3561 57.1843 51.2671C57.1955 51.178 57.2404 51.0972 57.3093 51.0424C57.3781 50.9875 57.4652 50.9632 57.5514 50.9747C61.8025 51.547 66.1157 50.6127 69.7862 48.3247C73.4566 46.0367 76.2672 42.5301 77.7586 38.3782C79.2499 34.2263 79.3338 29.6747 77.9966 25.4671C76.6593 21.2596 73.9799 17.6451 70.3965 15.2144C70.3601 15.1903 70.3287 15.159 70.3042 15.1223C70.2797 15.0856 70.2625 15.0442 70.2536 15.0006C70.2447 14.9569 70.2444 14.9119 70.2525 14.8681C70.2607 14.8243 70.2772 14.7826 70.3012 14.7455C70.3492 14.6708 70.4237 14.6187 70.5087 14.6002C70.5936 14.5818 70.6821 14.5986 70.7551 14.647C74.268 17.0451 76.9407 20.5472 78.3779 24.6355C79.8151 28.7239 79.9407 33.1815 78.7359 37.3492C77.5312 41.517 75.0602 45.1737 71.6882 47.7786C68.3162 50.3836 64.2223 51.7985 60.0117 51.8142Z" fill="#00B83F"/>
<path d="M53.5392 50.6679C53.5039 50.6733 53.468 50.6733 53.4327 50.6679C49.7653 49.3074 46.5732 46.8493 44.2637 43.6071C41.9541 40.3649 40.6317 36.4856 40.4652 32.4639C40.2986 28.4422 41.2955 24.4604 43.3285 21.0263C45.3616 17.5922 48.3388 14.8615 51.8803 13.1824C51.919 13.149 51.9646 13.1254 52.0136 13.1135C52.0626 13.1015 52.1136 13.1014 52.1627 13.1132C52.2117 13.1251 52.2574 13.1486 52.2962 13.1818C52.3349 13.215 52.3657 13.2571 52.386 13.3046C52.4063 13.3522 52.4156 13.4041 52.4133 13.456C52.4109 13.508 52.3969 13.5587 52.3723 13.6041C52.3477 13.6495 52.3133 13.6883 52.2717 13.7176C52.23 13.7469 52.1824 13.7658 52.1325 13.7729C48.7016 15.3889 45.8157 18.026 43.8443 21.3463C41.8728 24.6667 40.9055 28.5194 41.0662 32.411C41.2269 36.3027 42.5083 40.0562 44.7463 43.1911C46.9844 46.326 50.0772 48.6996 53.6289 50.0079C53.7102 50.0392 53.7763 50.1023 53.813 50.1835C53.8497 50.2648 53.854 50.3576 53.825 50.4421C53.8042 50.5046 53.766 50.5594 53.7151 50.5996C53.6643 50.6397 53.6031 50.6635 53.5392 50.6679Z" fill="#00B83F"/>
</g>
<path d="M112.71 81.0843L120 89.9949H114.717L108.307 82V89.9949H103.764V65.3409H108.307V80.1333L114.365 72.3849H119.789L112.71 81.0843Z" fill="#222222"/>
<path d="M93.4016 90.488C90.7484 90.488 88.5295 89.5958 86.745 87.8113C84.984 86.0268 84.1035 83.8197 84.1035 81.1899C84.1035 78.5602 84.984 76.3531 86.745 74.5686C88.5295 72.7841 90.7484 71.8918 93.4016 71.8918C95.1157 71.8918 96.6771 72.3027 98.0859 73.1245C99.4947 73.9463 100.563 75.0499 101.291 76.4352L97.3815 78.7245C97.0293 77.9967 96.4892 77.4214 95.7614 76.9988C95.057 76.5761 94.2586 76.3648 93.3664 76.3648C92.0046 76.3648 90.8775 76.8227 89.9853 77.7384C89.093 78.6306 88.6469 79.7811 88.6469 81.1899C88.6469 82.5518 89.093 83.7023 89.9853 84.6415C90.8775 85.5338 92.0046 85.9799 93.3664 85.9799C94.2821 85.9799 95.0922 85.7803 95.7966 85.3811C96.5245 84.9585 97.0645 84.3832 97.4167 83.6553L101.361 85.9094C100.587 87.3182 99.4829 88.4335 98.0507 89.2553C96.6419 90.0771 95.0922 90.488 93.4016 90.488Z" fill="#222222"/>
<path d="M79.1109 87.8113C77.3264 89.5958 75.1193 90.488 72.4895 90.488C69.8597 90.488 67.6526 89.5958 65.8681 87.8113C64.0836 86.0268 63.1914 83.8197 63.1914 81.1899C63.1914 78.5837 64.0836 76.3883 65.8681 74.6038C67.6761 72.7958 69.8832 71.8918 72.4895 71.8918C75.0958 71.8918 77.3029 72.7958 79.1109 74.6038C80.9188 76.4118 81.8228 78.6071 81.8228 81.1899C81.8228 83.7962 80.9188 86.0034 79.1109 87.8113ZM69.0732 84.6767C69.9889 85.5925 71.1277 86.0503 72.4895 86.0503C73.8513 86.0503 74.9901 85.5925 75.9059 84.6767C76.8216 83.761 77.2794 82.5987 77.2794 81.1899C77.2794 79.7811 76.8216 78.6189 75.9059 77.7032C74.9901 76.7874 73.8513 76.3296 72.4895 76.3296C71.1277 76.3296 69.9889 76.7874 69.0732 77.7032C68.1809 78.6424 67.7348 79.8046 67.7348 81.1899C67.7348 82.5753 68.1809 83.7375 69.0732 84.6767Z" fill="#222222"/>
<path d="M62.3504 89.9949H57.1026L52.1366 81.4365H48.4385V89.9949H43.5781V65.3409H53.4397C55.7173 65.3409 57.6544 66.1392 59.2511 67.7358C60.8477 69.3325 61.646 71.2579 61.646 73.5119C61.646 75.0381 61.2116 76.4587 60.3429 77.7736C59.4741 79.065 58.3236 80.0394 56.8913 80.6968L62.3504 89.9949ZM53.4397 69.8843H48.4385V77.1748H53.4397C54.3555 77.1748 55.142 76.8226 55.7995 76.1182C56.4569 75.3903 56.7857 74.5216 56.7857 73.5119C56.7857 72.5023 56.4569 71.6453 55.7995 70.9409C55.142 70.2365 54.3555 69.8843 53.4397 69.8843Z" fill="#222222"/>
<path d="M39.8882 72.3849V76.7522H35.9083V84.078C35.9083 84.6885 36.0609 85.1346 36.3662 85.4163C36.6714 85.6981 37.1175 85.8625 37.7045 85.9094C38.2915 85.9329 39.0194 85.9212 39.8882 85.8742V89.9949C36.8123 90.3471 34.6169 90.0654 33.302 89.1497C32.0106 88.2105 31.3649 86.5199 31.3649 84.078V76.7522H28.3008V72.3849H31.3649V68.8277L35.9083 67.4541V72.3849H39.8882Z" fill="#222222"/>
<path d="M23.3683 70.2717C22.617 70.2717 21.9595 70.0017 21.396 69.4616C20.856 68.8981 20.5859 68.2407 20.5859 67.4893C20.5859 66.7379 20.856 66.0805 21.396 65.517C21.9595 64.9535 22.617 64.6717 23.3683 64.6717C24.1432 64.6717 24.8006 64.9535 25.3406 65.517C25.9042 66.0805 26.1859 66.7379 26.1859 67.4893C26.1859 68.2407 25.9042 68.8981 25.3406 69.4616C24.8006 70.0017 24.1432 70.2717 23.3683 70.2717ZM25.6576 89.9949H21.1142V72.3849H25.6576V89.9949Z" fill="#222222"/>
<path d="M14.8981 77.21C17.0583 78.4545 18.1383 80.3329 18.1383 82.8453C18.1383 84.935 17.3987 86.649 15.9195 87.9874C14.4402 89.3257 12.6205 89.9949 10.4604 89.9949H0V65.3409H9.72074C11.8105 65.3409 13.5832 65.9983 15.039 67.3132C16.4947 68.6281 17.2226 70.2834 17.2226 72.2792C17.2226 74.322 16.4478 75.9656 14.8981 77.21ZM9.72074 69.8843H4.86037V75.3082H9.72074C10.4721 75.3082 11.0943 75.0499 11.5874 74.5333C12.104 74.0168 12.3622 73.3711 12.3622 72.5962C12.3622 71.8214 12.1157 71.1757 11.6226 70.6591C11.1295 70.1426 10.4956 69.8843 9.72074 69.8843ZM4.86037 85.4515H10.4604C11.2822 85.4515 11.9631 85.1815 12.5031 84.6415C13.0432 84.078 13.3132 83.3736 13.3132 82.5283C13.3132 81.7065 13.0432 81.0256 12.5031 80.4855C11.9631 79.922 11.2822 79.6402 10.4604 79.6402H4.86037V85.4515Z" fill="#222222"/>
<path d="M114.906 106.965C113.112 106.965 111.638 106.377 110.483 105.199C109.317 104.011 108.734 102.571 108.734 100.878C108.734 99.1852 109.317 97.7446 110.483 96.5563C111.638 95.3793 113.112 94.7907 114.906 94.7907C115.982 94.7907 116.974 95.0542 117.882 95.581C118.79 96.0967 119.496 96.7974 120.001 97.683L118.958 98.2883C118.588 97.5709 118.039 96.9991 117.31 96.5731C116.582 96.1472 115.78 95.9342 114.906 95.9342C113.426 95.9342 112.226 96.4106 111.307 97.3635C110.377 98.3276 109.911 99.499 109.911 100.878C109.911 102.257 110.377 103.428 111.307 104.392C112.226 105.345 113.426 105.822 114.906 105.822C115.78 105.822 116.582 105.609 117.31 105.183C118.039 104.757 118.588 104.185 118.958 103.467L120.001 104.056C119.519 104.942 118.818 105.648 117.899 106.175C116.98 106.702 115.982 106.965 114.906 106.965Z" fill="#222222"/>
<path d="M103.177 94.9925V105.653H108.558V106.763H102V94.9925H103.177Z" fill="#222222"/>
<path d="M94.9329 94.9925V105.653H100.314V106.763H93.7559V94.9925H94.9329Z" fill="#222222"/>
<path d="M84.1431 105.401L86.8672 98.3556H88.0443L84.4458 107.537C84.1094 108.389 83.6386 109.045 83.0333 109.504C82.4391 109.975 81.7777 110.182 81.049 110.126V109.084C82.058 109.207 82.8259 108.624 83.3527 107.335L83.5714 106.814L79.8047 98.3556H80.9818L84.1431 105.401Z" fill="#222222"/>
<path d="M77.3523 100.004V98.3556H78.4621V106.427C78.4621 107.638 78.0473 108.591 77.2178 109.286C76.3882 109.981 75.3961 110.328 74.2414 110.328C72.2796 110.328 70.9512 109.644 70.2562 108.277L71.2315 107.722C71.7359 108.742 72.7393 109.252 74.2414 109.252C75.2055 109.252 75.9622 109 76.5115 108.495C77.072 107.991 77.3523 107.301 77.3523 106.427V105.115C76.5788 106.349 75.4465 106.965 73.9556 106.965C72.7561 106.965 71.7303 106.539 70.8783 105.687C70.0376 104.835 69.6172 103.793 69.6172 102.559C69.6172 101.326 70.0376 100.284 70.8783 99.4318C71.7303 98.5798 72.7561 98.1538 73.9556 98.1538C75.4465 98.1538 76.5788 98.7704 77.3523 100.004ZM71.6855 104.93C72.3245 105.569 73.1092 105.889 74.0397 105.889C74.9701 105.889 75.7548 105.569 76.3938 104.93C77.0328 104.269 77.3523 103.479 77.3523 102.559C77.3523 101.629 77.0328 100.844 76.3938 100.205C75.7548 99.5551 74.9701 99.23 74.0397 99.23C73.1092 99.23 72.3245 99.5551 71.6855 100.205C71.0465 100.844 70.727 101.629 70.727 102.559C70.727 103.479 71.0465 104.269 71.6855 104.93Z" fill="#222222"/>
<path d="M66.9701 105.704C66.1069 106.545 65.0643 106.965 63.8424 106.965C62.598 106.965 61.5499 106.545 60.6979 105.704C59.8459 104.852 59.4199 103.804 59.4199 102.559C59.4199 101.315 59.8459 100.273 60.6979 99.4318C61.5499 98.5798 62.598 98.1538 63.8424 98.1538C65.0755 98.1538 66.1181 98.5798 66.9701 99.4318C67.8333 100.273 68.2649 101.315 68.2649 102.559C68.2649 103.793 67.8333 104.841 66.9701 105.704ZM61.4882 104.93C62.1272 105.569 62.9119 105.889 63.8424 105.889C64.7728 105.889 65.5576 105.569 66.1966 104.93C66.8355 104.269 67.155 103.479 67.155 102.559C67.155 101.629 66.8355 100.844 66.1966 100.205C65.5576 99.5551 64.7728 99.23 63.8424 99.23C62.9119 99.23 62.1272 99.5551 61.4882 100.205C60.8492 100.844 60.5297 101.629 60.5297 102.559C60.5297 103.479 60.8492 104.269 61.4882 104.93Z" fill="#222222"/>
<path d="M57.5688 106.763H56.459V94.488H57.5688V106.763Z" fill="#222222"/>
<path d="M53.308 105.704C52.4448 106.545 51.4022 106.965 50.1803 106.965C48.9359 106.965 47.8878 106.545 47.0358 105.704C46.1838 104.852 45.7578 103.804 45.7578 102.559C45.7578 101.315 46.1838 100.273 47.0358 99.4318C47.8878 98.5798 48.9359 98.1538 50.1803 98.1538C51.4134 98.1538 52.456 98.5798 53.308 99.4318C54.1712 100.273 54.6027 101.315 54.6027 102.559C54.6027 103.793 54.1712 104.841 53.308 105.704ZM47.8261 104.93C48.4651 105.569 49.2498 105.889 50.1803 105.889C51.1107 105.889 51.8955 105.569 52.5344 104.93C53.1734 104.269 53.4929 103.479 53.4929 102.559C53.4929 101.629 53.1734 100.844 52.5344 100.205C51.8955 99.5551 51.1107 99.23 50.1803 99.23C49.2498 99.23 48.4651 99.5551 47.8261 100.205C47.1871 100.844 46.8676 101.629 46.8676 102.559C46.8676 103.479 47.1871 104.269 47.8261 104.93Z" fill="#222222"/>
<path d="M40.8196 98.1538C41.8285 98.1538 42.6301 98.4677 43.2242 99.0955C43.8183 99.712 44.1154 100.547 44.1154 101.601V106.763H43.0056V101.601C43.0056 100.85 42.8038 100.267 42.4002 99.8522C42.0079 99.4374 41.4474 99.23 40.7187 99.23C39.8779 99.23 39.2109 99.4934 38.7177 100.02C38.2356 100.547 37.9946 101.326 37.9946 102.358V106.763H36.8848V98.3556H37.9946V99.6672C38.6224 98.6583 39.564 98.1538 40.8196 98.1538Z" fill="#222222"/>
<path d="M31.4446 98.1538C32.4535 98.1538 33.255 98.4677 33.8492 99.0955C34.4433 99.712 34.7404 100.547 34.7404 101.601V106.763H33.6306V101.601C33.6306 100.85 33.4288 100.267 33.0252 99.8522C32.6329 99.4374 32.0724 99.23 31.3437 99.23C30.5029 99.23 29.8359 99.4934 29.3427 100.02C28.8606 100.547 28.6196 101.326 28.6196 102.358V106.763H27.5098V94.9925H28.6196V99.6672C29.2474 98.6583 30.189 98.1538 31.4446 98.1538Z" fill="#222222"/>
<path d="M22.149 106.965C20.8823 106.965 19.8285 106.545 18.9877 105.704C18.1469 104.841 17.7266 103.793 17.7266 102.559C17.7266 101.315 18.1469 100.273 18.9877 99.4318C19.8285 98.5798 20.8823 98.1538 22.149 98.1538C22.9786 98.1538 23.7241 98.3556 24.3855 98.7592C25.0469 99.1515 25.5289 99.684 25.8316 100.357L24.9236 100.878C24.6994 100.373 24.335 99.9755 23.8306 99.684C23.3373 99.3813 22.7768 99.23 22.149 99.23C21.2186 99.23 20.4339 99.5551 19.7949 100.205C19.1559 100.844 18.8364 101.629 18.8364 102.559C18.8364 103.479 19.1559 104.269 19.7949 104.93C20.4339 105.569 21.2186 105.889 22.149 105.889C22.7656 105.889 23.3205 105.743 23.8138 105.452C24.3182 105.16 24.7106 104.757 24.9908 104.241L25.9157 104.779C25.5682 105.452 25.0581 105.984 24.3855 106.377C23.7129 106.769 22.9674 106.965 22.149 106.965Z" fill="#222222"/>
<path d="M12.2951 98.1538C13.5506 98.1538 14.554 98.5966 15.3051 99.4822C16.0786 100.357 16.4653 101.394 16.4653 102.593C16.4653 102.649 16.4541 102.823 16.4317 103.114H9.0497C9.1618 103.955 9.52053 104.628 10.1259 105.132C10.7312 105.637 11.4879 105.889 12.396 105.889C13.674 105.889 14.5764 105.412 15.1033 104.46L16.0786 105.031C15.7086 105.637 15.1986 106.113 14.5484 106.461C13.9094 106.797 13.1863 106.965 12.3792 106.965C11.0563 106.965 9.98016 106.55 9.15059 105.721C8.32103 104.891 7.90625 103.837 7.90625 102.559C7.90625 101.293 8.31543 100.245 9.13378 99.415C9.95213 98.5742 11.0059 98.1538 12.2951 98.1538ZM12.2951 99.23C11.4207 99.23 10.6864 99.4878 10.0923 100.004C9.50932 100.519 9.1618 101.197 9.0497 102.038H15.3219C15.1986 101.141 14.8566 100.452 14.2961 99.9699C13.7132 99.4766 13.0462 99.23 12.2951 99.23Z" fill="#222222"/>
<path d="M0 94.9925H8.40773V96.1023H4.79241V106.763H3.61532V96.1023H0V94.9925Z" fill="#222222"/>
<defs>
<clipPath id="clip0_90_5933">
<rect width="46" height="60" fill="white" transform="translate(37 0.671753)"/>
</clipPath>
</defs>
</svg>
