<svg width="40" height="40" viewBox="0 0 40 40" fill="none" xmlns="http://www.w3.org/2000/svg">
<path fill-rule="evenodd" clip-rule="evenodd" d="M3.33398 19.9997C3.33398 29.2043 10.7959 36.6663 20.0007 36.6663C29.2053 36.6663 36.6673 29.2043 36.6673 19.9997C36.6673 10.7949 29.2053 3.33301 20.0007 3.33301C10.7959 3.33301 3.33398 10.7949 3.33398 19.9997ZM6.66732 19.9997C6.66732 12.6359 12.6369 6.66634 20.0007 6.66634C27.3645 6.66634 33.334 12.6359 33.334 19.9997C33.334 27.3635 27.3645 33.333 20.0007 33.333C12.6369 33.333 6.66732 27.3635 6.66732 19.9997ZM20.9133 21.7763C20.82 22.383 20.33 22.9197 19.6533 22.9197H19.4667C18.79 22.9197 18.3 22.4063 18.2067 21.7763L17.9733 20.1897C17.8567 19.4197 18.3 18.883 19.0467 18.7897C21.0767 18.533 22.01 17.903 22.01 16.7597V16.713C22.01 15.663 21.2167 15.0563 19.8633 15.0563C18.86 15.0563 17.9967 15.3597 17.1567 15.9897C16.8767 16.1997 16.5033 16.363 16.1066 16.363C15.22 16.363 14.4733 15.6163 14.4733 14.7297C14.4733 14.2863 14.66 13.8197 15.08 13.4697C16.3166 12.443 17.88 11.7897 19.9333 11.7897C23.2933 11.7897 25.58 13.5163 25.58 16.6197V16.6663C25.58 19.6297 23.5267 20.843 20.9833 21.3563L20.9133 21.7763ZM17.4367 26.4897V26.443C17.4367 25.323 18.3 24.4597 19.4667 24.4597C20.6333 24.4597 21.4967 25.323 21.4967 26.443V26.4897C21.4967 27.6097 20.6333 28.473 19.4667 28.473C18.3 28.473 17.4367 27.6097 17.4367 26.4897Z" fill="#222222"/>
</svg>
