<svg width="22" height="16" viewBox="0 0 22 16" fill="none" xmlns="http://www.w3.org/2000/svg">
<path d="M20.6029 6.82751C20.8585 7.14907 21 7.56684 21 8.00002C21 8.43319 20.8585 8.85096 20.6029 9.17252C18.9845 11.15 15.3005 15 11 15C6.69952 15 3.01559 11.15 1.39712 9.17252C1.1415 8.85096 1 8.43319 1 8.00002C1 7.56684 1.1415 7.14907 1.39712 6.82751C3.01559 4.85 6.69952 1 11 1C15.3005 1 18.9845 4.85 20.6029 6.82751Z" stroke="#8C8C8C" stroke-width="1.5" stroke-linecap="round" stroke-linejoin="round"/>
<path d="M11.0005 11.1109C12.7031 11.1109 14.0833 9.71807 14.0833 7.99987C14.0833 6.28167 12.7031 4.88879 11.0005 4.88879C9.29793 4.88879 7.91772 6.28167 7.91772 7.99987C7.91772 9.71807 9.29793 11.1109 11.0005 11.1109Z" stroke="#8C8C8C" stroke-width="1.5" stroke-linecap="round" stroke-linejoin="round"/>
</svg>
