<svg width="22" height="17" viewBox="0 0 22 17" fill="none" xmlns="http://www.w3.org/2000/svg">
<path d="M20.6029 7.15576C20.8585 7.47732 21 7.89509 21 8.32826C21 8.76143 20.8585 9.1792 20.6029 9.50076C18.9845 11.4783 15.3005 15.3282 11 15.3282C6.69952 15.3282 3.01559 11.4783 1.39712 9.50076C1.1415 9.1792 1 8.76143 1 8.32826C1 7.89509 1.1415 7.47732 1.39712 7.15576C3.01559 5.17825 6.69952 1.32825 11 1.32825C15.3005 1.32825 18.9845 5.17825 20.6029 7.15576Z" stroke="#222222" stroke-width="1.5" stroke-linecap="round" stroke-linejoin="round"/>
<path d="M11.0005 11.4392C12.7031 11.4392 14.0833 10.0463 14.0833 8.32812C14.0833 6.60992 12.7031 5.21704 11.0005 5.21704C9.29793 5.21704 7.91772 6.60992 7.91772 8.32812C7.91772 10.0463 9.29793 11.4392 11.0005 11.4392Z" stroke="#222222" stroke-width="1.5" stroke-linecap="round" stroke-linejoin="round"/>
</svg>
