<svg width="24" height="23" viewBox="0 0 24 23" fill="none" xmlns="http://www.w3.org/2000/svg">
<path d="M0.761719 20.1016V8.14844C0.761719 6.6944 1.9444 5.51172 3.39844 5.51172H15.3516C16.8056 5.51172 17.9883 6.6944 17.9883 8.14844V20.1016C17.9883 21.5556 16.8056 22.7383 15.3516 22.7383H3.39844C1.9444 22.7383 0.761719 21.5556 0.761719 20.1016ZM16.2305 8.14844C16.2305 7.6638 15.8362 7.26953 15.3516 7.26953H3.39844C2.9138 7.26953 2.51953 7.6638 2.51953 8.14844V20.1016C2.51953 20.5862 2.9138 20.9805 3.39844 20.9805H15.3516C15.8362 20.9805 16.2305 20.5862 16.2305 20.1016V8.14844ZM7.79297 3.75391V2.875C7.79297 2.39037 8.18724 1.99609 8.67188 1.99609L20.625 1.99609C21.1096 1.99609 21.5039 2.39037 21.5039 2.875V14.8281C21.5039 15.3128 21.1096 15.707 20.625 15.707H19.79V17.4648H20.625C22.079 17.4648 23.2617 16.2822 23.2617 14.8281V2.875C23.2617 1.42096 22.079 0.238281 20.625 0.238281L8.67188 0.238281C7.21783 0.238281 6.03516 1.42096 6.03516 2.875V3.75391H7.79297Z" fill="#222222"/>
</svg>
