<svg width="40" height="40" viewBox="0 0 40 40" fill="none" xmlns="http://www.w3.org/2000/svg">
<path d="M35.9624 6.38886C35.8931 5.11774 34.8822 4.10693 33.611 4.03755C31.0462 3.89743 26.0272 4.03374 21.228 6.51605C18.7814 7.78154 16.1939 9.9271 14.129 12.4026C14.1035 12.4331 14.0788 12.4638 14.0535 12.4943L9.36731 12.8563C8.59594 12.916 7.90888 13.3203 7.48225 13.9655L4.28514 18.8013C3.96158 19.2906 3.91014 19.9031 4.14745 20.4395C4.38483 20.976 4.87257 21.3499 5.45226 21.4397L9.40043 22.0512C9.3865 22.1279 9.3725 22.2046 9.35968 22.2814C9.22825 23.0676 9.48875 23.876 10.0566 24.4438L15.5561 29.9433C16.0269 30.4141 16.6631 30.6737 17.315 30.6737C17.4492 30.6737 17.5842 30.6626 17.7186 30.6402C17.7953 30.6274 17.872 30.6134 17.9488 30.5995L18.5603 34.5477C18.6501 35.1274 19.024 35.6152 19.5603 35.8525C19.7835 35.9513 20.0197 36 20.2548 36C20.585 35.9999 20.9129 35.9038 21.1986 35.7149L26.0344 32.5177C26.6797 32.091 27.0839 31.404 27.1434 30.6326L27.5054 25.9465C27.536 25.9212 27.5667 25.8965 27.5972 25.871C30.0728 23.8061 32.2184 21.2186 33.4838 18.772C35.9663 13.9726 36.1023 8.95354 35.9624 6.38886ZM25.0003 30.9536L20.3746 34.0119L19.7786 30.1641C21.7336 29.5893 23.6676 28.6687 25.51 27.4353L25.2742 30.4881C25.2595 30.6786 25.1596 30.8483 25.0003 30.9536ZM16.8819 28.6175L11.3824 23.118C11.2421 22.9776 11.1772 22.7804 11.209 22.5905C11.3725 21.6128 11.6266 20.6821 11.941 19.8054L20.1928 28.0571C19.1398 28.4343 18.1966 28.6593 17.4094 28.7909C17.2192 28.8225 17.0222 28.7578 16.8819 28.6175ZM9.51175 14.7258L12.5645 14.49C11.3311 16.3324 10.4105 18.2663 9.83568 20.2213L5.98795 19.6254L9.04631 14.9996C9.15168 14.8403 9.32137 14.7405 9.51175 14.7258ZM26.3964 24.4311C24.8818 25.6944 23.4116 26.6082 22.0565 27.2693L12.7302 17.9431C13.5964 16.1741 14.6534 14.701 15.5688 13.6036C17.4797 11.3127 19.8564 9.33641 22.0895 8.18141C26.4941 5.90311 31.1347 5.78042 33.509 5.90967C33.8232 5.9268 34.0732 6.17673 34.0903 6.49105C34.2197 8.86529 34.0968 13.5059 31.8185 17.9106C30.6635 20.1436 28.6872 22.5202 26.3964 24.4311Z" fill="#222222"/>
<path d="M25.9198 18.7653C27.1199 18.7651 28.3205 18.3083 29.2342 17.3946C30.1196 16.5093 30.6071 15.3322 30.6071 14.0802C30.6071 12.8282 30.1195 11.651 29.2342 10.7657C27.4066 8.93805 24.4328 8.93818 22.6054 10.7657C21.72 11.651 21.2324 12.8282 21.2324 14.0802C21.2324 15.3322 21.72 16.5093 22.6054 17.3946C23.5192 18.3085 24.7192 18.7654 25.9198 18.7653ZM23.931 12.0915C24.4793 11.5432 25.1995 11.269 25.9197 11.269C26.6399 11.269 27.3601 11.5432 27.9083 12.0915C28.4395 12.6227 28.732 13.3289 28.732 14.0801C28.732 14.8313 28.4395 15.5376 27.9083 16.0688C26.8118 17.1653 25.0275 17.1653 23.931 16.0688C23.3998 15.5376 23.1072 14.8313 23.1072 14.0802C23.1072 13.329 23.3999 12.6227 23.931 12.0915Z" fill="#222222"/>
<path d="M4.957 30.3709C5.19693 30.3709 5.43687 30.2794 5.61987 30.0963L8.68067 27.0355C9.04679 26.6693 9.04679 26.0758 8.68067 25.7097C8.31461 25.3435 7.72099 25.3435 7.35486 25.7097L4.29412 28.7705C3.928 29.1366 3.928 29.7301 4.29412 30.0963C4.47712 30.2793 4.71706 30.3709 4.957 30.3709Z" fill="#222222"/>
<path d="M11.485 28.5148C11.1189 28.1487 10.5253 28.1487 10.1592 28.5148L4.27459 34.3995C3.90847 34.7656 3.90847 35.3592 4.27459 35.7253C4.45765 35.9084 4.69753 35.9999 4.93747 35.9999C5.1774 35.9999 5.41734 35.9084 5.60034 35.7252L11.4849 29.8406C11.8511 29.4745 11.8511 28.881 11.485 28.5148Z" fill="#222222"/>
<path d="M12.9643 31.32L9.9035 34.3808C9.53738 34.7469 9.53738 35.3405 9.9035 35.7066C10.0866 35.8897 10.3265 35.9812 10.5664 35.9812C10.8062 35.9812 11.0462 35.8897 11.2292 35.7066L14.29 32.6458C14.6562 32.2797 14.6562 31.6861 14.29 31.32C13.924 30.9539 13.3304 30.9539 12.9643 31.32Z" fill="#222222"/>
</svg>
