<svg width="40" height="40" viewBox="0 0 40 40" fill="none" xmlns="http://www.w3.org/2000/svg">
<path d="M21.3515 34.7957L20.5408 34.2102L21.3515 34.7957ZM18.6492 34.7957L17.8385 35.3812L18.6492 34.7957ZM5.68689 14.5392L4.79446 14.0881L5.68689 14.5392ZM5.89128 17.1309L6.70196 16.5454L5.89128 17.1309ZM34.3138 14.5392L33.4213 14.9904L34.3138 14.5392ZM34.1094 17.1309L34.9201 17.7164L34.1094 17.1309ZM31.2585 8.49592L32.151 8.04474V8.04474L31.2585 8.49592ZM8.74212 8.49592L9.63456 8.94709L8.74212 8.49592ZM11.667 15.8332L10.7272 15.4914C10.6397 15.7321 10.6478 15.9971 10.7499 16.2319L11.667 15.8332ZM20.0003 34.9998L19.0833 35.3986C19.242 35.7637 19.6022 35.9998 20.0003 35.9998C20.3985 35.9998 20.7587 35.7637 20.9174 35.3986L20.0003 34.9998ZM28.3337 15.8332L29.2507 16.2319C29.3528 15.9971 29.361 15.7321 29.2735 15.4914L28.3337 15.8332ZM6.66699 14.8332C6.11471 14.8332 5.66699 15.2809 5.66699 15.8332C5.66699 16.3855 6.11471 16.8332 6.66699 16.8332V14.8332ZM33.3337 16.8332C33.8859 16.8332 34.3337 16.3855 34.3337 15.8332C34.3337 15.2809 33.8859 14.8332 33.3337 14.8332V16.8332ZM11.7169 7.6665H28.2837V5.6665H11.7169V7.6665ZM30.3661 8.94709L33.4213 14.9904L35.2062 14.0881L32.151 8.04474L30.3661 8.94709ZM6.57933 14.9904L9.63456 8.94709L7.84969 8.04474L4.79446 14.0881L6.57933 14.9904ZM33.2987 16.5454L20.5408 34.2102L22.1621 35.3812L34.9201 17.7164L33.2987 16.5454ZM19.4599 34.2102L6.70196 16.5454L5.0806 17.7164L17.8385 35.3812L19.4599 34.2102ZM20.5408 34.2102C20.2747 34.5787 19.726 34.5787 19.4599 34.2102L17.8385 35.3812C18.9029 36.855 21.0977 36.855 22.1621 35.3812L20.5408 34.2102ZM4.79446 14.0881C4.20405 15.2559 4.31443 16.6555 5.0806 17.7164L6.70196 16.5454C6.3736 16.0908 6.3263 15.4909 6.57933 14.9904L4.79446 14.0881ZM33.4213 14.9904C33.6744 15.4909 33.6271 16.0908 33.2987 16.5454L34.9201 17.7164C35.6862 16.6555 35.7966 15.2559 35.2062 14.0881L33.4213 14.9904ZM28.2837 7.6665C29.1638 7.6665 29.969 8.16168 30.3661 8.94709L32.151 8.04474C31.4136 6.58612 29.9182 5.6665 28.2837 5.6665V7.6665ZM11.7169 5.6665C10.0825 5.6665 8.5871 6.58612 7.84969 8.04474L9.63456 8.94709C10.0316 8.16168 10.8368 7.6665 11.7169 7.6665V5.6665ZM14.0605 6.32476L10.7272 15.4914L12.6068 16.1749L15.9401 7.00825L14.0605 6.32476ZM10.7499 16.2319L19.0833 35.3986L20.9174 34.6011L12.5841 15.4344L10.7499 16.2319ZM24.0605 7.00825L27.3939 16.1749L29.2735 15.4914L25.9401 6.32476L24.0605 7.00825ZM27.4166 15.4344L19.0833 34.6011L20.9174 35.3986L29.2507 16.2319L27.4166 15.4344ZM6.66699 16.8332H33.3337V14.8332H6.66699V16.8332Z" fill="#222222"/>
</svg>
