<svg width="40" height="40" viewBox="0 0 40 40" fill="none" xmlns="http://www.w3.org/2000/svg">
<path d="M18.9503 6.89498C19.4071 6.07029 20.5929 6.07028 21.0497 6.89498L24.8821 13.8134C25.02 14.0623 25.2574 14.2407 25.5348 14.3039L33.0707 16.0197C33.9491 16.2197 34.3021 17.2803 33.7187 17.9668L28.5239 24.0798C28.3488 24.2858 28.2646 24.554 28.2905 24.8232L29.0698 32.916C29.1587 33.8388 28.2121 34.5096 27.3709 34.1198L20.4204 30.8994C20.1538 30.7758 19.8462 30.7758 19.5796 30.8994L12.6291 34.1198C11.7879 34.5096 10.8413 33.8388 10.9302 32.916L11.7095 24.8232C11.7354 24.554 11.6512 24.2858 11.4761 24.0798L6.28133 17.9668C5.69794 17.2803 6.05091 16.2197 6.92935 16.0197L14.4652 14.3039C14.7426 14.2407 14.98 14.0623 15.1179 13.8134L18.9503 6.89498Z" stroke="#222222" stroke-width="2"/>
</svg>
