<svg width="20" height="24" viewBox="0 0 20 24" fill="none" xmlns="http://www.w3.org/2000/svg">
<path d="M19.6436 7.8592C18.9163 4.11487 15.7888 0.937219 11.9829 0.198984C10.6858 -0.0663281 9.31217 -0.0663281 8.015 0.198984C4.27021 0.92625 1.09255 4.0538 0.354315 7.8592C0.0318614 9.42919 0.101518 11.0916 0.575096 12.7147C1.58258 16.1277 4.00428 19.0585 6.71877 21.5263C8.35255 22.9963 9.68394 23.8846 9.74066 23.9226C9.81753 23.9732 9.90711 24 9.99899 24C10.0909 24 10.1804 23.9732 10.2573 23.9221L10.2605 23.9203C10.4823 23.7721 12.4888 22.4117 14.6227 20.2418C14.8041 20.0576 14.8013 19.7599 14.6171 19.579C14.4351 19.4002 14.1325 19.4035 13.9542 19.5846C12.8333 20.7251 11.7443 21.6331 11.0279 22.1938C10.6234 22.5107 10.0261 22.9429 9.99894 22.9621C9.25541 22.4376 7.32538 20.9989 5.43608 18.9466C4.15766 17.559 3.14366 16.1555 2.42169 14.775C1.53894 13.0874 1.09124 11.428 1.09171 9.84305C1.09217 7.46447 2.01852 5.2275 3.70058 3.54506C5.38358 1.86309 7.62022 0.936328 9.99894 0.936328C12.3776 0.936328 14.6143 1.86309 16.2973 3.54506C17.9793 5.2275 18.9057 7.46447 18.9061 9.84305C18.9075 11.9403 18.1303 14.1478 16.5954 16.4045C16.4505 16.6182 16.5059 16.9102 16.7196 17.0556C16.9305 17.199 17.2284 17.1406 17.3713 16.9313C18.1308 15.8133 18.7228 14.6896 19.1321 13.5918C19.3604 12.9801 19.5358 12.3641 19.6539 11.7612C19.7795 11.1185 19.8433 10.4735 19.8438 9.843C19.8438 9.17508 19.7763 8.50753 19.6436 7.8592Z" fill="#222222"/>
<path d="M9.99805 2.34375C5.86255 2.34375 2.49805 5.70825 2.49805 9.84375C2.49805 13.9792 5.86255 17.3438 9.99805 17.3438C14.1335 17.3438 17.498 13.9792 17.498 9.84375C17.498 5.70825 14.1336 2.34375 9.99805 2.34375ZM9.99805 16.4062C6.37948 16.4062 3.43555 13.4623 3.43555 9.84375C3.43555 6.22519 6.37948 3.28125 9.99805 3.28125C13.6166 3.28125 16.5605 6.22519 16.5605 9.84375C16.5605 13.4623 13.6167 16.4062 9.99805 16.4062Z" fill="#222222"/>
<path d="M11.4043 6.5625H9.99805C9.73916 6.5625 9.5293 6.77236 9.5293 7.03125V12.6562C9.5293 12.9151 9.73916 13.125 9.99805 13.125C10.2569 13.125 10.4668 12.9151 10.4668 12.6562V10.3125H11.4043C12.4382 10.3125 13.2793 9.47137 13.2793 8.4375C13.2793 7.40363 12.4382 6.5625 11.4043 6.5625ZM11.4043 9.375H10.4668V7.5H11.4043C11.9212 7.5 12.3418 7.92056 12.3418 8.4375C12.3418 8.95444 11.9212 9.375 11.4043 9.375Z" fill="#222222"/>
<path d="M8.12305 6.5625C7.86416 6.5625 7.6543 6.77236 7.6543 7.03125V12.6562C7.6543 12.9151 7.86416 13.125 8.12305 13.125C8.38194 13.125 8.5918 12.9151 8.5918 12.6562V7.03125C8.5918 6.77236 8.38194 6.5625 8.12305 6.5625Z" fill="#222222"/>
<path d="M15.709 18.8193C15.9679 18.8193 16.1777 18.6095 16.1777 18.3506C16.1777 18.0917 15.9679 17.8818 15.709 17.8818C15.4501 17.8818 15.2402 18.0917 15.2402 18.3506C15.2402 18.6095 15.4501 18.8193 15.709 18.8193Z" fill="#222222"/>
</svg>
