<svg width="32" height="32" viewBox="0 0 32 32" fill="none" xmlns="http://www.w3.org/2000/svg">
<path d="M19.3844 18.4719C19.3856 20.7331 15.5138 20.4756 14.28 20.4769V16.4681C15.515 16.4681 19.3844 16.1137 19.3844 18.4719ZM32 16C32 24.8363 24.8363 32 16 32C7.16375 32 0 24.8363 0 16C0 7.16375 7.16375 0 16 0C24.8363 0 32 7.16313 32 16ZM20.3706 15.0656C21.4263 14.5281 22.0863 13.5806 21.9319 12.0031C21.7244 9.84625 19.8631 9.12375 17.5125 8.9175V5.92625H15.6919V8.83875C15.2131 8.83875 14.7238 8.84812 14.2381 8.85812V5.92625H12.4187V8.91687C12.0237 8.925 11.6369 8.9325 11.2594 8.9325V8.92313L8.7475 8.9225V10.8675C8.7475 10.8675 10.0925 10.8419 10.07 10.8669C10.8075 10.8669 11.0475 11.295 11.1175 11.665V15.0731C11.1688 15.0731 11.235 15.0756 11.31 15.0856C11.2494 15.0856 11.1844 15.0856 11.1175 15.0856V19.8594C11.0844 20.0912 10.9481 20.4619 10.4331 20.4625C10.4562 20.4831 9.10938 20.4625 9.10938 20.4625L8.7475 22.6369H11.1169C11.5581 22.6369 11.9919 22.645 12.4175 22.6475V25.6731H14.2369V22.6794C14.7362 22.69 15.2194 22.6938 15.6912 22.6931V25.6731H17.5112V22.6531C20.5731 22.4775 22.7156 21.7062 22.9819 18.8319C23.1969 16.5169 22.1075 15.4844 20.37 15.0669L20.3706 15.0656ZM18.5375 12.8162C18.5375 10.6706 15.3081 10.9975 14.2806 10.9975V14.6331C15.3081 14.6331 18.5369 14.8731 18.5375 12.8162Z" fill="#222222"/>
</svg>
