<svg width="20" height="17" viewBox="0 0 20 17" fill="none" xmlns="http://www.w3.org/2000/svg">
<path d="M6.75 1C6.75 0.585786 6.41421 0.25 6 0.25C5.58579 0.25 5.25 0.585786 5.25 1H6.75ZM5.25 3C5.25 3.41421 5.58579 3.75 6 3.75C6.41421 3.75 6.75 3.41421 6.75 3H5.25ZM14.75 1C14.75 0.585786 14.4142 0.25 14 0.25C13.5858 0.25 13.25 0.585786 13.25 1H14.75ZM13.25 3C13.25 3.41421 13.5858 3.75 14 3.75C14.4142 3.75 14.75 3.41421 14.75 3H13.25ZM5 8.25C4.58579 8.25 4.25 8.58579 4.25 9C4.25 9.41421 4.58579 9.75 5 9.75V8.25ZM5.5 9.75C5.91421 9.75 6.25 9.41421 6.25 9C6.25 8.58579 5.91421 8.25 5.5 8.25V9.75ZM8 8.25C7.58579 8.25 7.25 8.58579 7.25 9C7.25 9.41421 7.58579 9.75 8 9.75V8.25ZM8.5 9.75C8.91421 9.75 9.25 9.41421 9.25 9C9.25 8.58579 8.91421 8.25 8.5 8.25V9.75ZM4.5 2.75H15.5V1.25H4.5V2.75ZM17.75 5V13H19.25V5H17.75ZM15.5 15.25H4.5V16.75H15.5V15.25ZM2.25 13V5H0.75V13H2.25ZM4.5 15.25C3.25736 15.25 2.25 14.2426 2.25 13H0.75C0.75 15.0711 2.42893 16.75 4.5 16.75V15.25ZM17.75 13C17.75 14.2426 16.7426 15.25 15.5 15.25V16.75C17.5711 16.75 19.25 15.0711 19.25 13H17.75ZM15.5 2.75C16.7426 2.75 17.75 3.75736 17.75 5H19.25C19.25 2.92893 17.5711 1.25 15.5 1.25V2.75ZM4.5 1.25C2.42893 1.25 0.75 2.92893 0.75 5H2.25C2.25 3.75736 3.25736 2.75 4.5 2.75V1.25ZM5.25 1V3H6.75V1H5.25ZM13.25 1V3H14.75V1H13.25ZM5 9.75H5.5V8.25H5V9.75ZM8 9.75H8.5V8.25H8V9.75ZM1.5 6.75H18.5V5.25H1.5V6.75Z" fill="#222222"/>
</svg>
