<svg width="34" height="34" viewBox="0 0 34 34" fill="none" xmlns="http://www.w3.org/2000/svg">
<path d="M17.0007 0.333496C13.7043 0.333496 10.482 1.31098 7.74115 3.14234C5.00034 4.97369 2.86413 7.57667 1.60267 10.6221C0.341206 13.6675 0.0111502 17.0187 0.654237 20.2517C1.29732 23.4847 2.88467 26.4544 5.21555 28.7853C7.54642 31.1162 10.5161 32.7035 13.7492 33.3466C16.9822 33.9897 20.3333 33.6596 23.3787 32.3982C26.4242 31.1367 29.0271 29.0005 30.8585 26.2597C32.6898 23.5188 33.6673 20.2965 33.6673 17.0002C33.6673 14.8115 33.2362 12.6442 32.3987 10.6221C31.5611 8.60001 30.3334 6.76269 28.7858 5.21505C27.2381 3.66741 25.4008 2.43975 23.3787 1.60217C21.3566 0.764592 19.1894 0.333496 17.0007 0.333496ZM21.894 20.6668L17.7507 26.6168C17.6656 26.7365 17.5532 26.8341 17.4227 26.9015C17.2922 26.9689 17.1475 27.004 17.0007 27.004C16.8538 27.004 16.7091 26.9689 16.5786 26.9015C16.4482 26.8341 16.3357 26.7365 16.2507 26.6168L12.1073 20.6668C12.0697 20.6092 12.0508 20.5414 12.0533 20.4727C12.0557 20.4039 12.0794 20.3376 12.121 20.2828C12.1626 20.228 12.2202 20.1875 12.2858 20.1667C12.3514 20.146 12.4218 20.146 12.4873 20.1668L16.6007 21.5335C16.8599 21.6224 17.1414 21.6224 17.4007 21.5335L21.5157 20.1668C21.5811 20.1465 21.6513 20.1469 21.7165 20.1678C21.7818 20.1888 21.839 20.2294 21.8803 20.284C21.9217 20.3387 21.9452 20.4048 21.9476 20.4733C21.9501 20.5418 21.9313 20.6094 21.894 20.6668ZM22.484 17.1835L17.0007 19.0335L11.519 17.1902C11.4495 17.167 11.386 17.1288 11.3329 17.0784C11.2797 17.0279 11.2384 16.9664 11.2117 16.8982C11.185 16.83 11.1736 16.7567 11.1783 16.6836C11.183 16.6105 11.2037 16.5394 11.239 16.4752L16.2007 7.47516C16.2816 7.33462 16.3982 7.2179 16.5387 7.13674C16.6791 7.05558 16.8385 7.01286 17.0007 7.01286C17.1629 7.01286 17.3222 7.05558 17.4626 7.13674C17.6031 7.2179 17.7197 7.33462 17.8007 7.47516L22.7623 16.4835C22.7961 16.5473 22.8157 16.6176 22.8197 16.6896C22.8238 16.7617 22.8122 16.8337 22.7857 16.9009C22.7593 16.968 22.7186 17.0286 22.6666 17.0786C22.6145 17.1285 22.5522 17.1666 22.484 17.1902V17.1835Z" fill="#222222"/>
</svg>
