<svg width="20" height="20" viewBox="0 0 20 20" fill="none" xmlns="http://www.w3.org/2000/svg">
<path d="M10 0C8.02219 0 6.08879 0.58649 4.4443 1.6853C2.79981 2.78412 1.51809 4.3459 0.761209 6.17316C0.00433294 8.00043 -0.193701 10.0111 0.192152 11.9509C0.578004 13.8907 1.53041 15.6725 2.92894 17.0711C4.32746 18.4696 6.10929 19.422 8.0491 19.8078C9.98891 20.1937 11.9996 19.9957 13.8268 19.2388C15.6541 18.4819 17.2159 17.2002 18.3147 15.5557C19.4135 13.9112 20 11.9778 20 10C19.9971 7.34873 18.9426 4.8069 17.0678 2.93217C15.1931 1.05744 12.6513 0.00292921 10 0ZM10 18.6667C8.2859 18.6667 6.61029 18.1584 5.18506 17.2061C3.75984 16.2538 2.64901 14.9002 1.99305 13.3166C1.33709 11.733 1.16546 9.99039 1.49987 8.30922C1.83427 6.62805 2.65969 5.0838 3.87175 3.87174C5.0838 2.65969 6.62805 1.83427 8.30922 1.49986C9.99039 1.16546 11.733 1.33708 13.3166 1.99304C14.9002 2.649 16.2538 3.75983 17.2061 5.18506C18.1584 6.61028 18.6667 8.28589 18.6667 10C18.664 12.2977 17.7501 14.5006 16.1253 16.1253C14.5006 17.7501 12.2977 18.664 10 18.6667Z" fill="#222222"/>
<path d="M13.2986 6.7006C13.1735 6.57562 13.004 6.50541 12.8272 6.50541C12.6504 6.50541 12.4809 6.57562 12.3559 6.7006L9.99909 9.0574L7.64229 6.7006C7.58079 6.63692 7.50722 6.58613 7.42589 6.55119C7.34455 6.51626 7.25707 6.49786 7.16855 6.4971C7.08003 6.49633 6.99225 6.51319 6.91032 6.54672C6.82839 6.58024 6.75395 6.62974 6.69136 6.69233C6.62876 6.75493 6.57926 6.82936 6.54574 6.91129C6.51222 6.99322 6.49535 7.08101 6.49612 7.16953C6.49689 7.25805 6.51528 7.34553 6.55022 7.42687C6.58516 7.5082 6.63595 7.58176 6.69962 7.64326L9.05642 10.0001L6.69962 12.3569C6.63595 12.4184 6.58516 12.4919 6.55022 12.5733C6.51528 12.6546 6.49689 12.7421 6.49612 12.8306C6.49535 12.9191 6.51222 13.0069 6.54574 13.0888C6.57926 13.1708 6.62876 13.2452 6.69136 13.3078C6.75395 13.3704 6.82839 13.4199 6.91032 13.4534C6.99225 13.4869 7.08003 13.5038 7.16855 13.503C7.25707 13.5023 7.34455 13.4839 7.42589 13.4489C7.50722 13.414 7.58079 13.3632 7.64229 13.2995L9.99909 10.9427L12.3559 13.2995C12.4816 13.421 12.65 13.4882 12.8248 13.4866C12.9996 13.4851 13.1668 13.415 13.2904 13.2914C13.414 13.1678 13.4841 13.0006 13.4857 12.8258C13.4872 12.651 13.42 12.4826 13.2986 12.3569L10.9418 10.0001L13.2986 7.64326C13.4235 7.51824 13.4937 7.34871 13.4937 7.17193C13.4937 6.99515 13.4235 6.82561 13.2986 6.7006Z" fill="#222222"/>
</svg>
