<svg width="24" height="20" viewBox="0 0 24 20" fill="none" xmlns="http://www.w3.org/2000/svg">
<path d="M11.9998 4.09473C8.74317 4.09473 6.09375 6.7442 6.09375 10.0008C6.09375 13.2574 8.74317 15.9069 11.9998 15.9069C15.2565 15.9069 17.9059 13.2574 17.9059 10.0008C17.9059 6.7442 15.2565 4.09473 11.9998 4.09473ZM11.9998 14.9675C9.26114 14.9675 7.03308 12.7395 7.03308 10.0008C7.03308 7.26212 9.26114 5.03405 11.9998 5.03405C14.7385 5.03405 16.9665 7.26212 16.9665 10.0008C16.9665 12.7395 14.7385 14.9675 11.9998 14.9675Z" fill="#222222"/>
<path d="M12.5877 9.36008C12.2027 9.224 11.7773 9.05994 11.5413 8.87473C11.4773 8.82458 11.4505 8.70458 11.4747 8.57628C11.4871 8.5107 11.5446 8.29161 11.7663 8.22481C12.1853 8.09862 12.7085 8.34167 12.8751 8.4462C13.0933 8.585 13.3828 8.52116 13.5224 8.30333C13.6624 8.08498 13.5989 7.79445 13.3805 7.65448C13.3188 7.61487 12.9422 7.38369 12.4439 7.28914V7.15133C12.4439 6.89192 12.2336 6.68164 11.9742 6.68164C11.7148 6.68164 11.5045 6.89192 11.5045 7.15133V7.32294C11.5014 7.32383 11.4984 7.32453 11.4953 7.32547C11.0108 7.47139 10.6493 7.88408 10.5516 8.40238C10.4615 8.88069 10.6186 9.34489 10.9615 9.61391C11.3036 9.88222 11.7948 10.0761 12.2746 10.2457C12.6649 10.3837 12.6763 10.6829 12.6484 10.8491C12.6021 11.1245 12.3703 11.4222 11.971 11.4248C11.5598 11.428 11.4424 11.4089 11.1311 11.2053C10.9139 11.0633 10.6229 11.1242 10.481 11.3413C10.339 11.5583 10.3998 11.8494 10.6169 11.9914C10.954 12.212 11.2057 12.3062 11.5045 12.3431V12.5024C11.5045 12.7618 11.7148 12.9721 11.9742 12.9721C12.2336 12.9721 12.4439 12.7618 12.4439 12.5024V12.2954C13.0775 12.1056 13.4828 11.5514 13.5747 11.0048C13.6977 10.2732 13.3011 9.61222 12.5877 9.36008Z" fill="#222222"/>
<path d="M23.8519 16.3235L21.7685 14.3657C21.632 14.2374 21.4323 14.2025 21.2604 14.2768C21.0885 14.3512 20.9772 14.5206 20.9772 14.7079V14.9663H18.7292C19.7904 13.5335 20.3655 11.8043 20.3655 10.0008C20.3655 8.8565 20.1375 7.74669 19.6876 6.70222C19.5851 6.46395 19.3089 6.35398 19.0705 6.45659C18.8323 6.55915 18.7223 6.83548 18.8249 7.0737C19.2239 8.00019 19.4262 8.98498 19.4262 10.0008C19.4262 11.9097 18.7001 13.725 17.3817 15.1124C17.2524 15.2485 17.2165 15.4486 17.2906 15.6212C17.3647 15.7937 17.5344 15.9056 17.7222 15.9056H21.4469C21.6038 15.9056 21.7427 15.8287 21.828 15.7105L22.8445 16.6657L21.828 17.6209C21.7427 17.5026 21.6038 17.4258 21.4469 17.4258C21.4469 17.4258 12.0184 17.427 12 17.427C7.90519 17.427 4.57378 14.0956 4.57378 10.0008C4.57378 8.09126 5.30025 6.27547 6.61931 4.88797C6.74873 4.75184 6.78459 4.55173 6.71053 4.37914C6.63652 4.20655 6.46673 4.0947 6.27895 4.0947H2.55309C2.39625 4.0947 2.25731 4.17162 2.172 4.2898L1.15552 3.33462L2.172 2.37945C2.25731 2.49767 2.39625 2.57455 2.55309 2.57455H12C13.5833 2.57455 15.0953 3.06814 16.3727 4.00198C16.5821 4.15508 16.8759 4.10937 17.0291 3.90003C17.1821 3.69064 17.1365 3.39678 16.9271 3.24369C15.4877 2.19148 13.784 1.63526 12 1.63526H3.02273V1.37689C3.02273 1.18958 2.91141 1.02017 2.73952 0.945827C2.56763 0.871483 2.36794 0.906358 2.23144 1.03466L0.148078 2.99244C0.0535781 3.08117 0 3.20506 0 3.33467C0 3.46428 0.0535781 3.58817 0.148078 3.67691L2.23148 5.63469C2.36803 5.76303 2.56781 5.79786 2.73956 5.72351C2.91145 5.64912 3.02278 5.47976 3.02278 5.29245V5.03408H5.2717C4.20994 6.46705 3.6345 8.19678 3.6345 10.0008C3.6345 14.6136 7.38727 18.3664 12 18.3664C12.0238 18.3664 20.9773 18.3651 20.9773 18.3651V18.6235C20.9773 18.8108 21.0886 18.9802 21.2605 19.0546C21.3206 19.0805 21.384 19.0932 21.4469 19.0932C21.5642 19.0932 21.6798 19.0493 21.7686 18.9657L23.852 17.008C23.9465 16.9192 24.0001 16.7953 24.0001 16.6657C24.0001 16.5361 23.9464 16.4122 23.8519 16.3235Z" fill="#222222"/>
<path d="M18.4502 5.47187C18.6634 5.32407 18.7164 5.03143 18.5685 4.81829C18.4208 4.60515 18.1281 4.55214 17.915 4.69998C17.7018 4.84778 17.6488 5.14042 17.7967 5.35356C17.9445 5.5667 18.2371 5.61967 18.4502 5.47187Z" fill="#222222"/>
</svg>
