<svg width="32" height="32" viewBox="0 0 32 32" fill="none" xmlns="http://www.w3.org/2000/svg">
<path d="M17.7452 16.3635C17.178 16.3926 16.5962 16.4071 15.9998 16.4071C15.4034 16.4071 14.8216 16.3926 14.2543 16.3635V14.458C11.1271 14.618 8.65434 15.2289 7.9707 15.9853C8.7707 16.8871 12.058 17.5562 15.9998 17.5562C19.9416 17.5562 23.2289 16.8871 24.0289 15.9853C23.3452 15.2289 20.8725 14.618 17.7452 14.458V16.3635Z" fill="#222222"/>
<path d="M16 0C7.15636 0 0 7.15636 0 16C0 24.8436 7.15636 32 16 32C24.8436 32 32 24.8436 32 16C32 7.15636 24.8436 0 16 0ZM24.2182 16.9891C24.1891 17.9345 21.4255 18.7345 17.7455 18.9236V23.3891H14.2545V18.9236C10.5745 18.7345 7.79636 17.9345 7.78182 16.9891V14.9964C7.78182 14.0364 10.5745 13.2364 14.2545 13.0473V11.2291H9.00364V8.61091H22.9964V11.2291H17.7455V13.0473C21.4255 13.2364 24.1891 14.0364 24.2182 14.9964V16.9891Z" fill="#222222"/>
</svg>
