<svg width="32" height="32" viewBox="0 0 32 32" fill="none" xmlns="http://www.w3.org/2000/svg">
<path d="M15.9991 3.55566C13.5379 3.55566 11.1319 4.28552 9.08537 5.65293C7.0389 7.02034 5.44386 8.9639 4.50197 11.2378C3.56008 13.5117 3.31364 16.0139 3.79381 18.4279C4.27398 20.8419 5.4592 23.0593 7.19959 24.7997C8.93997 26.54 11.1574 27.7253 13.5713 28.2054C15.9853 28.6856 18.4875 28.4392 20.7614 27.4973C23.0353 26.5554 24.9789 24.9603 26.3463 22.9139C27.7137 20.8674 28.4436 18.4614 28.4436 16.0001C28.4436 12.6996 27.1325 9.53434 24.7987 7.20056C22.4649 4.86677 19.2996 3.55566 15.9991 3.55566ZM24.248 23.929C24.2036 24.0372 24.1281 24.1298 24.0311 24.1952C23.934 24.2606 23.8198 24.2958 23.7028 24.2964H20.7399C20.6619 24.2969 20.5846 24.2819 20.5124 24.2524C20.4402 24.2229 20.3745 24.1795 20.3191 24.1245L16.4199 20.2194C16.3648 20.1638 16.2992 20.1197 16.227 20.0897C16.1548 20.0596 16.0774 20.0441 15.9991 20.0441C15.9209 20.0441 15.8435 20.0596 15.7712 20.0897C15.699 20.1197 15.6335 20.1638 15.5784 20.2194L11.6791 24.1245C11.6238 24.1795 11.5581 24.2229 11.4859 24.2524C11.4137 24.2819 11.3364 24.2969 11.2584 24.2964H8.29543C8.17844 24.2958 8.06424 24.2606 7.96722 24.1952C7.8702 24.1298 7.7947 24.0372 7.75025 23.929C7.70487 23.8211 7.69247 23.7021 7.71462 23.5872C7.73676 23.4722 7.79247 23.3664 7.87469 23.2831L13.9014 17.2564C14.1766 16.9805 14.5036 16.7616 14.8635 16.6122C15.2235 16.4628 15.6094 16.3859 15.9991 16.3859C16.3889 16.3859 16.7748 16.4628 17.1347 16.6122C17.4947 16.7616 17.8217 16.9805 18.0969 17.2564L24.1236 23.2831C24.2058 23.3664 24.2615 23.4722 24.2837 23.5872C24.3058 23.7021 24.2934 23.8211 24.248 23.929ZM24.1236 8.71714L18.0969 14.7438C17.8217 15.0197 17.4947 15.2387 17.1347 15.388C16.7748 15.5374 16.3889 15.6143 15.9991 15.6143C15.6094 15.6143 15.2235 15.5374 14.8635 15.388C14.5036 15.2387 14.1766 15.0197 13.9014 14.7438L7.87469 8.71714C7.79247 8.63381 7.73676 8.52799 7.71462 8.41303C7.69247 8.29808 7.70487 8.17914 7.75025 8.07122C7.7947 7.963 7.8702 7.87036 7.96722 7.80498C8.06424 7.7396 8.17844 7.7044 8.29543 7.70381H11.2584C11.3364 7.70336 11.4137 7.71831 11.4859 7.7478C11.5581 7.77729 11.6238 7.82074 11.6791 7.87566L15.5784 11.7808C15.6335 11.8364 15.699 11.8805 15.7712 11.9106C15.8435 11.9406 15.9209 11.9561 15.9991 11.9561C16.0774 11.9561 16.1548 11.9406 16.227 11.9106C16.2992 11.8805 16.3648 11.8364 16.4199 11.7808L20.3191 7.87566C20.3745 7.82074 20.4402 7.77729 20.5124 7.7478C20.5846 7.71831 20.6619 7.70336 20.7399 7.70381H23.7028C23.8198 7.7044 23.934 7.7396 24.0311 7.80498C24.1281 7.87036 24.2036 7.963 24.248 8.07122C24.2934 8.17914 24.3058 8.29808 24.2837 8.41303C24.2615 8.52799 24.2058 8.63381 24.1236 8.71714Z" fill="#222222"/>
<path d="M14.7439 18.0976L9.72461 23.1109H11.0165L14.7439 19.3835C15.0772 19.0506 15.5291 18.8636 16.0002 18.8636C16.4713 18.8636 16.9231 19.0506 17.2565 19.3835L20.9839 23.1109H22.2757L17.2565 18.0976C16.9231 17.7646 16.4713 17.5776 16.0002 17.5776C15.5291 17.5776 15.0772 17.7646 14.7439 18.0976Z" fill="#222222"/>
<path d="M16 0C12.8355 0 9.74207 0.938384 7.11088 2.69649C4.4797 4.45459 2.42894 6.95345 1.21793 9.87706C0.00693258 12.8007 -0.309921 16.0177 0.307443 19.1214C0.924806 22.2251 2.44866 25.0761 4.6863 27.3137C6.92394 29.5513 9.77486 31.0752 12.8786 31.6926C15.9823 32.3099 19.1993 31.9931 22.1229 30.7821C25.0466 29.5711 27.5454 27.5203 29.3035 24.8891C31.0616 22.2579 32 19.1645 32 16C32 11.7565 30.3143 7.68687 27.3137 4.68629C24.3131 1.68571 20.2435 0 16 0ZM16 29.6296C13.3043 29.6296 10.6692 28.8303 8.42779 27.3326C6.18641 25.835 4.43947 23.7063 3.40787 21.2158C2.37628 18.7253 2.10636 15.9849 2.63227 13.341C3.15817 10.6971 4.45626 8.26853 6.3624 6.36239C8.26854 4.45626 10.6971 3.15816 13.341 2.63226C15.9849 2.10636 18.7253 2.37627 21.2158 3.40786C23.7063 4.43946 25.835 6.1864 27.3326 8.42778C28.8303 10.6692 29.6296 13.3043 29.6296 16C29.6296 19.6148 28.1937 23.0815 25.6376 25.6376C23.0816 28.1936 19.6148 29.6296 16 29.6296Z" fill="#222222"/>
<path d="M17.2565 12.6161C16.9231 12.949 16.4713 13.136 16.0002 13.136C15.5291 13.136 15.0772 12.949 14.7439 12.6161L11.0165 8.88867H9.72461L14.7439 13.902C15.0772 14.2349 15.5291 14.4219 16.0002 14.4219C16.4713 14.4219 16.9231 14.2349 17.2565 13.902L22.2757 8.88867H20.9839L17.2565 12.6161Z" fill="#222222"/>
</svg>
